<svg width="370" height="459" viewBox="0 0 370 459" fill="none" xmlns="http://www.w3.org/2000/svg">
<g filter="url(#filter0_d_729_1831)">
<g opacity="0.5">
<path d="M186.828 419.516C134.756 429.132 19.8531 422.398 7.68143 353.34C1.63845 319.047 27.0318 301.535 41.2179 274.901C50.9681 256.615 44.7536 243.642 37.0392 226.195C20.4746 188.739 14.9459 149.778 47.968 120.412C83.9902 88.3571 147.613 62.6268 195.528 83.7317C230.65 99.1999 256.644 130.524 263.587 165.311C269.801 196.57 253.194 228.927 262.965 259.713C273.251 292.112 297.53 321.069 283.302 356.588C268.623 393.247 224.929 412.502 186.807 419.537L186.828 419.516Z" fill="#CFD1DD"/>
</g>
<mask id="mask0_729_1831" style="mask-type:luminance" maskUnits="userSpaceOnUse" x="0" y="1" width="345" height="422">
<path d="M186.828 419.516C134.755 429.132 19.853 422.398 7.68131 353.34C2.68835 324.942 19.2316 308.054 33.1176 287.96C37.0391 282.302 15.2243 252.592 12.31 247.471C8.60276 240.974 -7.08329 179.252 3.7598 160.255C15.2029 140.162 10.0814 108.903 10.1028 86.8296C10.1028 65.6602 12.0528 35.0249 30.5032 21.3853C51.9751 5.50828 82.9615 1.74341 108.933 1.05497C192.485 -1.16093 253.451 64.0252 305.223 121.983C318.531 136.892 338.931 156.555 343.024 177.144C349.239 208.403 330.402 232.046 290.694 257.949C285.273 261.498 267.401 271.997 270.037 277.999C281.137 303.428 294.809 327.868 283.301 356.588C268.623 393.247 224.929 412.502 186.807 419.537L186.828 419.516Z" fill="white"/>
</mask>
<g mask="url(#mask0_729_1831)">
<path d="M325.624 189.428L311.138 190.245L255.572 193.365C253.001 193.516 250.644 194.785 249.101 196.829L236.951 212.964C235.408 215.029 233.029 216.298 230.479 216.428L201.593 218.041H201.1L185.778 218.923C182.778 219.095 180.056 217.718 178.342 215.481C178.192 215.287 178.064 215.094 177.935 214.879C177.228 213.76 176.756 212.491 176.606 211.092C176.606 210.942 176.585 210.791 176.585 210.64L176.114 202.336L175.342 188.46C175.085 183.748 178.578 179.682 183.228 179.252H183.421L183.571 179.231L184.235 179.187L191.821 178.757L198.035 178.413C198.035 178.413 198.078 178.413 198.1 178.413L310.152 172.153L324.638 171.335C329.46 171.055 333.574 174.756 333.831 179.596L333.874 180.156C333.895 180.65 333.874 181.145 333.831 181.619C333.36 185.792 329.952 189.148 325.645 189.385L325.624 189.428Z" fill="#202538"/>
<path d="M219.936 186.33C220.064 188.632 218.307 190.59 216.014 190.719C213.721 190.848 211.771 189.084 211.643 186.782C211.514 184.48 213.271 182.522 215.564 182.393C217.857 182.264 219.807 184.028 219.936 186.33Z" fill="white"/>
<path d="M220.75 200.895C220.879 203.197 219.122 205.154 216.829 205.283C214.536 205.413 212.586 203.648 212.457 201.346C212.329 199.045 214.086 197.087 216.379 196.958C218.672 196.829 220.622 198.593 220.75 200.895Z" fill="white"/>
<g style="mix-blend-mode:multiply" opacity="0.25">
<path d="M310.731 182.952L250.536 186.33C247.986 186.459 245.608 187.728 244.065 189.794L231.915 205.929C230.372 207.994 227.993 209.263 225.443 209.393L204.464 210.576H204.078V210.597L180.742 211.91C180.185 211.931 179.649 211.91 179.114 211.845C179.049 211.845 179.006 211.845 178.942 211.824C178.128 211.695 177.335 211.458 176.606 211.135C176.756 212.512 177.228 213.803 177.935 214.922C178.064 215.115 178.214 215.309 178.342 215.524C180.035 217.761 182.778 219.117 185.778 218.966L201.1 218.106H201.593L230.479 216.471C233.05 216.341 235.408 215.072 236.95 213.007L249.101 196.872C250.644 194.806 253.022 193.537 255.572 193.408L311.138 190.289L325.624 189.471C329.931 189.234 333.36 185.878 333.81 181.705L310.731 182.995V182.952Z" fill="#6E7289"/>
</g>
<path d="M230.436 150.919C230.95 160.105 225.915 167.85 219.207 168.216C212.5 168.581 206.628 161.46 206.136 152.274C205.621 143.088 210.657 135.343 217.364 134.977C224.072 134.611 229.943 141.732 230.436 150.919Z" fill="#202538"/>
<path d="M274.494 162.794L274.023 247.751C274.001 252.828 269.48 257.174 263.908 257.475L184.621 261.907C179.071 262.208 174.099 258.422 173.499 253.366L163.642 168.99C162.913 162.751 167.413 157.373 173.671 157.028L263.201 152.016C269.48 151.672 274.516 156.512 274.494 162.794Z" fill="#3D4357"/>
<path d="M274.494 162.794L274.43 174.261L164.97 180.371L163.642 168.969C162.913 162.73 167.413 157.351 173.671 157.007L263.201 151.994C269.48 151.65 274.516 156.491 274.494 162.773V162.794Z" fill="#202538"/>
<g style="mix-blend-mode:multiply" opacity="0.25">
<path d="M274.494 162.794L274.023 247.751C274.001 252.828 269.48 257.174 263.908 257.475L184.621 261.907C179.071 262.208 174.099 258.422 173.499 253.366L172.856 247.794C222.443 240.888 238.472 204.789 243.765 175.96C245.393 167.14 245.993 159.094 246.165 152.941L263.201 151.994C269.48 151.65 274.516 156.491 274.494 162.773V162.794Z" fill="#6E7289"/>
</g>
<path d="M216.336 138.505C220.9 140.549 223.793 145.239 224.457 150.101C224.522 150.488 224.265 150.833 223.879 150.897C223.493 150.962 223.15 150.703 223.086 150.316C222.336 145.927 219.893 141.646 215.929 139.495C215.286 139.237 215.693 138.204 216.357 138.484L216.336 138.505Z" fill="white"/>
<path d="M171.528 427.088C189.399 471.127 203.993 516.499 215.157 562.861C226.3 609.201 234.015 656.552 237.208 704.355C237.829 713.692 238.258 723.051 238.45 732.431C238.536 736.346 238.6 740.262 238.622 744.177C238.665 752.481 238.493 759.903 238.236 766.25C238.236 766.25 238.472 771.585 235.172 773.844C234.915 774.016 234.658 774.145 234.379 774.296C233.565 774.662 232.579 774.855 231.422 774.812C231.422 774.812 198.292 775.2 198.164 775.2C194.157 775.243 191.585 770.875 191.307 767.433C190.642 760.678 189.849 753.923 188.992 747.167C188.499 743.575 188.007 739.982 187.535 736.389C181.642 696.331 173.306 656.552 161.499 617.699C148.706 575.683 129.162 536.098 108.676 497.717C104.219 489.37 98.2403 478.828 92.5402 467.448C86.8401 456.046 81.3971 443.804 78.1185 431.821C74.8612 419.838 73.7684 408.092 76.8756 397.464C78.4399 392.15 81.0542 387.116 84.9972 382.426C88.9401 377.758 94.1902 373.412 100.94 369.389C102.59 368.292 104.326 367.474 106.019 366.807C107.733 366.183 109.426 365.689 111.076 365.301C114.376 364.548 117.569 364.333 120.655 364.57C126.805 365.043 132.462 367.367 137.563 370.895C147.763 377.951 155.563 389.848 160.706 401.466C164.477 409.964 168.078 418.483 171.57 427.088H171.528Z" fill="#202538"/>
<path d="M133.556 570.24C130.041 617.785 122.97 665.244 111.441 711.713C109.191 720.792 106.748 729.827 104.069 738.82C102.976 742.585 101.819 746.328 100.662 750.072C98.1762 757.989 95.7548 765.002 93.569 770.961C93.569 770.961 92.1761 776.125 88.3403 777.243C88.0403 777.329 87.7617 777.372 87.4403 777.415C86.5617 777.501 85.5545 777.394 84.4617 777.007C84.4617 777.007 52.811 767.218 52.661 767.175C48.8252 765.97 47.7109 761.044 48.5037 757.687C49.9395 751.04 51.2467 744.371 52.4681 737.68C53.0896 734.109 53.7324 730.537 54.3539 726.966C60.954 687.015 65.1327 646.591 65.7327 605.974C66.847 464.221 16.2102 437.608 64.5541 358.482C72.0757 353.77 82.9188 350.543 89.326 350.048C115.769 349.08 128.005 373.52 130.813 399.831C131.798 409.06 137.777 512.261 133.556 570.218V570.24Z" fill="#202538"/>
<path d="M166.685 420.849C145.277 437.114 108.719 414.094 84.3115 413.556C69.0969 413.212 53.7108 420.14 38.4962 416.697C26.1317 413.879 29.1532 407.705 32.7104 398.432C42.5463 372.831 44.9678 337.334 41.282 309.71C36.9962 277.677 14.71 263.198 15.8243 226.496C16.8315 193.451 63.9325 181.382 89.6902 179.897C112.855 178.564 134.134 185.921 148.791 205.24C168.463 231.164 169.042 270.298 166.042 300.696C162.87 332.881 162.163 361.537 169.299 393.506C172.02 405.639 174.571 414.89 166.685 420.893V420.849Z" fill="#8DC63F"/>
<g style="mix-blend-mode:multiply" opacity="0.25">
<path d="M166.685 420.849C145.277 437.114 108.719 414.094 84.3116 413.556C69.097 413.212 53.7109 420.14 38.4963 416.697C26.1317 413.879 29.1532 407.705 32.7105 398.432C39.0749 381.867 42.3107 361.3 42.8464 341.443C43.1035 342.454 43.3178 343.272 43.425 343.788C46.0822 355.642 49.8108 368.464 57.6538 378.059C67.9183 390.58 85.1259 388.192 99.4404 387.805C105.376 387.633 113.584 386.428 119.219 388.751C134.22 394.969 137.734 406.973 155.177 400.885C156.292 400.498 163.256 396.733 169.278 393.484C169.663 395.205 170.028 396.948 170.392 398.669C172.213 407.597 173.799 415.428 166.663 420.849H166.685Z" fill="#6E7289"/>
</g>
<path d="M123.334 232.649C128.112 241.727 133.32 251.064 137.22 260.573C137.541 261.412 136.234 261.907 135.913 261.068C134.305 256.981 131.241 251.107 129.291 247.063L122.369 233.143C122.048 232.541 123.012 232.025 123.334 232.649Z" fill="#202538"/>
<path d="M73.4042 206.036C68.1541 198.958 53.5609 186.954 61.2539 178.542C77.7328 160.557 67.3826 154.081 86.6259 150.962C90.9546 150.273 95.3261 150.467 99.719 150.66C112.169 151.155 125.005 159.395 119.948 169.743C110.862 188.804 126.227 196.312 126.827 211.35C127.598 230.755 93.076 232.713 73.4042 206.058V206.036Z" fill="#8D5524"/>
<path d="M121.105 197.345C108.419 197.926 94.3404 189.536 88.1902 181.662C81.2687 172.755 89.5831 165.247 93.9118 167.656C95.8618 168.753 109.984 172.411 118.812 172.518C116.305 180.156 117.784 189.944 121.105 197.345Z" fill="#7A4A20"/>
<path d="M113.712 108.58C116.648 112.345 127.705 114.173 130.598 126.393C133.384 138.183 131.391 142.571 131.391 152.252C131.391 165.44 155.349 160.621 152.584 144.723C151.641 139.28 148.106 137.107 151.556 131.987C155.349 126.329 156.913 116.561 151.534 111.161C145.341 104.944 138.913 106.278 139.063 101.394C139.277 93.6924 140.327 84.5707 131.562 81.8385C123.676 79.3859 117.526 81.1285 111.869 86.6575C108.419 90.0351 107.069 100.082 113.733 108.623L113.712 108.58Z" fill="#202538"/>
<path d="M143.241 127.254C144.463 155.178 132.998 181.124 107.326 180.564C84.3972 180.069 61.511 158.836 60.2895 130.911C59.0681 102.986 76.7042 80.354 99.569 78.5254C123.419 76.6322 142.106 100.663 143.263 127.275L143.241 127.254Z" fill="#8D5524"/>
<mask id="mask1_729_1831" style="mask-type:luminance" maskUnits="userSpaceOnUse" x="60" y="78" width="84" height="103">
<path d="M143.241 127.254C144.463 155.178 132.998 181.124 107.326 180.564C84.3972 180.069 61.511 158.836 60.2895 130.911C59.0681 102.986 76.7042 80.354 99.569 78.5254C123.419 76.6322 142.106 100.663 143.263 127.275L143.241 127.254Z" fill="white"/>
</mask>
<g mask="url(#mask1_729_1831)">
<path d="M126.891 119.724C127.063 115.314 137.906 116.777 137.263 121.23C136.706 124.995 126.763 123.338 126.891 119.724Z" fill="#202538"/>
<path d="M97.1477 120.391C96.2905 116.045 107.176 114.948 107.584 119.423C107.926 123.209 97.8548 123.919 97.1477 120.391Z" fill="#202538"/>
<path d="M134.584 132.976C134.198 134.396 133.234 135.214 132.077 135.128C129.527 134.912 128.798 131.277 130.041 129.427C131.241 127.641 133.941 128.286 134.541 130.244C134.798 131.105 134.82 132.116 134.584 132.998V132.976Z" fill="#202538"/>
<path d="M105.377 131.341C104.927 132.74 103.941 133.536 102.784 133.385C100.255 133.062 99.655 129.405 100.984 127.598C102.248 125.855 104.927 126.63 105.441 128.588C105.677 129.47 105.655 130.481 105.377 131.341Z" fill="#202538"/>
<path d="M122.884 158.685C121.941 159.675 120.827 160.363 119.648 160.772C115.362 162.342 110.177 160.514 107.884 156.964C107.819 156.856 107.734 156.749 107.691 156.62C107.112 155.609 106.705 154.49 106.598 153.307C106.469 152.123 106.598 150.338 107.605 149.628C108.612 148.939 109.919 148.832 110.862 149.606C111.334 149.972 111.827 150.402 112.298 150.854C114.098 152.575 116.284 153.436 118.898 153.479C119.734 153.479 120.655 153.5 121.491 153.694C123.848 154.232 124.598 156.878 122.884 158.664V158.685Z" fill="#202538"/>
<path d="M119.648 160.793C115.363 162.364 110.177 160.535 107.884 156.985C107.819 156.878 107.734 156.77 107.691 156.641C107.927 156.254 108.934 156.017 109.212 155.931C109.92 155.738 110.648 155.609 111.377 155.587C114.441 155.458 118.684 157.007 119.648 160.793Z" fill="#F0D0BB"/>
<path opacity="0.75" d="M84.8902 147.39C84.8045 144.465 88.4045 141.388 93.1618 141.367C97.4476 141.345 101.133 143.561 101.326 147.541C101.476 150.639 97.6404 153.78 93.6546 153.801C89.026 153.823 84.8473 151.586 84.8902 147.39Z" fill="#9E5637"/>
<path opacity="0.75" d="M144.741 147.046C145.041 144.142 141.698 140.786 136.963 140.398C132.677 140.033 128.841 141.969 128.348 145.927C127.962 149.004 131.541 152.425 135.527 152.769C140.134 153.156 144.484 151.241 144.763 147.068L144.741 147.046Z" fill="#9E5637"/>
<path d="M118.277 125.016C119.712 129.9 121.491 134.697 121.727 139.796C121.619 143.539 117.355 144.744 114.312 144.938C113.584 144.981 113.476 143.862 114.205 143.755C114.698 143.69 115.148 143.604 115.555 143.453C116.755 143.045 118.448 142.722 119.327 141.861C120.569 140.786 120.419 138.763 120.034 136.913C119.284 133.041 118.405 129.104 117.398 125.296C117.205 124.737 118.084 124.435 118.277 124.995V125.016Z" fill="#202538"/>
</g>
<path d="M74.4755 137.989C75.247 138.979 76.5541 140.506 77.3899 141.517C77.9899 142.141 77.0256 143.109 76.4041 142.507C75.1612 141.28 74.3041 140.054 73.5112 138.484C73.3826 138.204 73.5112 137.881 73.7898 137.774C74.0469 137.666 74.3255 137.774 74.4755 137.989Z" fill="#202538"/>
<path d="M276.808 193.838C272.587 190.805 264.508 189.536 260.63 192.59C258.101 194.57 258.358 196.915 261.765 199.088C262.687 199.668 261.38 199.841 260.844 200.013C258.851 200.637 256.794 201.562 256.644 203.95C256.558 205.305 257.222 206.596 258.229 207.456C258.98 208.08 260.715 208.274 261.015 209.285C261.037 209.371 258.744 210.382 258.508 210.49C257.651 210.92 256.729 211.458 256.129 212.232C254.887 213.867 255.358 216.105 256.794 217.439C258.337 218.88 259.344 218.772 260.244 219.396C259.687 220.063 259.065 220.192 258.229 220.881C253.944 224.388 258.594 227.873 262.108 228.69C267.187 229.873 274.366 229.379 278.223 225.463C281.051 222.602 282.509 218.579 283.13 214.663C284.202 208.059 283.494 197.474 276.787 193.838H276.808Z" fill="#8D5524"/>
<path d="M262.108 199.152C265.43 199.41 268.773 199.561 272.03 200.249C272.351 200.314 272.544 200.636 272.48 200.959C272.416 201.239 272.158 201.432 271.901 201.411C270.23 201.389 268.58 201.131 266.93 200.873C265.28 200.615 263.63 200.378 262.001 200.056C261.465 199.948 261.572 199.109 262.108 199.131V199.152Z" fill="#202538"/>
<path d="M260.93 208.51C264.251 208.769 267.594 208.919 270.851 209.608C271.173 209.672 271.366 209.995 271.301 210.318C271.237 210.597 270.98 210.791 270.723 210.769C269.051 210.748 267.401 210.49 265.751 210.232C264.101 209.973 262.451 209.737 260.822 209.414C260.287 209.306 260.394 208.467 260.93 208.489V208.51Z" fill="#202538"/>
<path d="M260.63 218.987C263.951 219.246 267.294 219.396 270.551 220.085C270.873 220.149 271.065 220.472 271.001 220.795C270.937 221.074 270.68 221.268 270.423 221.246C268.751 221.225 267.101 220.967 265.451 220.709C263.801 220.45 262.151 220.214 260.522 219.891C259.987 219.783 260.094 218.944 260.63 218.966V218.987Z" fill="#202538"/>
<path d="M97.8762 289.746L98.4119 290.542C98.669 290.908 98.9048 291.295 99.1619 291.66C99.9548 292.801 100.726 293.898 101.498 294.974L102.633 296.501L102.912 296.867L103.062 297.039C103.062 297.039 103.062 297.039 103.062 297.06C103.062 297.103 103.062 297.103 103.062 297.125C103.062 297.254 103.062 297.426 103.148 297.62C103.255 298.05 103.662 298.33 104.198 298.373C104.326 298.373 104.476 298.373 104.626 298.373C104.691 298.373 104.819 298.308 104.926 298.287C104.969 298.287 104.969 298.287 105.033 298.244L105.376 297.985L106.083 297.491C107.969 296.114 109.962 294.457 111.955 292.629C115.962 288.95 120.034 284.647 123.998 280.108C130.127 273.051 135.913 265.521 141.656 257.798C147.399 250.053 153.142 242.029 159.206 233.703C161.22 230.949 163.32 228.088 165.442 225.184C166.62 223.592 167.799 221.978 168.999 220.343C168.999 220.343 169.021 220.3 169.042 220.278C172.449 215.675 177.571 212.813 182.628 214.083C183.357 214.276 184.064 214.534 184.771 214.9C184.985 215.008 185.178 215.115 185.392 215.244C185.542 215.309 185.671 215.395 185.799 215.481C187.621 216.6 188.821 217.976 189.507 219.525C189.507 219.525 189.507 219.547 189.507 219.59C191.2 223.355 190 228.131 188.371 232.713V232.735C188.028 233.681 187.707 234.585 187.364 235.51C187.321 235.596 187.299 235.661 187.278 235.747C185.885 239.469 184.449 243.19 182.949 246.891C176.864 261.972 169.963 276.859 161.606 291.445C157.406 298.738 152.842 305.967 147.549 313.088C144.891 316.659 142.02 320.187 138.806 323.694C137.198 325.458 135.484 327.201 133.663 328.922L132.227 330.213L131.52 330.858L131.155 331.181L130.641 331.611C129.227 332.751 127.855 333.892 126.312 334.924C117.612 341.314 107.069 345.315 96.5476 344.197C86.0259 342.82 76.94 335.828 69.3755 327.373L68.0255 325.846L66.9969 324.662C66.3326 323.888 65.6469 323.092 65.0469 322.317C58.3825 314.121 53.0895 306.053 48.0751 297.942C43.1036 289.832 38.5177 281.721 34.1891 273.589C27.5675 261.154 20.4102 248.268 18.5245 234.327C17.5602 227.163 19.6602 219.698 23.8603 214.341C23.8603 214.298 23.9031 214.276 23.9246 214.255C25.8532 211.802 28.2104 209.801 30.889 208.467H30.9104C31.8319 207.994 32.7962 207.628 33.8248 207.327L33.9105 207.284C35.3034 206.875 36.7606 206.617 38.282 206.574C40.2535 206.488 42.3107 206.746 44.4536 207.327C54.0966 210.038 59.7968 219.181 64.0397 227.658C69.4398 238.5 74.9042 249.279 80.5186 259.799C86.1116 270.276 91.8975 280.646 97.8547 289.681L97.8762 289.746Z" fill="#8D5524"/>
<path d="M97.8761 289.746C94.0403 294.565 89.4545 300.051 84.0758 305.73C78.6971 311.388 72.5255 317.262 65.1111 322.339C58.4467 314.142 53.1537 306.075 48.1393 297.964C43.1678 289.853 38.582 281.743 34.2533 273.611C27.6317 261.176 20.4744 248.289 18.5887 234.348C17.6244 227.184 19.7244 219.719 23.9245 214.362C23.9245 214.319 23.9674 214.298 23.9888 214.276C26.4103 211.608 29.3246 209.371 32.6033 207.801H32.6247C33.0533 207.65 33.4604 207.499 33.889 207.349L33.9747 207.306C35.3676 206.897 36.8248 206.639 38.3462 206.596C40.3177 206.51 42.3749 206.768 44.5178 207.349C54.1609 210.059 59.861 219.203 64.1039 227.679C69.504 238.522 74.9684 249.3 80.5828 259.82C86.1758 270.297 91.9617 280.667 97.9189 289.703L97.8761 289.746Z" fill="#D17E64"/>
<path d="M200.5 190.869C202.321 189.148 204.228 189.794 204.507 192.268C205.064 196.979 200.971 203.648 200.478 205.477C200.65 205.369 200.843 205.305 200.95 205.154C201.635 204.186 202.321 203.218 202.943 202.185C204.743 199.26 206.607 199.475 207.378 201.411C208.836 205.047 206.221 213.738 200.907 221.892C195.592 230.067 187.557 237.64 178.685 239.21C174.356 239.985 168.785 236.478 167.178 231.81C164.285 223.355 165.013 209.199 166.963 201.562C168.399 196.011 171.892 195.108 173.799 197.861C175.599 200.486 176.435 204.767 176.756 205.671C179.114 211.974 184.835 197.732 188.757 189.342C191.242 184.05 195.421 182.716 196.557 186.653C197.757 190.955 195.528 196.979 196.643 195.602C197.243 194.849 199.535 191.794 200.478 190.891L200.5 190.869Z" fill="#8D5524"/>
<path d="M167.585 231.853C170.585 235.639 175.535 237.64 180.292 237.038C181.171 236.952 181.299 238.328 180.421 238.436C175.171 239.275 169.685 236.865 166.685 232.477C166.278 231.896 167.199 231.272 167.585 231.874V231.853Z" fill="#202538"/>
<path d="M191.178 202.25C192.614 200.013 194.007 197.732 195.185 195.409C195.357 195.065 195.785 194.914 196.128 195.086C196.45 195.258 196.6 195.645 196.471 195.968C195.378 198.507 193.835 200.766 192.078 202.895C191.649 203.412 190.835 202.788 191.221 202.229L191.178 202.25Z" fill="#202538"/>
<path d="M196.171 211.006C197.564 208.661 198.978 206.273 200.178 203.842C200.35 203.498 200.778 203.347 201.121 203.519C201.443 203.691 201.593 204.079 201.443 204.423C200.307 207.048 198.764 209.393 197.071 211.608C196.664 212.146 195.807 211.544 196.192 210.985L196.171 211.006Z" fill="#202538"/>
<path d="M106.341 330.32C103.255 324.232 102.591 316.767 105.226 310.399C105.355 310.098 105.698 309.947 105.998 310.055C106.276 310.162 106.426 310.485 106.341 310.765C104.369 316.982 104.519 323.909 107.176 329.89C107.433 330.406 106.619 330.815 106.362 330.299L106.341 330.32Z" fill="#D17E64"/>
<path d="M42.1606 202.401C52.168 204.961 61.2967 214.943 66.954 223.355C74.8399 235.101 81.9329 247.106 88.2973 259.799C103.833 290.8 126.634 318.036 123.741 336.387C121.962 347.703 102.698 352.243 92.8188 349.597C83.4115 347.058 76.6185 336.925 70.3184 329.998C56.1323 314.357 44.775 296.458 33.5247 278.645C25.5746 266.081 17.9672 251.258 15.7386 236.155C13.4029 220.472 21.9316 197.216 42.1606 202.401Z" fill="#8DC63F"/>
<path d="M102.955 295.533C110.433 287.272 118.362 279.57 121.491 276.816C124.619 274.084 126.312 273.912 129.805 276.3C138.677 282.345 150.141 292.564 156.334 301.922C157.749 304.074 157.856 306.204 156.334 308.376C148.663 319.262 146.541 320.639 133.77 333.225C123.998 342.841 107.626 354.502 95.1331 347.23C73.1255 334.472 86.4115 313.841 102.976 295.533H102.955Z" fill="#8DC63F"/>
<path d="M121.341 284.862C131.905 291.209 142.491 298.437 148.941 309.28C149.134 309.624 149.006 310.033 148.684 310.227C148.363 310.42 147.934 310.291 147.741 309.969C141.463 299.577 130.963 292.177 120.827 285.787C120.205 285.465 120.741 284.475 121.362 284.841L121.341 284.862Z" fill="#202538"/>
<path d="M124.448 275.138C114.998 283.571 105.312 292.091 97.2331 301.858C96.9974 302.159 96.5474 302.224 96.2474 301.987C95.9474 301.75 95.9045 301.32 96.1403 301.019C100.147 295.963 104.712 291.445 109.362 287.013C114.055 282.646 118.855 278.43 123.741 274.299C124.255 273.847 124.984 274.665 124.448 275.138Z" fill="#202538"/>
<path d="M70.361 227.507C79.0827 242.545 96.483 272.879 105.055 288.003C105.505 288.756 104.283 289.509 103.855 288.692C95.1973 273.611 77.9255 243.19 69.4396 228.045C69.0967 227.464 70.0396 226.883 70.3825 227.507H70.361Z" fill="#202538"/>
<path d="M47.5821 299.405C55.9823 313.776 66.1182 327.438 77.797 339.313C90.6973 352.522 107.519 354.028 122.134 342.562C131.005 335.914 138.163 327.179 145.127 318.488C145.363 318.187 145.813 318.144 146.113 318.38C146.413 318.617 146.456 319.069 146.22 319.37C139.234 328.104 132.055 336.904 122.969 343.702C99.5903 361.214 80.84 347.811 65.5611 327.782C58.618 318.961 52.0822 309.796 46.6178 299.943C46.2964 299.341 47.2392 298.781 47.5821 299.427V299.405Z" fill="#202538"/>
<path d="M117.184 186.717C116.905 182.845 116.734 181.618 122.134 182.565C127.362 183.49 132.355 184.48 136.041 187.771C138.72 190.159 134.391 232.67 115.255 230.691C96.1617 228.733 68.6468 208.704 53.4322 197.087C51.5036 195.624 49.7464 193.946 48.0106 192.225C46.832 191.063 46.9392 190.009 48.2463 188.976C52.3821 185.706 57.9323 183.383 62.9895 182.221C67.7039 181.145 71.4968 180.349 75.6112 183.727C83.4114 190.181 83.3257 191.063 87.2043 194.656C110.583 216.341 102.29 208.338 114.183 221.074C115.705 222.688 116.584 224.065 117.162 222.688C117.634 221.548 117.912 216.234 117.934 215.115C118.062 203.605 118.662 207.263 117.205 186.674L117.184 186.717Z" fill="#3D4357"/>
<path d="M66.0754 182.544C68.3469 177.23 66.9326 166.322 72.7827 167.936C82.4257 170.582 84.3758 161.396 80.54 154.533C78.0542 150.058 65.4754 145.433 65.454 139.258C65.454 135.429 69.8683 132.159 73.3398 131.944C81.1186 131.449 87.5044 133.256 90.9974 121.854C98.6261 96.855 103.512 108.042 112.984 101.394C125.155 92.8319 125.755 77.2561 114.484 66.9941C112.126 64.8428 109.769 62.6699 106.791 61.3145C98.3261 57.4851 93.0974 60.6476 87.0758 63.681C79.9614 67.2738 74.9256 65.1009 70.5755 64.4555C63.5039 63.4229 73.147 76.0083 74.0041 80.1819C80.2614 110.495 57.5252 94.8757 50.9465 111.678C49.0822 116.454 53.1966 124.306 40.982 126.35C31.2961 127.985 26.6031 141.173 32.989 150.488C35.6033 154.296 39.6748 157.416 39.0748 162.6C38.6034 166.602 35.9676 169.98 35.4319 174.024C33.9961 185.147 43.5321 193.558 53.5394 192.182C58.9395 191.429 63.9111 187.685 66.0968 182.565L66.0754 182.544Z" fill="#202538"/>
<path d="M113.519 67.3814C117.291 74.1797 121.384 81.4728 121.276 89.4974C121.255 89.8846 120.912 90.1643 120.526 90.1428C120.141 90.1213 119.862 89.7771 119.884 89.4113C119.798 81.774 115.919 74.6315 112.576 67.9408C112.255 67.3384 113.176 66.8006 113.519 67.4029V67.3814Z" fill="#202538"/>
<path d="M57.0966 114.776C58.4038 120.929 55.1466 127.232 50.1322 130.696C46.9393 132.955 43.1463 134.375 40.4463 137.171C33.3532 144.529 43.1035 150.467 45.8464 157.136C46.6178 159.051 46.9821 161.202 46.7464 163.267C46.4678 167.527 43.5535 170.883 43.5963 174.519C43.6392 178.155 46.1678 181.662 49.5322 183.06C52.9179 184.523 57.0752 183.92 59.861 181.468C60.1395 181.21 60.5895 181.231 60.8467 181.532C61.1038 181.812 61.0824 182.264 60.7824 182.522C57.6323 185.34 52.8322 186.05 48.9964 184.372C45.1392 182.759 42.2463 178.865 42.182 174.541C42.1606 172.368 42.9963 170.388 43.7463 168.581C45.3535 165.096 46.0607 161.267 44.5606 157.674C41.3248 150.381 31.8746 144.723 39.5891 136.332C42.4177 133.428 46.2749 132.008 49.4893 129.749C54.1823 126.565 57.268 120.714 56.0894 115.012C55.9394 114.346 57.0323 114.087 57.1609 114.797L57.0966 114.776Z" fill="#3D4357"/>
<path d="M168.399 49.4821C168.528 54.4302 167.092 59.5935 163.727 64.348C154.02 78.0736 145.427 77.041 142.92 81.9461C142.62 82.5269 142.406 83.2154 142.277 84.0114C142.277 84.0974 142.256 84.1835 142.256 84.2911C142.234 84.4416 142.213 84.5922 142.213 84.7644C142.191 85.1301 142.17 85.5173 142.191 85.9261C142.384 92.0359 142.213 98.1243 142.084 104.234C142.02 107.698 129.312 109.139 117.419 109.677C111.333 109.957 105.44 109.978 101.626 109.957C101.626 109.957 61.361 109.053 61.361 103.589C61.361 97.1562 61.3181 90.7236 61.5752 84.2911C61.5752 83.9468 61.5752 83.6456 61.5752 83.3445C61.5752 83.2584 61.5752 83.1508 61.5752 83.0648C61.511 82.4839 61.4038 81.9676 61.211 81.4943C60.8895 80.6553 60.3752 79.9668 59.6895 79.3644C56.7109 76.6537 50.6036 75.2984 43.7677 67.3814C42.9534 66.4348 42.1391 65.4236 41.3034 64.2834C32.0032 51.4828 36.6747 36.2297 49.4893 28.3988C50.5393 27.7534 51.6322 27.1725 52.7679 26.6347C63.0539 21.8156 63.2467 26.5271 70.1469 20.073C86.4115 4.81989 110.691 2.45339 128.584 15.4261C135.698 20.5678 142.684 24.5263 151.299 27.2801C161.563 30.5501 168.142 39.6073 168.399 49.4821Z" fill="white"/>
<g style="mix-blend-mode:multiply" opacity="0.25">
<path d="M168.399 49.4821C168.528 54.4302 167.092 59.5935 163.728 64.348C154.02 78.0736 145.427 77.041 142.92 81.9461C141.527 81.7955 140.284 81.7309 139.191 81.7955C128.498 82.5269 111.934 68.3495 110.476 65.0579C110.476 65.0579 107.219 61.96 107.326 59.5289C107.455 56.7967 111.248 54.7744 116.327 56.3019C120.698 57.6142 124.341 58.819 128.091 61.3791C133.363 64.9934 138.163 68.8013 144.613 69.1025C150.827 69.3821 156.506 66.3057 160.642 62.1105C164.07 58.6038 167.049 54.2581 168.399 49.4606V49.4821Z" fill="#6E7289"/>
</g>
<g style="mix-blend-mode:multiply" opacity="0.25">
<path d="M117.419 109.677C111.333 109.957 105.44 109.978 101.626 109.957C101.626 109.957 61.361 109.053 61.361 103.589C61.361 97.1562 61.3181 90.7236 61.5752 84.2911C61.5752 83.9469 61.5752 83.6457 61.5752 83.3445C61.5752 83.2584 61.5752 83.1509 61.5752 83.0648C61.511 82.4839 61.4038 81.9676 61.2109 81.4943C60.8895 80.6553 60.3752 79.9669 59.6895 79.3645C56.7109 76.6538 50.6036 75.2984 43.7677 67.3814C42.9534 66.4348 42.1391 65.4237 41.3034 64.2835C32.0032 51.4829 36.6747 36.2297 49.4893 28.3988C51.6536 38.5532 59.4323 65.3161 80.8614 66.0906C84.6543 66.2412 92.6045 66.0261 95.1545 69.7479C95.926 70.9096 96.0546 72.0068 95.7117 73.0395C95.1974 74.5669 93.7188 75.9008 92.0259 76.9765C91.4473 81.021 90.5901 98.7697 117.419 109.656V109.677Z" fill="#6E7289"/>
</g>
<path d="M64.5538 96.5753C89.2614 99.8453 114.398 99.7808 139.105 96.4247C139.984 96.2956 140.198 97.694 139.298 97.8015C114.483 101.287 89.1971 101.201 64.4038 97.6509C63.7395 97.5649 63.8466 96.4677 64.5538 96.5753Z" fill="#202538"/>
<path d="M62.668 79.0848C73.4897 80.7629 86.8828 81.3653 95.0044 72.7598C96.9545 70.6945 98.3688 68.242 99.4188 65.5743C101.69 59.8732 107.305 55.6565 113.476 55.4414C116.541 55.3123 119.605 56.2589 122.155 57.8939C122.476 58.1091 122.584 58.5393 122.369 58.862C122.155 59.1848 121.726 59.2923 121.405 59.0772C119.069 57.5712 116.305 56.7322 113.519 56.8613C107.905 57.0549 102.805 60.9274 100.747 66.1121C99.6759 68.8659 98.1545 71.5766 96.033 73.7495C91.8758 78.2028 85.8757 80.4617 80.0255 80.978C74.154 81.6234 68.2396 81.2577 62.4752 80.182C61.8109 80.0529 61.9609 78.9772 62.668 79.1063V79.0848Z" fill="#202538"/>
<path d="M109.469 62.6699C116.562 73.0394 128.241 81.064 141.077 81.107C141.977 81.1285 141.913 82.57 141.013 82.5054C127.684 82.5484 115.683 74.1797 108.548 63.2508C108.162 62.6484 109.105 62.046 109.469 62.6699Z" fill="#202538"/>
<path d="M148.62 33.7342C160.363 41.4145 161.97 53.5267 153.613 64.5846C153.077 65.3806 151.899 64.5201 152.499 63.7456C160.277 53.5482 158.82 41.9093 148.063 34.6808C147.441 34.3366 147.998 33.3469 148.62 33.7342Z" fill="#202538"/>
<path d="M85.4042 20.826C79.6184 29.0012 70.1039 36.4233 59.5608 34.6162C59.1751 34.5517 58.918 34.2075 58.9823 33.8202C59.0465 33.4545 59.3894 33.1748 59.7537 33.2393C69.7825 34.7883 78.7184 27.7749 84.5042 20.2236C84.89 19.6428 85.8114 20.2451 85.4042 20.8475V20.826Z" fill="#202538"/>
<path d="M292.152 286.906L38.7534 400.498L284.994 515.251L292.152 286.906Z" fill="#662C13"/>
<g style="mix-blend-mode:multiply" opacity="0.5">
<mask id="mask2_729_1831" style="mask-type:luminance" maskUnits="userSpaceOnUse" x="38" y="286" width="255" height="230">
<path d="M292.152 286.906L38.7534 400.498L284.994 515.251L292.152 286.906Z" fill="white"/>
</mask>
<g mask="url(#mask2_729_1831)">
<path d="M182.157 320.962C181.021 361.859 142.706 385.33 104.712 381.48C92.4976 380.404 80.5402 376.639 69.8685 370.551C69.5256 370.357 69.4185 369.927 69.6114 369.604C69.8042 369.26 70.2328 369.152 70.5757 369.346C81.0545 375.305 92.819 379.006 104.841 380.06C134.456 383.136 167.906 368.55 177.764 338.711C179.757 333.031 180.999 326.986 181.085 320.983C181.021 320.295 182.199 320.209 182.178 320.983L182.157 320.962Z" fill="#662C13"/>
<path d="M240.508 291.209C226.343 306.311 223.407 328.276 237.615 344.455C250.686 359.428 269.33 368.012 287.587 374.982C299.973 379.543 312.681 383.179 325.474 386.385C325.838 386.471 326.074 386.858 325.988 387.224C325.902 387.589 325.517 387.826 325.152 387.74C312.316 384.513 299.545 380.899 287.094 376.316C264.122 367.388 233.822 353.878 227.672 327.394C224.822 313.991 230.693 300.201 239.715 290.434C240.229 289.918 241.001 290.692 240.486 291.209H240.508Z" fill="#662C13"/>
<path d="M258.937 291.079C249.915 311.646 260.587 330.643 279.487 340.259C285.337 343.379 291.573 345.745 297.937 347.682C298.302 347.789 298.516 348.176 298.409 348.542C298.302 348.908 297.916 349.123 297.53 349.015C291.102 347.079 284.78 344.691 278.801 341.507C266.93 335.333 256.129 324.512 254.737 310.549C254.008 303.751 255.079 296.824 257.951 290.585C258.251 289.939 259.28 290.434 258.915 291.079H258.937Z" fill="#662C13"/>
<path d="M327.167 415.428C314.267 402.799 296.973 395.678 279.466 392.279C235.151 383.824 187.942 399.271 155.263 430.057C148.706 436.21 142.663 442.901 137.091 449.979C136.856 450.28 136.406 450.344 136.106 450.108C135.806 449.871 135.741 449.419 135.998 449.118C141.591 441.976 147.699 435.22 154.299 429.025C187.278 397.894 234.958 382.319 279.68 391.053C297.402 394.538 314.867 401.831 327.917 414.675C328.131 414.89 328.131 415.234 327.917 415.449C327.702 415.665 327.36 415.665 327.145 415.449L327.167 415.428Z" fill="#662C13"/>
<path d="M169.792 454.325C195.121 421 235.3 419.709 269.758 439.243C280.559 445.203 290.544 452.517 299.93 460.456C300.23 460.714 300.252 461.144 300.016 461.445C299.759 461.747 299.33 461.768 299.03 461.532C289.687 453.636 279.766 446.408 269.073 440.491C235.172 421.366 195.742 422.291 170.67 454.927C170.499 455.185 170.135 455.271 169.878 455.077C169.642 454.905 169.578 454.561 169.77 454.325H169.792Z" fill="#662C13"/>
<path d="M205.407 312.873C213.636 340.819 206.821 373.132 181.706 389.934C163.985 402.412 142.063 406.607 120.891 408.458C114.269 408.802 106.169 409.211 99.5262 409.038C80.54 408.845 61.6182 406.887 42.8464 404.176C42.4606 404.112 42.2035 403.768 42.2464 403.38C42.2892 402.993 42.6535 402.735 43.0392 402.8C61.7682 405.51 80.6257 407.446 99.5262 407.619C108.548 407.748 118.834 407.36 127.812 406.285C155.113 403.38 185.757 393.871 199.728 368.184C208.814 351.576 209.414 331.181 204.357 313.195C204.25 312.894 204.421 312.572 204.721 312.486C205 312.399 205.3 312.572 205.386 312.851L205.407 312.873Z" fill="#662C13"/>
</g>
</g>
<path d="M91.3831 389.934C88.1473 398.131 98.6475 407.124 104.262 400.885C106.019 398.927 106.983 396.926 111.098 396.604C112.855 396.475 114.441 396.582 116.305 396.152C133.491 392.279 141.077 385.61 147.377 389.934C148.47 390.687 149.649 390.859 150.956 390.601C158.799 389.009 158.327 376.295 149.349 374.466C146.413 373.864 144.077 374.337 137.798 375.413C130.812 376.618 93.9546 383.437 91.3831 389.956V389.934Z" fill="#963C4E"/>
<path d="M136.941 385.739C138.034 385.417 138.827 384.061 138.548 382.942C138.248 381.781 136.941 380.963 135.827 381.264C134.52 381.609 133.727 382.964 134.134 384.19C134.498 385.309 135.848 386.062 136.941 385.761V385.739Z" fill="#202538"/>
<path d="M99.9976 390.343C97.1047 391.096 98.2404 395.571 101.133 394.818C103.898 394.108 102.998 389.569 99.9976 390.343Z" fill="#202538"/>
<path d="M117.226 387.955C117.548 389.138 118.834 389.784 120.034 389.44C121.212 389.117 121.984 387.848 121.641 386.686C120.741 383.674 116.412 384.986 117.226 387.934V387.955Z" fill="#202538"/>
<g style="mix-blend-mode:multiply" opacity="0.25">
<path d="M94.6618 386.987C92.1546 388.299 91.8117 388.837 91.3617 390.02C88.5116 397.421 97.2975 406.586 103.726 401.444C104.069 401.164 104.133 400.863 103.941 400.454C102.826 398.368 103.298 393.463 105.376 391.247C113.112 383.028 129.634 387.934 139.02 378.382C139.748 377.629 141.848 374.982 140.734 374.982C136.684 374.982 105.226 381.458 94.6832 386.965L94.6618 386.987Z" fill="#B05F95"/>
</g>
<path d="M229.579 373.95C231.743 371.928 232.943 369.367 229.879 368.959C213.25 366.743 172.556 370.336 149.691 373.584C144.227 374.359 144.784 373.971 144.87 375.886C145.213 382.362 147.334 394.581 151.299 399.616C151.77 400.218 152.306 400.476 153.099 400.412C179.778 397.744 218.222 384.513 229.579 373.95Z" fill="#B0B3C2"/>
<g style="mix-blend-mode:multiply" opacity="0.25">
<path d="M180.078 395.442C228.357 382.168 234.122 369.088 230.95 370.938C219.057 377.865 171.249 391.957 149.413 394.087C148.406 394.194 148.513 394.302 149.07 395.614C149.627 396.969 150.291 398.26 151.192 399.443C151.727 400.153 152.349 400.455 153.27 400.39C157.963 400.046 158.006 400.067 165.913 398.82C166.299 398.755 171.249 397.572 173.028 397.249C175.749 396.754 178.342 395.765 180.078 395.463V395.442Z" fill="#6E7289"/>
</g>
<g style="mix-blend-mode:multiply" opacity="0.25">
<path d="M209.843 385.202C210.7 384.836 209.328 383.459 208.578 382.9C201.335 377.435 194.521 379.049 185.607 380.791C182.028 381.501 172.428 384.061 172.278 384.104C163.749 387.009 154.277 383.739 155.006 374.918C155.242 372.1 155.606 372.681 146.991 373.928C144.72 374.251 144.763 374.359 144.827 375.198C145.406 382.727 146.884 393.527 151.363 399.637C151.77 400.196 152.327 400.455 153.056 400.39C155.97 400.11 157.834 400.239 164.735 398.97C179.906 396.195 197.671 390.386 209.843 385.202Z" fill="#6E7289"/>
</g>
<path d="M217.664 371.863C203.65 373.347 175.471 376.166 161.435 377.478C160.556 377.586 160.384 376.166 161.306 376.08C175.321 374.66 203.543 371.992 217.557 370.766C218.243 370.701 218.371 371.798 217.664 371.841V371.863Z" fill="white"/>
<path d="M241.129 328.341C238.6 334.15 234.722 338.861 229.343 342.282C227.222 343.637 225.014 344.756 222.593 345.509C221.372 345.896 220.193 346.412 218.929 346.649C212.457 347.811 206.157 347.424 200.05 344.777C193.6 341.981 188.735 337.398 185.049 331.525C185.006 331.439 184.942 331.353 184.878 331.267C183.464 328.986 182.371 326.512 181.835 324.146C180.549 319.069 181.835 312.529 185.199 308.506C187.535 305.73 190.449 303.923 193.835 302.675C196 301.879 198.164 301.729 200.393 301.686C202.664 301.643 204.785 302.31 206.821 303.321C207.528 303.686 208.343 303.88 209.071 304.246C209.693 304.547 210.078 304.353 210.464 303.859C211.021 303.17 211.643 302.546 212.2 301.858C214.129 299.448 216.636 297.985 219.464 296.888C221.8 295.985 224.2 295.791 226.6 295.856C227.2 295.856 227.779 295.899 228.336 295.963C232.215 296.393 235.665 297.921 238.472 300.825C238.686 301.04 238.9 301.255 239.072 301.492C241.729 304.461 243.379 307.989 243.765 312.034C244.301 317.692 243.358 323.156 241.108 328.363L241.129 328.341Z" fill="#FF4A29"/>
<g style="mix-blend-mode:multiply" opacity="0.25">
<path d="M241.129 328.341C238.601 334.15 234.722 338.861 229.343 342.282C227.222 343.637 225.015 344.756 222.593 345.509C221.372 345.896 220.193 346.412 218.929 346.649C212.457 347.811 206.157 347.424 200.05 344.777C193.6 341.981 188.735 337.398 185.049 331.525C185.007 331.439 184.942 331.353 184.878 331.267C190.021 329.073 195.742 328.191 201.271 327.76C208.557 327.201 220.172 332.063 226.129 326.276C228.872 323.608 230.179 319.779 231.25 316.1C232.965 310.27 235.665 305.838 239.093 301.514C241.751 304.483 243.401 308.011 243.786 312.055C244.322 317.713 243.379 323.178 241.129 328.384V328.341Z" fill="#B05F95"/>
</g>
<path d="M190.578 310.592C187.878 314.4 186.892 319.521 188.671 323.931C188.971 324.77 187.664 325.243 187.364 324.404C185.242 319.607 186.464 313.862 189.742 309.882C190.192 309.323 191.028 310.033 190.578 310.571V310.592Z" fill="#202538"/>
<path d="M223.257 315.497C221.693 315.928 220.172 315.648 218.65 315.282C217.814 315.067 217.686 315.132 217.579 315.971C217.407 317.283 216.829 318.423 216.357 319.628C215.65 321.435 212.007 322.317 210.528 321.026C209.5 320.123 208.471 319.284 207.721 318.101C207.336 317.498 207.186 317.52 206.586 317.972C206.2 318.251 205.857 318.574 205.471 318.854C204.357 319.693 203.114 320.187 201.743 320.36C198.871 320.704 196.535 318.38 196.964 315.497C197.221 313.733 197.864 312.077 199.107 310.743C199.385 310.442 199.385 310.162 198.957 309.947C197.607 309.258 196.471 308.312 195.742 306.935C195.421 306.333 195.185 305.687 195.1 305.02C194.864 303.063 195.892 301.557 197.8 301.062C199.214 300.696 200.607 300.911 202.021 301.277C202.878 301.492 202.943 301.449 203.028 300.545C203.093 299.663 203.221 298.781 203.5 297.942C203.971 296.522 204.828 295.404 206.071 294.629C208.128 293.36 210.914 293.876 212.736 295.748C213.464 296.479 213.957 297.383 214.471 298.244C214.686 298.609 214.964 298.652 215.307 298.394C215.671 298.093 216.036 297.77 216.421 297.512C217.193 296.974 218.007 296.501 218.971 296.264C221.264 295.726 223.022 296.802 223.536 299.126C223.814 300.352 223.686 301.557 223.172 302.718C222.936 303.278 222.679 303.859 222.314 304.332C221.714 305.106 221.564 305.365 222.657 305.795C224.114 306.354 225.122 307.451 226.043 308.635C226.75 309.517 227.029 310.571 226.9 311.69C226.686 313.712 225.464 315.003 223.257 315.519V315.497Z" fill="#86AF9A"/>
<path d="M210.7 316.874C210.571 316.272 210.4 315.691 210.314 315.089C210.228 314.529 210.378 314.013 210.807 313.626C211.321 313.153 211.9 313.066 212.457 313.454C212.736 313.647 212.993 313.884 213.164 314.164C213.936 315.39 214.236 316.767 214.3 318.208C214.3 318.617 214.15 319.004 213.893 319.327C213.25 320.166 212.136 320.187 211.493 319.327C211.364 319.176 211.236 319.004 211.171 318.811C210.957 318.165 210.786 317.52 210.614 316.874C210.636 316.874 210.657 316.874 210.7 316.874Z" fill="#BDDECD"/>
<path d="M224.714 310.313C224.993 311.345 224.179 312.464 223.257 312.486C223 312.486 222.7 312.486 222.464 312.378C221.372 311.883 220.236 311.41 219.207 310.786C218.329 310.248 218.243 309.237 218.886 308.506C219.164 308.183 219.486 307.968 219.936 307.989C221.607 308.097 223.086 308.699 224.35 309.796C224.543 309.969 224.672 310.227 224.736 310.313H224.714Z" fill="#BDDECD"/>
<path d="M204.293 313.023C204.293 313.174 204.293 313.454 204.185 313.69C203.5 315.024 202.685 316.25 201.528 317.24C200.864 317.799 200.221 317.778 199.492 317.24C198.871 316.788 198.678 316.186 199.021 315.454C199.685 314.013 200.628 312.787 202.085 312.077C202.921 311.668 203.993 312.077 204.293 313.023Z" fill="#BDDECD"/>
<path d="M219.079 298.717C220.407 298.394 221.179 299.083 220.879 300.223C220.514 301.664 219.486 302.675 218.393 303.557C217.793 304.031 216.957 303.859 216.357 303.299C215.864 302.848 215.736 302.095 216.143 301.449C216.764 300.481 217.579 299.663 218.5 298.954C218.714 298.803 218.993 298.738 219.057 298.695L219.079 298.717Z" fill="#BDDECD"/>
<path d="M198.914 303.278C199.128 303.278 199.535 303.213 199.921 303.299C200.971 303.536 201.957 303.945 202.857 304.59C203.328 304.934 203.628 305.343 203.5 305.945C203.35 306.591 203.007 307.064 202.364 307.236C202.064 307.322 201.678 307.365 201.378 307.279C200.371 306.935 199.364 306.548 198.485 305.881C198.271 305.73 198.1 305.494 197.95 305.279C197.328 304.418 197.692 303.536 198.914 303.256V303.278Z" fill="#BDDECD"/>
<path d="M210.721 300.094C210.721 300.094 210.828 300.503 210.828 300.911C210.828 301.6 210.25 302.374 209.586 302.589C209.028 302.783 208.193 302.482 207.85 301.858C207.293 300.782 206.864 299.642 207.014 298.394C207.078 297.749 207.421 297.254 208.064 297.06C208.707 296.867 209.243 297.06 209.693 297.534C210.293 298.136 210.464 298.932 210.7 300.115L210.721 300.094Z" fill="#BDDECD"/>
<path d="M211.321 311.496C210.378 311.862 209.264 311.819 208.214 311.689C205.107 311.324 203.971 308.699 205.578 306.01C206.114 305.106 206.907 304.461 207.935 304.181C209.114 303.88 210.293 303.557 211.493 303.385C213.336 303.127 215.093 304.117 215.821 305.709C216.593 307.387 216.207 308.893 214.728 310.011C213.936 310.592 212.564 311.195 211.321 311.496Z" fill="#202538"/>
</g>
<path d="M263.987 383.707C255.136 383.6 247.658 380.372 241.808 373.639C226.057 355.524 233.407 332.892 240.972 339.368C243.286 341.347 245.215 343.713 246.779 346.338C252.779 356.471 253.658 365.27 254.729 371.681C254.944 372.929 255.094 373.015 256.315 372.477C261.779 370.132 267.351 367.981 273.115 366.518C278.258 365.205 285.544 363.248 290.773 364.84C294.437 365.958 295.187 370.218 288.523 374.973C282.93 378.953 276.758 381.663 270.008 382.933C268.037 383.298 266.044 383.772 263.987 383.707Z" fill="#8DC63F"/>
<path d="M274.894 286.272C277.851 288.058 279.93 290.639 281.601 293.587C285.351 300.256 286.059 306.839 286.894 311.895C287.13 313.358 287.173 313.358 288.287 312.583C297.159 306.43 306.995 301.611 317.666 299.266C321.995 298.32 325.917 302.063 320.838 307.893C312.716 317.209 282.651 335.904 271.144 313.573C264.329 300.385 266.13 280.98 274.915 286.272H274.894Z" fill="#8DC63F"/>
<path d="M261.994 349.608C253.915 342.143 251.986 324.201 254.901 319.704C258.072 314.821 263.215 321.06 264.972 323.942C268.465 329.665 270.844 335.732 271.787 342.401C272.258 345.736 274.273 339.54 297.266 335.086C299.323 334.678 304.638 334.333 306.588 334.957C309.673 335.968 310.788 338.572 309.288 341.433C304.252 351.049 274.487 361.139 261.972 349.587" fill="#8DC63F"/>
<path d="M280.358 271.17C280.144 268.502 280.616 263.769 283.101 262.112C287.559 259.122 292.08 268.136 293.302 271.17C298.595 284.25 297.202 284.099 298.38 286.745C298.53 287.09 298.895 287.068 299.13 286.853C299.537 286.487 315.716 269.362 326.409 269.298C337.638 269.212 316.145 296.19 298.98 297.846C287.301 298.965 281.344 283.131 280.337 271.191L280.358 271.17Z" fill="#8DC63F"/>
<path d="M296.216 250.28C295.402 233.714 304.595 231.24 308.538 250.925C310.338 259.875 308.302 251.958 319.231 243.331C321.331 241.674 326.366 239.415 326.495 243.89C326.666 249.613 323.388 255.83 319.916 260.176C311.709 270.395 302.923 273.514 298.23 261.445C296.773 257.724 295.937 253.894 296.216 250.28Z" fill="#8DC63F"/>
<path d="M300.266 242.148C300.116 247.999 300.716 254.238 303.523 259.423C303.973 260.198 302.752 260.886 302.323 260.112C299.194 254.647 298.702 248.193 299.194 242.04C299.259 241.352 300.33 241.438 300.266 242.148Z" fill="#202538"/>
<path d="M322.038 247.053C320.023 252.732 316.638 257.896 312.073 261.833C311.773 262.091 311.345 262.048 311.088 261.747C310.852 261.467 310.873 261.037 311.152 260.778C315.416 256.928 318.781 252.001 321.009 246.687C321.224 246.02 322.274 246.386 322.038 247.053Z" fill="#202538"/>
<path d="M322.573 277.279C316.916 282.593 310.852 288.423 303.095 290.295C302.216 290.467 301.959 289.09 302.837 288.918C310.23 286.917 316.166 281.367 321.866 276.44C322.381 275.945 323.131 276.806 322.573 277.258V277.279Z" fill="#202538"/>
<path d="M313.595 306.645C307.852 311.938 300.845 316.864 292.701 316.886C292.316 316.886 292.016 316.563 292.016 316.176C292.016 315.789 292.337 315.488 292.701 315.488C300.373 315.294 307.166 310.647 312.845 305.849C313.359 305.398 314.088 306.172 313.573 306.645H313.595Z" fill="#202538"/>
<path d="M303.416 339.776C299.409 342.293 295.359 343.799 291.03 345.499C286.68 346.962 282.351 348.597 277.616 348.21C277.23 348.167 276.951 347.822 276.994 347.435C277.037 347.048 277.38 346.79 277.744 346.811C286.401 346.704 295.166 342.595 302.837 338.851C303.416 338.507 303.973 339.389 303.395 339.755L303.416 339.776Z" fill="#202538"/>
<path d="M286.594 370.433C278.344 374.284 269.301 378.027 259.937 377.016C259.551 376.973 259.272 376.629 259.315 376.242C259.358 375.855 259.701 375.596 260.065 375.618C269.237 376.435 277.937 372.864 286.316 369.357C287.044 369.099 287.344 370.218 286.594 370.412V370.433Z" fill="#202538"/>
<path d="M238.7 345.757C240.179 354.384 242.193 363.549 247.379 370.691C247.636 370.993 247.572 371.444 247.272 371.702C246.972 371.939 246.543 371.875 246.308 371.573C243.393 367.916 241.7 363.57 240.35 359.225C240.008 358.321 235.893 342.25 238.722 345.736L238.7 345.757Z" fill="#202538"/>
<path d="M258.651 321.64C259.594 329.321 261.051 337.797 266.108 343.842C266.387 344.122 266.365 344.595 266.065 344.854C265.787 345.112 265.358 345.09 265.101 344.811C262.208 341.67 260.665 337.711 259.529 333.796C259.144 332.913 256.058 318.155 258.651 321.64Z" fill="#202538"/>
<path d="M272.944 291.005C272.772 298.857 275.087 307.162 280.723 312.82C281.408 313.444 280.401 314.498 279.758 313.831C273.694 308.001 271.337 299.18 271.872 290.94C271.915 290.231 273.008 290.317 272.944 291.027V291.005Z" fill="#202538"/>
<path d="M286.273 267.168C287.73 274.289 289.637 282.27 294.287 288.036C294.909 288.682 293.923 289.65 293.28 289.004C289.273 284.529 287.687 278.613 286.209 272.934C285.759 270.997 285.33 269.255 285.18 267.06C285.159 266.759 285.373 266.501 285.673 266.48C286.059 266.458 286.273 266.781 286.273 267.125V267.168Z" fill="#202538"/>
<path d="M308.88 256.992C301.723 283.82 290.837 309.378 278.366 334.14C265.744 358.837 249.736 381.556 233.236 403.736C233 404.037 232.572 404.102 232.272 403.865C231.972 403.629 231.907 403.198 232.143 402.876C257.322 369.917 278.966 334.419 294.544 295.889C299.752 283.11 304.059 269.965 307.852 256.669C307.938 256.39 308.238 256.218 308.516 256.304C308.795 256.39 308.966 256.691 308.88 256.971V256.992Z" fill="#202538"/>
</g>
<defs>
<filter id="filter0_d_729_1831" x="0.481059" y="0.715068" width="369.143" height="458.026" filterUnits="userSpaceOnUse" color-interpolation-filters="sRGB">
<feFlood flood-opacity="0" result="BackgroundImageFix"/>
<feColorMatrix in="SourceAlpha" type="matrix" values="0 0 0 0 0 0 0 0 0 0 0 0 0 0 0 0 0 0 127 0" result="hardAlpha"/>
<feOffset dx="14.7271" dy="14.7271"/>
<feGaussianBlur stdDeviation="10.5071"/>
<feColorMatrix type="matrix" values="0 0 0 0 0.12549 0 0 0 0 0.145098 0 0 0 0 0.219608 0 0 0 0.25 0"/>
<feBlend mode="normal" in2="BackgroundImageFix" result="effect1_dropShadow_729_1831"/>
<feBlend mode="normal" in="SourceGraphic" in2="effect1_dropShadow_729_1831" result="shape"/>
</filter>
</defs>
</svg>
