<svg width="360" height="422" viewBox="0 0 360 422" fill="none" xmlns="http://www.w3.org/2000/svg">
<g opacity="0.5">
<path d="M332.014 138.501C283.189 60.6596 197.66 -22.6973 139.598 5.66935C115.699 17.3455 108.93 57.9375 102.406 80.7884C89.9427 124.508 47.7647 109.704 20.933 133.343C-64.5471 208.605 133.514 446.069 224.174 372.621C247.976 353.352 249.466 312.999 278.546 299.126C311.121 283.581 349.144 278.639 358.43 234.775C364.369 206.671 353.005 172.073 331.99 138.548L332.014 138.501Z" fill="#CFD1DD"/>
</g>
<path d="M54.7293 66.7723C50.9904 74.9623 51.1126 84.4179 53.1653 89.5993C53.4586 90.3395 54.4605 90.626 55.2669 90.435C61.8648 88.9307 66.4834 83.9642 69.929 78.5201C74.8408 70.8076 76.5758 60.97 78.3108 52.0159C78.6529 50.2012 77.9687 49.4849 76.1848 49.9147C66.5811 52.2308 58.8102 57.8659 54.7293 66.7723Z" fill="#8DC63F"/>
<path d="M88.0123 125.774C91.1647 122.073 92.6065 117.656 93.6817 113.071C95.099 107.006 82.0009 110.54 79.5083 111.185C71.3953 113.31 62.8179 117.584 59.3235 125.583C57.9306 128.782 56.8553 131.791 56.5132 135.158C56.4155 136.089 57.0508 136.925 57.9306 137.211C60.0077 137.856 62.1337 138.214 64.3086 138.023C73.6923 137.211 82.3674 133.295 87.9879 125.798L88.0123 125.774Z" fill="#8DC63F"/>
<path d="M26.4069 127.851C30.1458 130.287 33.9579 132.507 38.3077 133.701C40.0671 134.179 41.851 134.632 43.7082 134.513C48.62 134.25 44.8812 121.715 42.7552 117.369C41.3623 114.528 37.8678 110.015 33.7135 106.863C27.7021 102.326 25.6249 100.678 17.9273 98.6011C12.5757 97.1446 9.8876 99.413 11.2561 105.144C12.429 110.062 14.2618 114.671 17.4875 118.706C20.1511 122.073 23.1079 125.105 26.4069 127.827V127.851Z" fill="#8DC63F"/>
<path d="M26.6758 155.764C33.6647 159.012 40.7025 158.63 47.6915 155.812C48.2779 155.573 48.7911 155.191 49.2799 154.809C51.9923 152.756 44.6124 139.384 31.5387 135.874C27.7999 134.871 24.4031 132.842 15.1171 133.582C12.5513 133.773 7.02854 135.158 8.07932 137.665C11.8182 146.524 17.9762 151.729 26.6513 155.74L26.6758 155.764Z" fill="#8DC63F"/>
<path d="M91.3845 95.9985C94.0481 92.6795 95.9787 88.8591 96.5163 84.5611C96.6629 83.4149 95.8809 82.436 94.7568 82.5076C88.1833 82.8419 81.2677 83.1762 75.3051 86.1609C69.5624 89.0262 64.7239 93.5629 61.4249 98.9354C60.423 100.559 54.6315 111.567 58.4192 112.259C64.7484 113.429 71.6395 110.301 77.0401 107.364C82.1963 104.547 87.5968 100.774 91.409 96.0224L91.3845 95.9985Z" fill="#8DC63F"/>
<path d="M50.4528 169.709C46.8606 168.014 42.7552 167.13 38.9919 166.772C31.0255 166.008 23.0346 167.87 16.3389 172.144C14.5795 173.267 13.1866 175.726 14.775 177.684C15.7769 178.926 19.8823 181.815 21.3485 182.316C25.9915 183.916 28.6551 185.229 36.5971 184.871C43.2928 184.561 49.7197 183.033 55.9511 180.669C56.7819 180.358 57.5395 179.833 58.297 179.332C58.9324 178.902 59.1523 177.923 58.8102 177.278C57.0019 173.816 53.9717 171.38 50.4528 169.733V169.709Z" fill="#8DC63F"/>
<path d="M93.2417 144.613C94.7079 138.907 94.5857 139.456 94.7079 137.068C94.7323 136.519 94.1458 135.85 93.5838 135.755C87.4501 134.704 81.0233 138.166 76.3558 141.676C69.3669 146.929 63.2821 156.648 62.5979 165.387C62.3535 168.491 66.6544 167.846 69.6846 166.82C80.7544 163.047 90.4314 155.669 93.2661 144.589L93.2417 144.613Z" fill="#8DC63F"/>
<path d="M105.509 180.597C103.261 183.056 101.648 185.778 100.133 188.739C97.1516 194.542 97.3471 204.642 102.625 210.993C103.212 211.686 104.287 211.972 105.118 211.614C120.88 204.737 120.904 190.936 115.65 174.866C115.406 174.102 114.673 173.219 113.744 173.529C112.18 174.031 107.049 178.926 105.509 180.621V180.597Z" fill="#8DC63F"/>
<path d="M101.404 175.177C102.87 170.712 103.187 166.127 102.088 161.519C101.379 158.51 100.377 157.913 97.3227 158.63C85.4708 161.352 78.2619 171.81 79.5815 181.648C80.0702 185.277 80.4857 188.166 82.5139 190.697C83.1493 191.485 84.029 191.796 84.9576 191.533C87.6212 190.793 90.1871 189.671 92.2642 187.88C96.614 184.131 99.302 181.528 101.379 175.177H101.404Z" fill="#8DC63F"/>
<path d="M76.2582 198.911C73.0569 197.383 68.3651 196.691 66.7767 196.547C59.9343 195.95 53.1898 197.717 47.0806 200.678C44.6124 201.872 42.4376 203.567 40.336 205.263C34.6178 209.895 53.0187 220.067 70.6621 210.85C73.3013 209.465 77.2845 206.648 78.9218 203.949C80.2902 201.705 78.7018 200.033 76.2337 198.887L76.2582 198.911Z" fill="#8DC63F"/>
<path d="M98.0802 226.967C100.035 223.362 100.646 222.837 98.4957 220.64C96.6385 218.754 91.6778 216.485 85.2753 216.843C77.3822 217.273 72.0061 220.282 65.9702 225.296C64.6506 226.394 63.6243 227.708 62.6957 229.116C62.1092 230.024 62.2558 231.218 63.0866 231.91C64.3085 232.961 64.3085 232.961 70.491 235.301C75.7449 237.306 84.2734 235.587 88.9164 233.725C92.5575 232.292 95.27 229.761 98.0802 226.944V226.967Z" fill="#8DC63F"/>
<path d="M41.1424 102.135C41.8021 102.636 42.4864 103.09 43.1462 103.52C43.6838 103.854 44.1725 104.165 44.7834 104.403C45.932 104.857 47.2027 104.284 47.6181 103.09C47.8381 102.493 48.0824 101.872 48.0824 101.228C48.1802 98.7921 48.3512 96.3805 47.667 93.9689C46.4207 89.5754 44.8079 80.5974 33.6647 69.5181C31.5387 67.4169 28.1175 66.1275 26.8957 69.0883C22.0572 80.86 31.4409 94.9001 41.1668 102.111L41.1424 102.135Z" fill="#8DC63F"/>
<path d="M22.9369 141.366C34.5688 144.685 45.9808 149.532 55.1935 157.412C55.5356 157.698 55.5601 158.2 55.2668 158.534C54.9736 158.868 54.4604 158.892 54.1183 158.606C45.0522 151.084 33.8601 146.142 22.6192 142.56C21.8372 142.369 22.1549 141.127 22.9613 141.366H22.9369Z" fill="#202538"/>
<path d="M29.6813 176.872C41.3377 174.89 54.5825 173.004 65.3592 178.949C65.7257 179.188 65.8479 179.69 65.6035 180.048C65.3592 180.406 64.8704 180.525 64.5039 180.287C54.0693 174.795 41.24 176.538 29.9257 178.066C29.1437 178.209 28.8749 176.991 29.6813 176.848V176.872Z" fill="#202538"/>
<path d="M51.7479 205.692C61.5716 201.299 72.617 199.842 83.3203 200.917C83.7602 200.965 84.1023 201.347 84.0535 201.777C84.0046 202.206 83.6136 202.517 83.1982 202.493C72.7636 201.633 61.987 202.875 52.2855 206.815C51.5524 207.149 51.0148 206.027 51.7479 205.692Z" fill="#202538"/>
<path d="M76.6247 225.941C87.2547 222.311 98.7156 218.562 110.103 220.568C110.543 220.664 110.812 221.093 110.714 221.523C110.616 221.953 110.176 222.216 109.761 222.12C98.74 220.401 87.5235 223.935 77.0645 227.111C76.307 227.373 75.8671 226.203 76.6247 225.941Z" fill="#202538"/>
<path d="M108.735 188.142C105.753 197.526 102.699 207.77 105.02 217.56C105.313 218.539 103.749 218.992 103.456 217.989C101.966 212.903 102.43 207.603 103.31 202.493C103.383 201.394 107.659 183.128 108.759 188.118L108.735 188.142Z" fill="#202538"/>
<path d="M93.4861 171.5C86.2772 178.997 83.4914 189.671 82.1474 199.651C82.0741 200.702 80.3879 200.535 80.5345 199.484C81.7564 189.074 84.811 178.114 92.6797 170.545C93.2906 169.995 94.1703 170.974 93.5105 171.5H93.4861Z" fill="#202538"/>
<path d="M83.7357 147.765C74.7673 154.141 64.3328 161.805 61.9869 172.98C61.8647 173.983 60.2274 173.792 60.374 172.765C61.2049 166.772 65.0659 161.781 69.1957 157.579C69.7822 156.552 86.0572 142.823 83.7601 147.765H83.7357Z" fill="#202538"/>
<path d="M87.9389 117.059C74.5963 124.079 60.7162 132.197 52.0656 144.661C51.528 145.545 50.1106 144.685 50.6971 143.825C59.5188 130.884 73.57 122.861 87.4013 115.936C88.1344 115.578 88.6964 116.724 87.9389 117.059Z" fill="#202538"/>
<path d="M23.5478 109.489C34.3733 117.87 44.4168 127.469 51.308 139.289C51.528 139.671 51.3813 140.148 50.9904 140.363C50.5994 140.578 50.1106 140.435 49.8907 140.053C43.0484 128.568 33.1759 118.897 22.7658 110.445C22.106 109.967 22.888 108.94 23.5478 109.466V109.489Z" fill="#202538"/>
<path d="M35.1798 80.9317C40.898 90.2679 46.5918 99.5801 50.7216 109.728C50.8926 110.134 50.6727 110.588 50.2573 110.755C49.8419 110.898 49.3776 110.707 49.2065 110.301C44.9789 100.392 39.4318 90.9364 34.1045 81.5525C33.6891 80.8839 34.7643 80.2392 35.2042 80.9078L35.1798 80.9317Z" fill="#202538"/>
<path d="M82.3917 94.0882C70.3687 99.0309 58.1259 105.645 50.4038 116.223C49.8173 117.082 48.4489 116.175 49.0598 115.315C56.9529 104.284 69.4646 97.7415 81.9518 92.9182C82.7094 92.6317 83.1737 93.8256 82.3917 94.0882Z" fill="#202538"/>
<path d="M69.0248 61.0894C36.817 108.2 46.3718 175.32 93.8037 209.179C103.896 217.249 115.064 224.007 126.989 229.164C127.404 229.331 127.575 229.809 127.404 230.215C127.233 230.621 126.745 230.788 126.329 230.621C118.314 227.135 110.592 222.98 103.31 218.133C63.7709 192.631 43.7815 154.69 49.573 108.224C51.8701 91.1752 58.2726 74.7235 67.9496 60.3969C68.1451 60.1104 68.536 60.0388 68.8293 60.2298C69.1225 60.4208 69.1958 60.8028 69.0003 61.0894H69.0248Z" fill="#202538"/>
<path d="M203.134 287.354C199.249 275.582 197.514 263.452 197.147 251.108C196.927 243.777 198.051 236.566 200.08 229.522C202.548 220.974 206.531 213.429 214.986 208.94C216.379 208.2 217.479 206.91 218.749 205.931C221.804 203.591 223.588 200.63 224.296 196.834C225.763 188.954 228.866 181.576 232.116 174.246C234.902 167.966 238.788 162.665 245.312 159.847C254.891 155.716 259.681 148.004 262.711 138.787C265.766 129.451 269.529 120.378 274.49 111.829C277.153 107.245 280.159 102.947 284.02 99.2697C290.105 93.4913 294.601 86.5907 298.633 79.3797C300.637 75.7741 302.519 72.1209 304.278 68.396C307.968 60.6357 313.491 54.2126 319.429 48.0522C319.918 47.5508 320.431 47.0971 320.993 46.6673C322.801 45.2824 325.343 45.9271 326.051 48.1C326.467 49.3655 326.589 50.7742 326.638 52.1114C326.98 59.8716 326.369 67.5602 324.708 75.1772C323.73 79.6184 322.826 84.0836 321.946 88.5487C320.969 93.3958 321.628 98.0281 323.657 102.565C325.221 106.123 326.638 109.728 327.958 113.381C331.037 121.882 329.815 129.976 325.343 137.713C323.29 141.271 321.115 144.781 319.014 148.338C318.085 149.914 317.157 151.49 316.326 153.138C313.369 158.916 312.66 164.742 315.495 170.879C317.01 174.174 318.085 177.708 319.111 181.218C321.848 190.506 319.747 198.863 313.198 205.955C310.412 208.964 307.089 211.542 303.716 213.978C299.586 216.939 295.139 219.446 290.936 222.311C288.468 224.007 286.073 225.869 283.898 227.899C281.137 230.477 280.257 233.629 281.845 237.235C282.945 239.742 284.02 242.273 285.095 244.78C285.902 246.666 286.855 248.505 287.49 250.463C290.178 258.82 286.83 266.055 278.449 269.35C275.247 270.592 271.753 271.284 268.307 271.762C262.32 272.574 256.235 272.765 250.248 273.648C237.932 275.415 227.889 281.122 220.631 291.15C219.14 293.204 217.674 295.234 216.208 297.287C214.888 299.126 213.104 299.842 210.807 299.818C208.681 299.818 207.117 299.006 206.384 297.144C205.162 293.944 204.185 290.673 203.11 287.426L203.134 287.354Z" fill="#8DC63F"/>
<path d="M324.414 120.473C308.628 121.261 293.575 128.233 281.967 138.572C282.481 133.749 282.652 128.782 282.041 123.959C281.503 119.828 280.526 115.602 278.082 112.331C277.422 111.519 278.766 110.516 279.377 111.376C284.509 118.873 284.338 128.138 283.8 136.758L282.407 136.065C293.942 126.084 308.946 119.9 324.39 119.255C325.221 119.231 325.245 120.521 324.39 120.497L324.414 120.473Z" fill="#202538"/>
<path d="M320.578 84.6327C313.638 85.3968 306.673 89.5754 304.449 96.285L302.665 101.275L302.812 95.9746C302.861 92.0586 302.177 87.1398 298.804 84.7043C297.9 84.1551 298.829 82.7702 299.709 83.3672C303.863 86.2802 304.523 91.4856 304.523 96.0701L302.885 95.7597C304.718 90.3394 309.508 86.3041 314.957 84.5372C316.766 83.9402 318.598 83.5343 320.529 83.3911C320.871 83.3672 321.189 83.6298 321.213 83.9641C321.237 84.3223 320.969 84.6088 320.602 84.6327H320.578Z" fill="#202538"/>
<path d="M314.346 151.06C301.199 150.678 287.172 154.284 277.52 163.357C274.221 157.412 269.334 149.986 261.929 149.246C260.878 149.246 260.927 147.574 262.003 147.646C269.871 148.386 274.905 155.502 278.497 161.662L277.178 161.423C287.124 152.493 301.199 149.317 314.42 149.795C315.25 149.843 315.177 151.108 314.322 151.036L314.346 151.06Z" fill="#202538"/>
<path d="M313.344 179.833C296.458 175.583 278.815 182.412 264.177 190.458C262.589 179.26 253.523 168.945 241.5 168.443C241.06 168.419 240.718 168.013 240.742 167.584C240.767 167.154 241.182 166.819 241.622 166.843C253.963 167.393 263.566 177.541 265.619 189.073L264.373 188.477L270.042 185.492C283.458 179.236 299 174.675 313.784 178.663C314.591 178.925 314.175 180.143 313.344 179.833Z" fill="#202538"/>
<path d="M301.175 210.134C284.24 200.32 260.927 205.406 242.917 210.038L242.038 210.277C241.256 205.334 238.226 200.248 233.216 198.481C231.676 197.932 230.039 197.693 228.377 197.669C227.938 197.669 227.571 197.311 227.571 196.881C227.571 196.452 227.938 196.094 228.402 196.094C230.21 196.094 232.067 196.38 233.802 197.001C239.105 198.887 242.453 203.925 243.528 209.178L242.478 208.534C260.878 203.663 284.802 198.863 302.006 209.226C302.69 209.728 301.835 210.754 301.175 210.181V210.134Z" fill="#202538"/>
<path d="M276.982 232.292C263.762 229.976 248.733 229.283 236.881 236.375C230.479 228.161 221.511 221.165 211.027 218.849C209.976 218.658 210.27 217.034 211.369 217.297C222.048 219.637 231.114 226.514 237.761 234.799L236.637 234.584C248.953 227.684 263.835 228.591 277.276 231.074C278.082 231.241 277.813 232.483 276.982 232.292Z" fill="#202538"/>
<path d="M278.595 259.083C262.54 255.358 243.87 253.185 229.062 261.781L228.744 260.754C225.934 252.039 219.336 243.777 210.099 241.103C207.069 240.219 203.892 239.909 200.715 240.052C200.275 240.076 199.884 239.742 199.86 239.312C199.835 238.882 200.177 238.5 200.642 238.476C203.965 238.309 207.362 238.62 210.587 239.575C220.411 242.44 227.351 251.012 230.381 260.324L229.135 259.847C244.31 251.681 262.833 253.997 278.962 257.889C279.744 258.104 279.426 259.322 278.595 259.083Z" fill="#202538"/>
<path d="M322.093 53.5918C315.593 64.1696 310.217 75.5593 306.624 87.4026C304.034 96.3328 302.397 105.717 298.536 114.313C296.043 120.115 291.718 124.986 287.857 129.881C282.041 137.211 279.035 146.213 278.644 155.454C278.278 161.686 279.353 168.205 276.689 174.102C273.073 183.056 265.961 190.005 258.166 195.568C253.205 199.198 247.047 201.824 243.87 207.149C237.566 221.404 239.325 237.76 234.633 252.588C232.581 258.749 228.28 263.763 223.906 268.252C219.409 272.621 216.33 277.946 214.18 283.748C209.781 295.257 208.51 307.936 210.685 320.042C210.759 320.472 210.465 320.878 210.025 320.974C209.586 321.045 209.17 320.759 209.072 320.329C206.849 307.936 208.144 294.971 212.64 283.199C214.815 277.278 218.138 271.595 222.708 267.153C227.058 262.712 231.139 257.865 233.045 252.087C237.688 237.306 235.904 220.711 242.404 206.337C245.777 200.678 252.057 197.932 257.164 194.231C264.691 188.906 271.704 182.054 275.15 173.529C277.74 167.727 276.616 161.471 277.031 155.358C277.373 149.102 278.717 142.775 281.528 137.068C284.216 131.337 288.663 126.61 292.451 121.667C296.214 116.724 298.585 110.994 300.368 105.048C302.226 99.1265 303.472 93.0616 305.256 87.0205C308.946 75.0339 314.346 63.6443 320.969 52.9232C321.14 52.6367 321.531 52.5412 321.848 52.7083C322.166 52.8994 322.239 53.2814 322.044 53.5918H322.093Z" fill="#202538"/>
<path d="M88.501 178.735C100.255 165.745 113.524 169.255 110.494 152.851C107.977 139.193 112.009 125.034 121.955 115.029C127.747 109.203 135.102 105.096 142.702 102.016C150.106 99.0071 158.146 96.1896 166.039 94.4942C178.282 91.8438 191.796 91.223 204.014 94.3271C209.977 95.8314 215.89 98.4102 220.216 102.804C225.812 108.487 223.759 115.053 226.203 121.954C229.208 130.454 238.47 130.573 245.532 134.107C252.13 137.426 256.407 144.231 257.604 151.251C258.875 158.653 252.179 167.488 256.162 174.102C260.61 181.528 272.266 180.048 276.274 198.649C277.545 204.522 276.005 209.131 273.879 214.647C265.326 236.901 231.383 238.524 211.467 235.301C196.805 232.913 186.053 223.29 166.943 227.063C160.516 228.328 156.191 231.337 150.717 234.584C145.708 237.545 126.329 243.085 111.838 236.829C85.4464 225.439 73.3257 195.521 88.5255 178.735H88.501Z" fill="#202538"/>
<path d="M123.373 136.376C117.019 145.354 126.061 156.003 123.324 165.745C120.465 176.562 105.949 176.992 100.035 185.038C99.4488 185.898 98.0559 184.967 98.6913 184.131C104.727 175.63 118.461 175.798 121.711 165.339C124.277 155.86 115.504 144.494 122.371 135.635C122.859 135.015 123.886 135.755 123.373 136.399V136.376Z" fill="#3D4357"/>
<path d="M226.643 134.656C229.208 138.358 233.974 139.05 237.566 141.7C241.402 144.47 243.406 149.102 243.724 153.591C243.553 161.805 241.622 171.762 249.638 177.159C250.517 177.756 249.516 179.093 248.66 178.448C242.649 174.389 241.109 166.82 241.72 160.158C242.575 153.95 242.087 146.882 236.637 142.847C233.387 140.363 228.304 139.432 225.567 135.373C225.103 134.728 226.178 134.012 226.618 134.68L226.643 134.656Z" fill="#3D4357"/>
<path d="M239.643 189.432C237.541 189.599 236.271 190.506 236.075 192.56C234.022 215.363 265.082 295.353 280.135 326.513C283.629 333.724 286.268 342.129 293.013 347.167C300.931 353.089 310.925 349.842 316.961 342.75C322.166 336.637 323.339 329.522 322.142 320.329C318.452 298.266 311.316 276.322 303.032 255.525C290.545 224.126 274.197 186.853 239.618 189.456L239.643 189.432Z" fill="#8D5524"/>
<path d="M259.95 282.984C309.312 261.041 313.271 261.471 312.636 259.632C303.203 232.841 283.629 203.352 265.961 194.279C249.051 185.611 241.182 185.11 225.201 180.955C183.267 170.043 259.95 282.96 259.95 282.96V282.984Z" fill="#8DC63F"/>
<path d="M268.429 264.455C279.011 260.086 289.616 255.835 300.271 251.705C300.686 251.537 301.175 251.752 301.321 252.158C301.493 252.564 301.273 253.018 300.882 253.185C290.276 257.459 279.597 261.59 268.894 265.601C268.161 265.888 267.672 264.742 268.429 264.455Z" fill="#202538"/>
<path d="M317.059 315.219C324.928 325.439 321.506 342.535 309.875 349.006C295.726 356.838 280.037 361.757 263.738 362.354C252.497 362.759 237.053 365.696 230.601 354.02C226.154 345.973 230.039 332.984 231.799 324.484C233.851 314.622 238.983 305.764 250.322 305.835C268.063 305.955 302.886 296.833 317.059 315.219Z" fill="#8D5524"/>
<path d="M287.442 307.101C293.062 304.068 299.66 302.707 306.087 303.28C306.527 303.328 306.869 303.71 306.82 304.14C306.771 304.57 306.405 304.88 305.965 304.856C299.831 304.474 293.624 305.62 288.004 308.199C287.295 308.533 286.708 307.459 287.417 307.101H287.442Z" fill="#202538"/>
<path d="M120.391 189.432C122.493 189.599 123.763 190.506 123.959 192.56C126.012 215.363 94.9524 295.353 79.8993 326.513C76.4048 333.724 73.7656 342.129 67.021 347.167C59.1035 353.089 49.1088 349.842 43.0729 342.75C37.8679 336.637 36.6949 329.522 37.8923 320.329C41.5823 298.266 48.7178 276.322 57.0019 255.525C69.4892 224.126 85.8374 186.853 120.416 189.456L120.391 189.432Z" fill="#8D5524"/>
<path d="M100.084 282.984C50.7217 261.041 46.7629 261.471 47.3983 259.632C56.8309 232.841 76.4048 203.352 94.0727 194.279C110.983 185.611 118.852 185.11 134.833 180.955C176.767 170.043 100.084 282.96 100.084 282.96V282.984Z" fill="#8DC63F"/>
<path d="M91.1403 265.601C80.437 261.59 69.7581 257.459 59.1525 253.185C58.7371 253.018 58.5416 252.54 58.7126 252.134C58.8837 251.728 59.348 251.537 59.7634 251.705C70.4423 255.811 81.0479 260.086 91.6046 264.455C92.3377 264.742 91.8979 265.912 91.1403 265.601Z" fill="#202538"/>
<path d="M253.279 320.974C251.617 328.925 250.029 346.738 250.64 353.256C250.64 353.423 252.252 374.149 254.11 380.31C254.745 382.459 252.643 383.366 249.662 384.536C210.881 399.937 166.503 400.104 126.06 390.481C120.416 389.144 114.844 387.497 109.492 385.324C102.259 382.411 104.018 382.602 105.876 372.454C107.073 365.887 108.319 355.023 107.244 336.208C106.56 324.34 104.263 317.607 98.8622 293.108C92.6553 264.909 112.669 205.716 116.139 189.551C116.457 188.071 116.652 185.659 118.265 184.99C120.684 183.988 125.425 183.247 135.664 180.358C144.632 177.827 153.821 176.227 163.058 175.129C180.359 173.076 192.846 174.508 210.099 177.397C223.808 179.666 235.171 183.534 238.959 184.561C241.476 185.253 241.525 188.166 243.651 195.759C262.247 262.808 262.296 277.731 257.213 302.707C256.113 308.104 254.769 314.001 253.328 320.974H253.279Z" fill="#8DC63F"/>
<g style="mix-blend-mode:multiply" opacity="0.25">
<path d="M254.085 380.31C254.72 382.459 252.619 383.366 249.638 384.536C210.856 399.937 166.479 400.104 126.036 390.481C120.391 389.144 114.819 387.497 109.468 385.324C102.234 382.411 103.994 382.602 105.851 372.454C110.934 363.189 118.241 352.994 126.647 346.69C163.009 319.493 193.897 343.204 232.507 325.081C236.784 323.051 240.791 320.568 244.237 317.225C251.764 309.847 255.331 305.262 257.164 302.683C256.064 308.08 254.72 313.977 253.279 320.95C251.617 328.901 250.029 346.714 250.639 353.232C250.639 353.399 252.252 374.125 254.109 380.286L254.085 380.31Z" fill="#B05F95"/>
</g>
<path d="M109.175 218.037C106.315 228.376 103.774 238.787 101.599 249.293C99.6198 259.68 97.1516 270.401 97.8603 280.955C97.958 281.958 96.2963 282.125 96.2475 281.074C95.6854 259.441 102.528 238.453 107.977 217.703C108.197 216.939 109.443 217.249 109.199 218.037H109.175Z" fill="#202538"/>
<path d="M250.224 214.36C254.647 229.88 258.752 245.52 261.074 261.494C261.832 266.819 262.418 272.216 261.954 277.731C261.905 278.161 261.514 278.495 261.074 278.448C260.634 278.4 260.292 278.018 260.341 277.588C261.05 267.034 258.581 256.313 256.578 245.926C254.403 235.444 251.861 225.009 249.002 214.67C248.782 213.93 250.004 213.548 250.224 214.336V214.36Z" fill="#202538"/>
<path d="M212.42 183.176C214.229 201.06 200.837 217.01 182.534 218.753C164.206 220.52 147.907 207.412 146.099 189.527C145.659 185.229 146.099 181.027 147.32 177.111C147.345 176.968 147.394 176.8 147.443 176.657C149.471 168.658 150.668 163.214 151.084 158.821C151.377 155.645 151.377 153.138 151.401 150.129V150.01C150.082 137.044 159.759 125.535 173.028 124.27C186.273 123.004 198.051 132.46 199.371 145.425C200.006 148.41 200.52 150.893 201.448 153.997C202.743 158.295 205.065 163.524 208.755 171.213C210.71 174.819 211.98 178.854 212.396 183.176H212.42Z" fill="#8D5524"/>
<path d="M199.371 145.425C200.666 158.367 190.989 169.9 177.744 171.165C164.499 172.431 152.696 162.975 151.401 150.034C150.106 137.092 159.783 125.559 173.028 124.294C186.273 123.028 198.076 132.484 199.371 145.425Z" fill="#8D5524"/>
<path d="M200.329 211.586C214.595 200.217 216.728 179.701 205.093 165.762C193.458 151.822 172.462 149.738 158.196 161.107C143.93 172.476 141.798 192.992 153.432 206.931C165.067 220.87 186.064 222.954 200.329 211.586Z" fill="#8D5524"/>
<path d="M200.568 150.75C198.027 157.459 192.04 163.859 186.615 168.443C178.355 175.392 168.849 179.475 158.048 180.573C153.918 180.979 149.129 181.122 146.538 180.239C146.538 180.191 146.538 180.143 146.538 180.096C146.636 179.594 146.734 179.069 146.881 178.591C147.003 178.09 147.149 177.612 147.296 177.111C147.32 176.968 147.369 176.8 147.418 176.657C149.446 168.658 150.644 163.214 151.059 158.821C151.353 155.645 151.353 153.138 151.377 150.129V150.01C150.057 137.044 159.734 125.535 173.004 124.27C186.248 123.004 198.027 132.46 199.346 145.425C199.762 147.288 200.104 148.983 200.544 150.75H200.568Z" fill="#7A4A20"/>
<path d="M136.91 116.486C137.472 121.977 139.525 127.923 133.905 128.472C125.205 129.308 118.827 123.052 118.265 117.56C117.703 112.068 120.122 108.057 125.743 107.508C131.363 106.958 136.348 110.994 136.91 116.486Z" fill="#8D5524"/>
<path d="M125.132 121.142C123.885 119.613 122.908 118.133 122.273 116.223C122.175 115.889 122.37 115.554 122.712 115.459C123.006 115.387 123.299 115.507 123.421 115.745C124.252 117.178 125.425 118.682 126.427 120.163C127.013 120.951 125.767 121.882 125.132 121.142Z" fill="#202538"/>
<path d="M206.922 109.752C207.484 115.244 206.653 121.476 212.249 120.927C220.949 120.091 225.958 112.737 225.421 107.245C224.858 101.753 221.706 98.2669 216.086 98.8161C210.465 99.3653 206.36 104.26 206.922 109.752Z" fill="#8D5524"/>
<path d="M217.943 111.4C218.603 109.776 219.458 108.057 219.996 106.505C220.118 106.17 220.46 106.003 220.802 106.123C221.071 106.218 221.242 106.481 221.242 106.767C220.998 108.749 220.313 110.397 219.409 112.116C218.92 112.976 217.527 112.307 217.943 111.424V111.4Z" fill="#202538"/>
<path d="M211.443 136.376C206.629 146.046 194.361 160.42 177.011 162.283H176.669C159.295 163.787 144.412 152.015 137.741 143.443C125.547 127.756 124.594 94.351 130.728 77.7321C136.666 61.6625 149.349 52.2308 165.404 50.3445C165.477 50.3445 165.526 50.3206 165.575 50.3206C165.624 50.3206 165.697 50.3206 165.746 50.3206C181.874 49.1267 196.194 55.9796 205.211 70.6166C214.546 85.755 220.24 118.706 211.418 136.423L211.443 136.376Z" fill="#8D5524"/>
<path d="M182.607 91.2469C182.192 86.2326 194.997 86.3758 194.874 91.5095C194.777 95.8314 182.949 95.3538 182.607 91.2469Z" fill="#202538"/>
<path d="M193.091 105.12C192.871 106.791 191.869 107.866 190.5 107.937C187.519 108.081 186.102 104.093 187.25 101.801C188.374 99.5801 191.6 99.9144 192.602 102.04C193.042 102.971 193.213 104.117 193.091 105.144V105.12Z" fill="#202538"/>
<path d="M155.433 108.677C155.214 110.349 154.212 111.423 152.843 111.495C149.862 111.638 148.445 107.651 149.593 105.359C150.717 103.138 153.943 103.472 154.945 105.597C155.385 106.529 155.556 107.675 155.433 108.701V108.677Z" fill="#202538"/>
<path d="M145.121 96.2612C143.508 91.4856 156.02 88.7158 157.12 93.7301C158.048 97.9565 146.441 100.177 145.121 96.2612Z" fill="#202538"/>
<path d="M173.394 98.243C175.13 103.783 177.256 109.251 177.573 115.077C177.475 119.351 172.515 120.76 168.923 120.998C168.532 120.998 168.214 120.736 168.189 120.354C168.214 119.327 169.729 119.661 170.364 119.303C171.782 118.826 173.737 118.444 174.763 117.465C176.205 116.223 176.009 113.931 175.545 111.806C174.616 107.412 173.566 102.923 172.344 98.6012C172.124 97.9804 173.15 97.6222 173.37 98.2669L173.394 98.243Z" fill="#202538"/>
<g opacity="0.75">
<path d="M137.912 125.941C137.35 122.646 141.04 118.634 146.563 117.87C151.548 117.178 156.166 119.112 157.022 123.577C157.682 127.039 153.723 131.194 149.104 131.839C143.753 132.579 138.523 130.693 137.937 125.941H137.912Z" fill="#A0523D"/>
<path d="M207.704 119.208C207.606 115.889 203.207 112.617 197.636 112.904C192.602 113.167 188.448 115.912 188.496 120.473C188.521 124.007 193.213 127.326 197.88 127.087C203.281 126.825 208.021 123.983 207.704 119.231V119.208Z" fill="#A0523D"/>
</g>
<path d="M182.192 135.874C181.312 137.164 180.163 138.166 178.893 138.883C174.25 141.485 167.896 140.483 164.548 136.949C164.451 136.853 164.353 136.734 164.255 136.614C163.375 135.612 162.691 134.418 162.3 133.104C161.909 131.815 161.714 129.785 162.716 128.783C163.742 127.804 165.208 127.422 166.479 128.09C167.114 128.424 167.774 128.806 168.385 129.212C170.804 130.788 173.517 131.337 176.522 130.86C177.5 130.693 178.551 130.526 179.553 130.573C182.363 130.717 183.78 133.534 182.167 135.874H182.192Z" fill="#202538"/>
<path d="M178.893 138.883C174.25 141.485 167.896 140.483 164.548 136.949C164.451 136.853 164.353 136.734 164.255 136.614C164.451 136.113 165.575 135.683 165.868 135.516C166.65 135.158 167.456 134.871 168.287 134.68C171.806 133.916 176.987 134.824 178.893 138.883Z" fill="#E8B5B3"/>
<path d="M135.908 44.9003C139.965 39.7189 144.926 35.6119 150.888 32.7227C183.34 17.059 213.495 43.6826 221.12 74.0311C227.595 99.8189 217.919 108.081 211.15 102.016C207.533 98.7683 205.26 93.0377 202.719 87.5936C198.442 78.4245 190.183 71.0225 179.357 69.6376C179.015 69.5898 174.421 68.8974 174.103 69.6614C173.614 70.8553 188.448 78.7588 181.312 85.0864C178.575 87.4981 175.374 89.1217 171.708 89.5038C164.426 90.2917 157.559 89.0023 151.45 84.9431C146.832 81.8629 142.433 78.4723 139.061 73.9594C132.365 65.0053 129.701 52.8277 135.933 44.8765L135.908 44.9003Z" fill="#202538"/>
<path d="M124.13 62.0923C129.262 51.61 136.251 40.865 141.358 57.7465C145.317 70.8076 143.264 85.1103 138.523 97.8848C135.175 106.887 127.942 117.966 121.613 108.343C113.133 95.4732 117.556 75.5354 124.13 62.0923Z" fill="#202538"/>
<path d="M136.153 54.5468C137.766 61.2326 138.768 69.0883 143.508 74.3891C144.29 75.0577 143.215 76.2516 142.433 75.583C137.057 70.0195 136.251 61.925 134.906 54.7378C134.784 53.9499 136.031 53.7827 136.153 54.5468Z" fill="#3D4357"/>
<path d="M143.948 44.184C171.171 26.7533 208.486 40.3874 217.308 71.0224C217.601 72.0014 216.037 72.4551 215.744 71.4522C207.288 42.0111 170.926 28.5919 144.657 45.2107C143.997 45.6644 143.264 44.5899 143.973 44.1601L143.948 44.184Z" fill="#3D4357"/>
<path d="M151.279 175.917C156.924 179.952 161.934 187.044 165.404 191.008C172.344 199.007 179.797 207.244 185.124 216.413C190.06 224.938 180.945 224.15 175.105 222.24C164.157 218.634 153.576 211.924 145.341 204.069C139.818 198.816 134.271 191.652 134.124 183.773C134.002 177.97 136.641 172.932 143.19 172.885C145.976 172.861 148.713 174.078 151.304 175.917H151.279Z" fill="white"/>
<path d="M204.698 170.879C199.933 175.893 196.414 183.773 193.799 188.333C188.545 197.478 182.851 206.958 179.43 216.939C176.254 226.227 185.051 223.768 190.402 220.783C200.446 215.196 209.512 206.624 216.061 197.383C220.46 191.199 224.492 183.128 223.099 175.368C222.073 169.661 218.505 165.196 212.053 166.366C209.317 166.867 206.873 168.563 204.698 170.855V170.879Z" fill="white"/>
<path d="M115.113 83.5344C115.772 85.8744 116.628 86.4713 119.169 86.2564C126.647 85.6834 213.129 77.9709 220.362 76.1801C222.488 75.6548 222.977 74.9862 222.83 72.8133C220.313 37.0446 181.19 9.48979 146.465 27.1593C132.683 34.1554 123.152 44.8765 117.874 59.1314C114.184 69.0884 113.891 79.1648 115.113 83.5344Z" fill="white"/>
<path d="M154.163 29.0217C160.468 34.5613 167.53 33.248 172.613 27.0398C172.906 26.6578 173.468 26.61 173.835 26.9204C174.763 28.0188 172.49 29.2604 171.953 30.1678C168.434 33.6778 162.838 35.3492 158.146 33.1286C156.313 32.3407 154.7 31.2662 153.283 29.8574C153.039 29.6186 153.039 29.2127 153.283 28.9739C153.527 28.7351 153.943 28.7351 154.187 28.9739L154.163 29.0217Z" fill="#202538"/>
<path d="M177.573 35.1104C184.855 40.8649 189.45 49.4131 191.038 58.3433C191.111 58.7731 190.818 59.2029 190.378 59.2745C189.938 59.3462 189.523 59.0835 189.425 58.6537C187.715 50.1294 183.487 41.8439 176.767 36.0655C176.156 35.564 176.938 34.6089 177.573 35.1104Z" fill="#202538"/>
<path d="M143.484 63.6443C143.142 54.2603 146.49 44.9003 152.501 37.6176C152.77 37.2833 153.283 37.2117 153.65 37.4744C154.016 37.7609 154.065 38.2623 153.772 38.5966C148.151 45.6883 144.803 54.6185 144.755 63.5965C144.755 64.3845 143.508 64.4322 143.484 63.6204V63.6443Z" fill="#202538"/>
<path d="M114.966 86.0654C113.769 79.7617 130.972 72.3596 137.179 70.2345C156.875 63.501 178.086 62.6891 198.613 65.0769C208.29 66.1992 223.075 69.9241 223.344 74.9384C223.979 88.1427 117.556 99.8189 114.966 86.0415V86.0654Z" fill="#D9D9D9"/>
<path d="M125.621 81.3375C154.114 83.773 183.463 81.8867 210.759 73.2669C211.736 72.9326 212.274 74.4846 211.247 74.795C190.623 81.5046 168.776 83.964 147.101 83.773C139.867 83.7014 132.658 83.3671 125.45 82.5791C124.643 82.5075 124.765 81.2181 125.596 81.3375H125.621Z" fill="#202538"/>
<path d="M41.9488 315.219C34.0802 325.439 37.5013 342.535 49.1333 349.006C63.2822 356.838 78.9707 361.757 95.27 362.354C106.511 362.759 121.955 365.696 128.406 354.02C132.854 345.973 128.968 332.984 127.209 324.484C125.156 314.622 120.025 305.764 108.686 305.835C90.9447 305.955 56.1222 296.833 41.9488 315.219Z" fill="#8D5524"/>
<path d="M70.9798 308.223C65.3837 305.644 59.1768 304.522 53.0187 304.88C51.9923 304.952 51.8457 303.376 52.8965 303.28C59.3234 302.707 65.9213 304.068 71.5418 307.101C72.2505 307.459 71.6884 308.557 70.9553 308.199L70.9798 308.223Z" fill="#202538"/>
<path d="M278.791 237.688L278.644 411.661C278.644 417.344 273.928 422 268.063 422H89.9428C84.1269 421.976 79.3861 417.344 79.3861 411.637V385.778L79.5327 237.665C79.5327 231.982 84.249 227.326 90.1139 227.326H264.886L268.21 227.349C274.05 227.349 278.791 231.982 278.791 237.688Z" fill="#6E7289"/>
<path d="M278.791 237.688V267.416L79.5083 267.392V237.665C79.5327 231.958 84.2735 227.326 90.1139 227.326H268.21C274.05 227.349 278.791 231.982 278.791 237.688Z" fill="#3D4357"/>
<path d="M234.169 333.581C234.169 337.354 233.754 341.031 232.923 344.565C229.306 360.324 218.139 373.433 203.134 380.31C195.852 383.653 187.666 385.539 179.015 385.539C170.365 385.539 162.203 383.653 154.896 380.31C139.941 373.409 128.773 360.324 125.181 344.565C124.374 341.007 123.935 337.33 123.935 333.557C123.935 333.295 123.935 333.008 123.935 332.745H234.071C234.071 333.032 234.071 333.318 234.071 333.581H234.169Z" fill="#D9D9D9"/>
<path d="M197.514 398.982H160.565C154.823 398.982 150.18 394.421 150.18 388.834C150.18 383.247 154.823 378.71 160.565 378.71H197.514C203.257 378.71 207.9 383.27 207.9 388.858C207.9 394.445 203.257 398.982 197.514 398.982Z" fill="#D9D9D9"/>
<path d="M234.169 333.581C234.169 337.354 233.754 341.031 232.923 344.565H125.23C124.423 341.007 123.983 337.33 123.983 333.557C123.983 333.295 123.983 333.008 123.983 332.745H234.12C234.12 333.032 234.12 333.318 234.12 333.581H234.169Z" fill="#86AF9A"/>
<path d="M159.661 380.62C172.613 384.273 186.322 384.25 199.273 380.62C187.055 386.47 171.88 386.47 159.661 380.62Z" fill="#202538"/>
<path d="M156.216 326.943C151.206 320.281 149.838 308.916 156.655 302.373C160.712 298.003 166.748 297.144 171.782 294.684C178.869 291.771 184.245 286.065 183.805 278.089C190.476 290.1 177.647 300.343 166.846 303.519C156.264 306.695 154.798 317.082 156.216 326.919V326.943Z" fill="white"/>
<path d="M185.393 322.096C181.728 316.079 181.532 306.408 187.812 301.442C194.777 295.902 206.14 297.597 210.856 289.336C211.932 287.593 212.42 285.468 212.689 283.151C214.864 287.617 213.324 293.491 209.512 296.786C205.749 300.391 200.862 302.086 196.292 303.209C187.128 305.023 185.027 313.667 185.393 322.072V322.096Z" fill="white"/>
<path d="M278.766 260.874H79.5083V271.213H278.766V260.874Z" fill="#B0B3C2"/>
<path d="M128.969 264.073V279.427C128.969 284.274 124.912 288.19 119.976 288.19C115.04 288.19 111.007 284.25 111.007 279.403V264.049C111.007 259.202 115.064 255.286 120 255.286C122.468 255.286 124.741 256.265 126.354 257.865C127.967 259.465 128.969 261.638 128.969 264.073Z" fill="#202538"/>
<path d="M128.969 271.762V279.427C128.969 284.274 124.936 288.19 119.976 288.19C115.015 288.19 111.007 284.25 111.007 279.403V271.738H128.993L128.969 271.762Z" fill="#3D4357"/>
<path d="M247.267 264.097V279.45C247.267 284.298 243.211 288.214 238.275 288.214C233.314 288.214 229.306 284.274 229.306 279.427V264.073C229.306 259.226 233.363 255.31 238.299 255.31C240.767 255.31 243.04 256.289 244.653 257.889C246.265 259.489 247.267 261.662 247.267 264.097Z" fill="#202538"/>
<path d="M247.267 271.786V279.45C247.267 284.298 243.235 288.214 238.275 288.214C233.314 288.214 229.306 284.274 229.306 279.427V271.762H247.292L247.267 271.786Z" fill="#3D4357"/>
<g style="mix-blend-mode:multiply" opacity="0.25">
<path d="M278.791 237.689L278.644 411.661C278.644 417.344 273.928 422 268.063 422H89.9428C84.1269 421.976 79.3861 417.344 79.3861 411.637V385.778C254.256 421.069 264.642 261.399 264.886 227.349H268.21C274.05 227.349 278.791 231.982 278.791 237.689Z" fill="#6E7289"/>
</g>
<path d="M75.7939 321.618C81.6831 318.896 91.9222 319.111 96.052 323.6C98.7401 326.513 97.9092 329.283 93.2173 331.169C91.9466 331.671 93.535 332.172 94.1459 332.459C96.4674 333.629 98.8134 335.181 98.4713 338.094C98.2758 339.741 97.1761 341.15 95.7343 341.962C94.6835 342.559 92.4842 342.416 91.8733 343.562C91.8244 343.657 94.4392 345.353 94.708 345.544C95.661 346.26 96.6874 347.096 97.2494 348.146C98.4468 350.367 97.3472 352.97 95.2945 354.259C93.0707 355.644 91.8489 355.31 90.6026 355.883C91.1402 356.79 91.8977 357.101 92.7775 358.103C97.2983 363.237 90.7981 366.437 86.2773 366.652C79.7282 366.962 70.9798 364.837 67.0699 359.321C64.2108 355.286 63.3066 350.128 63.3555 345.281C63.4777 337.115 66.6789 324.555 75.745 321.618H75.7939Z" fill="#8D5524"/>
<path d="M92.7042 332.244C88.5255 332.22 84.3468 332.268 80.1925 331.742C79.8015 331.695 79.5572 331.337 79.6061 330.978C79.6549 330.644 79.9482 330.429 80.2658 330.405C82.3674 330.31 84.4445 330.477 86.5217 330.644C88.5988 330.811 90.6759 330.955 92.7531 331.217C93.3884 331.289 93.3396 332.268 92.7042 332.268V332.244Z" fill="#202538"/>
<path d="M92.1175 343.753C87.9388 343.729 83.7601 343.777 79.6059 343.252C79.2149 343.204 78.9705 342.846 79.0194 342.487C79.0683 342.153 79.3615 341.938 79.6792 341.914C81.7807 341.819 83.8579 341.986 85.935 342.153C88.0121 342.32 90.0893 342.464 92.1664 342.726C92.8018 342.798 92.7529 343.777 92.1175 343.777V343.753Z" fill="#202538"/>
<path d="M90.1627 356.408C85.984 356.384 81.8053 356.432 77.651 355.907C77.26 355.859 77.0157 355.501 77.0645 355.143C77.1134 354.808 77.4067 354.593 77.7243 354.57C79.8259 354.474 81.903 354.641 83.9802 354.808C86.0573 354.975 88.1344 355.119 90.2116 355.381C90.8469 355.453 90.7981 356.432 90.1627 356.432V356.408Z" fill="#202538"/>
<path d="M63.6731 353.423C61.5959 342.511 63.0621 329.283 72.788 322.12C73.5944 321.475 74.6208 322.717 73.8144 323.361C64.675 330.382 63.3554 342.631 64.9193 353.232C65.0415 353.996 63.7953 354.211 63.6731 353.423Z" fill="#202538"/>
<path d="M279.842 321.618C273.952 318.896 263.713 319.111 259.583 323.6C256.895 326.513 257.726 329.283 262.418 331.169C263.689 331.671 262.1 332.172 261.489 332.459C259.168 333.629 256.822 335.181 257.164 338.094C257.36 339.741 258.459 341.15 259.901 341.962C260.952 342.559 263.151 342.416 263.762 343.562C263.811 343.657 261.196 345.353 260.927 345.544C259.974 346.26 258.948 347.096 258.386 348.146C257.189 350.367 258.288 352.97 260.341 354.259C262.565 355.644 263.787 355.31 265.033 355.883C264.495 356.79 263.738 357.101 262.858 358.103C258.337 363.237 264.837 366.437 269.358 366.652C275.907 366.962 284.656 364.837 288.565 359.321C291.425 355.286 292.329 350.128 292.28 345.281C292.158 337.115 288.956 324.555 279.89 321.618H279.842Z" fill="#8D5524"/>
<path d="M262.858 331.193C267.012 330.787 271.166 330.286 275.37 330.381C275.761 330.381 276.054 330.716 276.029 331.098C276.029 331.432 275.761 331.695 275.443 331.742C273.366 332.053 271.289 332.125 269.187 332.172C267.11 332.22 265.008 332.292 262.907 332.268C262.247 332.268 262.198 331.289 262.858 331.217V331.193Z" fill="#202538"/>
<path d="M263.469 342.702C267.623 342.296 271.777 341.795 275.981 341.891C276.372 341.891 276.665 342.225 276.64 342.607C276.64 342.941 276.372 343.204 276.054 343.252C273.977 343.562 271.9 343.634 269.798 343.681C267.721 343.729 265.619 343.801 263.518 343.777C262.858 343.777 262.809 342.798 263.469 342.726V342.702Z" fill="#202538"/>
<path d="M265.399 355.357C269.554 354.952 273.708 354.45 277.911 354.546C278.302 354.546 278.595 354.88 278.571 355.262C278.571 355.596 278.302 355.859 277.984 355.907C275.907 356.217 273.83 356.289 271.728 356.336C269.651 356.384 267.55 356.456 265.448 356.432C264.788 356.432 264.74 355.453 265.399 355.381V355.357Z" fill="#202538"/>
<path d="M290.911 353.232C292.475 342.631 291.156 330.405 282.041 323.361C281.21 322.741 282.236 321.451 283.043 322.12C292.769 329.283 294.235 342.511 292.158 353.423C292.036 354.187 290.789 354.02 290.911 353.232Z" fill="#202538"/>
</svg>
