<svg width="403" height="449" viewBox="0 0 403 449" fill="none" xmlns="http://www.w3.org/2000/svg">
<g filter="url(#filter0_d_729_2251)">
<g opacity="0.5">
<path d="M124.843 9.97351C174.696 -0.992845 284.701 6.68606 296.353 85.4377C302.139 124.544 277.828 144.514 264.247 174.886C254.912 195.739 260.862 210.533 268.247 230.429C284.106 273.142 289.399 317.571 257.784 351.059C223.297 387.614 162.387 416.955 116.514 392.888C82.8889 375.249 58.0035 339.528 51.3564 299.858C45.4069 264.211 61.3065 227.313 51.9514 192.206C42.1039 155.259 18.8597 122.238 32.4821 81.7332C46.5353 39.9286 88.3665 17.9713 124.864 9.94898L124.843 9.97351Z" fill="#CFD1DD"/>
</g>
<mask id="mask0_729_2251" style="mask-type:luminance" maskUnits="userSpaceOnUse" x="6" y="6" width="313" height="396">
<path d="M124.843 9.97351C174.696 -0.992845 284.701 6.68606 296.354 85.4377C302.139 124.544 328.563 205.184 314.982 235.557C305.647 256.41 274.73 249.393 276.905 258.863C284.619 292.228 282.382 324.956 257.764 351.059C223.277 387.614 162.366 416.955 116.493 392.888C91.6286 379.837 71.5233 356.923 60.0756 329.789C56.034 320.245 19.3316 300.643 17.6083 290.315C11.6588 254.668 17.9776 236.17 8.62251 201.063C-1.22497 164.116 18.8598 122.262 32.4821 81.7578C46.5353 39.9531 88.3666 17.9959 124.864 9.97351H124.843Z" fill="white"/>
</mask>
<g mask="url(#mask0_729_2251)">
<path d="M183.005 229.889C177.938 253.687 163.741 253.687 76.6726 295.344C71.4822 297.822 66.3533 299.686 61.5321 300.054C57.9009 300.349 54.4337 299.809 51.2128 298.067C43.4579 292.915 40.8729 279.79 41.2012 266.665C41.2627 264.849 41.3448 263.009 41.4884 261.194C43.2322 256.115 54.4542 257.072 57.1008 254.668C64.5889 247.897 74.1902 240.561 84.0787 233.52C103.343 219.757 123.653 207.049 131.285 201.701C137.706 197.236 144.354 193.335 151.329 190.391C164.684 184.773 179.004 191.74 183.456 211.269C184.851 217.427 184.297 223.683 182.984 229.865L183.005 229.889Z" fill="#8D5524"/>
<path d="M84.0993 233.545C83.3607 241.003 82.499 248.559 81.4527 256.042C79.4012 270.934 77.0419 287.837 67.1329 296.62C65.4096 298.141 63.5426 299.466 61.5321 300.055C60.8961 300.251 60.2191 300.373 59.5421 300.373C56.2801 300.423 53.5105 299.613 51.2128 298.067C43.4579 292.915 40.8729 279.79 41.2012 266.665C41.2627 264.849 41.3448 263.009 41.4884 261.194C42.0833 252.877 43.4989 244.658 45.3248 236.513C62.5374 159.479 65.984 141.766 74.0671 136.884C78.9498 133.94 83.9351 134.872 85.6995 143.459C87.751 153.297 88.1203 192.084 84.0787 233.496L84.0993 233.545Z" fill="#8D5524"/>
<path d="M85.2276 237.053C85.2481 241.518 84.8378 245.934 84.1813 250.301C83.4838 254.668 82.4785 258.986 81.0219 263.083C80.8783 263.5 80.4885 263.672 80.1398 263.5C79.8115 263.328 79.6474 262.887 79.7705 262.494C80.4065 260.433 81.0425 258.422 81.5348 256.312C82.0477 254.226 82.4785 252.117 82.8273 249.982C83.5864 245.738 84.0172 241.371 84.1813 237.053C84.1813 236.685 84.4275 236.415 84.7147 236.44C84.9814 236.44 85.2071 236.734 85.2071 237.053H85.2276Z" fill="#202538"/>
<path d="M90.7874 119.981C90.4796 119.564 90.1514 119.146 89.8231 118.729C87.0946 115.417 83.8531 112.277 79.7295 113.43C74.3134 114.951 68.3639 121.305 66.3123 127.463C63.5222 135.829 62.6195 150.328 65.5737 159.087C69.6153 171.083 87.8331 174.297 98.1525 149.322C100.778 142.968 98.2961 136.639 96.1009 130.383C94.8084 126.678 93.0441 123.047 90.7669 119.956L90.7874 119.981Z" fill="#8D5524"/>
<path d="M82.8478 166.348C80.8167 167.649 78.519 168.532 76.0982 168.556C73.6978 168.556 71.2975 167.501 69.4306 165.784C69.1434 165.514 69.0818 165.024 69.3075 164.68C69.5127 164.337 69.923 164.263 70.2102 164.508C71.995 165.956 74.0056 166.913 76.1392 166.937C78.2728 167.035 80.3859 166.275 82.3965 165.244C82.6632 165.097 82.9709 165.244 83.0735 165.563C83.176 165.858 83.0735 166.201 82.8478 166.348Z" fill="#202538"/>
<path d="M107.979 108.671L98.9526 124.642L86.7458 146.182L79.9141 158.301L77.6985 162.178L48.1355 138.258L57.1623 122.262L69.3691 100.722L78.396 84.7509L90.89 94.834L107.979 108.671Z" fill="#3D4357"/>
<path d="M98.9526 124.642L86.7458 146.182L74.3544 136.173L57.1624 122.262L69.3691 100.722L81.8221 110.781L98.9526 124.642Z" fill="#8DC63F"/>
<path d="M82.0682 115.442L77.5958 118.484C77.4522 118.582 77.288 118.582 77.165 118.484L72.5284 115.81C72.1797 115.614 71.7899 115.982 71.8719 116.423L72.9182 122.458C72.9593 122.63 72.9182 122.826 72.7951 122.949L69.2254 127.39C68.9587 127.733 69.1229 128.273 69.5126 128.346L74.621 129.033C74.7646 129.033 74.9082 129.156 74.9903 129.328L77.4317 134.75C77.6163 135.167 78.1087 135.142 78.2728 134.725L80.3859 129.107C80.4474 128.935 80.5705 128.813 80.7347 128.788L85.802 127.709C86.1918 127.635 86.3149 127.046 86.0277 126.752L82.2323 122.606C82.1092 122.483 82.0682 122.287 82.0887 122.115L82.7862 116.006C82.8478 115.54 82.4169 115.221 82.0887 115.442H82.0682Z" fill="white"/>
<path d="M77.6778 162.227L70.7641 165.956C69.1434 166.814 67.2354 166.618 65.7583 165.416L50.1049 152.757C48.6278 151.555 47.7661 149.519 47.8277 147.384L48.1149 138.307L77.6984 162.227H77.6778Z" fill="#B0B3C2"/>
<path d="M108.02 108.597L90.931 94.7604L78.4575 84.6773L85.3713 80.9973C87.0125 80.1141 88.9205 80.3349 90.3976 81.537L96.6959 86.6399L106.03 94.1716C107.528 95.3738 108.369 97.41 108.308 99.5444L108.02 108.622V108.597Z" fill="#B0B3C2"/>
<g style="mix-blend-mode:multiply" opacity="0.25">
<path d="M78.8471 117.65C79.7498 115.295 80.755 113.013 81.8218 110.781C84.694 104.745 87.956 99.2745 90.8692 94.834L78.3957 84.7509L69.3689 100.722L57.1621 122.287L48.1147 138.258L77.6982 162.178L79.9139 158.301C75.1953 151.678 73.7797 143.999 74.3542 136.173C74.5183 134.087 74.826 131.977 75.2363 129.892C76.057 125.746 77.3084 121.649 78.8676 117.65H78.8471Z" fill="#6E7289"/>
</g>
<g style="mix-blend-mode:multiply" opacity="0.25">
<path d="M47.8071 147.36C47.7456 149.519 48.6072 151.53 50.0844 152.732L65.7378 165.392C67.2149 166.594 69.1228 166.79 70.7436 165.931L77.6573 162.202L48.0738 138.282L47.7866 147.36H47.8071Z" fill="#6E7289"/>
</g>
<g style="mix-blend-mode:multiply" opacity="0.25">
<path d="M90.3976 81.5125C88.9205 80.3103 87.0125 80.1141 85.3713 80.9727L78.4575 84.6527L90.931 94.7359C93.1877 91.3258 95.2187 88.529 96.6959 86.5908L90.3976 81.4879V81.5125Z" fill="#6E7289"/>
</g>
<path d="M75.6469 128.42C78.0267 128.175 79.4422 126.384 79.4217 123.685C79.4012 120.079 76.9188 118.239 79.7295 118.41C80.1603 118.435 80.5706 118.533 80.9809 118.533C83.4838 118.582 84.8789 116.816 84.5096 113.995C83.3812 105.678 72.0977 98.0479 66.1687 100.084C59.9935 102.194 52.6489 114.044 54.4132 121.6C56.9982 130.186 69.6358 139.043 73.144 133.302C75.0724 130.137 70.7026 127.831 73.4312 128.224C73.5338 128.224 74.6416 128.518 75.6263 128.42H75.6469Z" fill="#8D5524"/>
<path d="M69.1228 109.382C70.723 110.56 72.2617 111.86 73.8004 113.16C75.339 114.461 76.8777 115.785 78.2112 117.429C78.4369 117.699 78.4369 118.116 78.2112 118.386C78.0061 118.631 77.6983 118.631 77.4727 118.46C75.9545 117.184 74.4979 115.81 73.0208 114.412C71.5437 113.013 70.046 111.688 68.5894 110.266C68.4048 110.094 68.3637 109.75 68.5279 109.53C68.6715 109.333 68.9177 109.284 69.1023 109.407L69.1228 109.382Z" fill="#202538"/>
<path d="M63.4399 118.092C65.2043 119.416 66.9071 120.864 68.6304 122.287C70.3537 123.685 72.077 125.133 73.6567 126.727C73.8824 126.973 73.9234 127.39 73.7183 127.66C73.5336 127.905 73.2259 127.954 73.0002 127.807L72.8976 127.733C71.1128 126.433 69.4715 124.961 67.8303 123.464C66.189 121.968 64.5273 120.52 62.9271 118.95C62.7424 118.754 62.7014 118.435 62.8655 118.19C63.0091 117.969 63.2553 117.944 63.4399 118.067V118.092Z" fill="#202538"/>
<path d="M90.2949 158.252C91.7721 158.203 93.2492 157.541 94.3775 156.314C96.5727 153.959 97.8242 150.451 98.891 147.237C100.183 143.336 103.856 131.855 98.973 129.524C95.9162 128.077 91.8541 134.946 90.5001 137.596C88.0793 142.306 82.9914 150.623 85.9456 155.995C86.9099 157.737 88.6742 158.302 90.2949 158.252Z" fill="#8D5524"/>
<path d="M109.21 249.982C107.384 248.486 105.743 246.695 103.979 245.125C97.3523 239.212 95.2597 227.804 96.306 217.795C97.1471 209.944 99.9167 214.581 112.185 207.859C128.433 198.978 144.374 179.67 164.377 178.59C168.541 178.37 172.521 179.351 176.03 182.221C186.492 190.783 192.237 204.203 188.339 219.512C183.702 237.838 173.116 245.002 159.371 257.833C152.724 264.04 149.154 267.425 145.974 276.993C142.958 286.071 143.902 285.457 143.205 287.984C142.507 290.511 140.989 291.615 138.835 290.83C135.121 289.481 131.552 287.837 128.577 284.623C112.924 267.671 119.448 258.373 109.19 250.007L109.21 249.982Z" fill="white"/>
<path d="M113.519 219.782C112.165 221.941 111.262 224.713 111.447 227.363C111.631 230.061 113.047 232.367 114.934 234.011C118.689 237.568 122.853 240.586 126.279 244.928C127.962 247.112 129.357 249.786 129.89 252.803C130.342 255.723 130.793 258.422 131.572 261.145C132.311 263.843 133.296 266.419 134.609 268.726C135.922 270.983 137.686 272.921 139.82 273.681C140.168 273.804 140.374 274.246 140.271 274.687C140.168 275.129 139.799 275.35 139.45 275.227C136.907 274.319 134.917 272.111 133.501 269.658C132.085 267.18 131.06 264.457 130.28 261.66C129.48 258.912 128.987 255.919 128.557 253.171C128.085 250.497 126.813 248.118 125.274 246.032C122.094 241.886 117.95 238.795 114.175 235.14C112.206 233.373 110.503 230.625 110.318 227.461C110.134 224.32 111.159 221.376 112.698 218.972C112.862 218.702 113.191 218.653 113.416 218.849C113.642 219.046 113.683 219.438 113.519 219.708V219.757V219.782Z" fill="#202538"/>
<path d="M206.7 209.551C199.192 219.659 188.913 226.553 177.958 228.761C176.419 229.055 174.594 229.252 172.665 229.325C162.469 229.57 148.97 225.424 151.678 209.797C152.97 202.314 157.873 193.065 161.361 187.03C162.243 185.484 163.105 183.791 163.884 182.025C164.705 180.111 165.464 178.1 166.1 176.039C168.008 169.906 168.911 163.282 168.029 157.443C167.967 156.952 167.864 156.486 167.782 155.995C167.7 155.603 167.618 155.259 167.536 154.867C167.29 153.91 167.167 153.002 167.105 152.094C166.572 142.232 177.609 136.712 187.498 137.865C191.314 138.307 195.109 138.699 198.802 140.073C215.337 146.108 214.537 152.217 227.914 174.371C234.417 185.141 212.281 201.995 206.68 209.527L206.7 209.551Z" fill="#8D5524"/>
<path d="M188.688 171.083C180.994 180.038 170.552 181.191 163.925 182C164.746 180.087 165.505 178.075 166.141 176.014C168.049 169.881 168.952 163.257 168.07 157.418C168.008 156.928 167.905 156.461 167.823 155.971C167.741 155.578 167.659 155.235 167.577 154.842C167.331 153.885 167.208 152.978 167.146 152.07C176.009 153.174 190.391 150.819 191.888 149.936C197.325 146.746 204.69 152.413 188.688 171.034V171.083Z" fill="#7A4A20"/>
<path d="M63.6453 583.536C63.6453 583.536 122.689 618.79 160.684 597.986C182.697 585.94 208.916 607.947 231.401 606.695C256.635 605.272 274.935 591.313 287.614 568.693C297.236 551.545 271.878 570.386 255.548 527.747C239.731 486.433 246.316 444.408 230.129 400.886C226.703 391.686 223.256 382.118 221.102 372.231C219.194 363.547 218.312 354.665 219.359 345.613C223.339 310.8 254.338 267.695 258.154 227.878C259.651 212.275 254.317 182.05 241.638 178.492C216.138 171.329 193.899 226.062 170.757 218.212C149.134 210.876 168.213 180.308 160.889 185.73C142.056 199.689 125.418 221.475 116.514 243.236C112.206 253.809 112.083 259.305 111.734 267.842C110.811 289.971 119.181 304.888 118.278 327.556C118.073 332.463 118.935 332.34 117.499 341.516C111.447 380.769 92.5312 420.194 81.699 459.987C81.3913 461.14 81.063 462.342 80.7758 463.593C74.3339 489.77 69.4922 535.549 65.5122 560.499L63.6248 583.561L63.6453 583.536Z" fill="#99CC33"/>
<g style="mix-blend-mode:multiply" opacity="0.25">
<path d="M63.6453 583.536C63.6453 583.536 122.689 618.79 160.684 597.986C182.697 585.94 208.916 607.947 231.401 606.695C256.635 605.272 274.935 591.313 287.614 568.693C297.236 551.545 271.878 570.386 255.548 527.747C239.731 486.434 246.316 444.408 230.129 400.886C226.703 391.686 223.257 382.118 221.102 372.231C185.056 413.079 209.388 466.709 196.258 521.688C193.283 534.126 187.354 545.657 176.686 551.103C167.536 555.764 156.807 552.501 148.723 546.27C140.62 540.063 135.819 530.544 130.526 521.442C120.884 504.833 113.355 486.973 99.4655 474.608C93.598 469.383 87.2997 465.482 80.8168 463.569C74.3749 489.745 69.5332 535.525 65.5532 560.475L63.6658 583.536H63.6453Z" fill="#B05F95"/>
</g>
<path d="M145.954 206.288C146.672 211.44 148.477 216.543 151.288 220.567C154.078 224.664 157.935 227.534 162.161 228.957C166.387 230.576 170.921 230.233 175.312 229.84C177.507 229.325 179.702 228.933 181.877 228.295L188.298 225.989H188.36C188.708 225.841 189.078 226.087 189.18 226.504C189.283 226.921 189.098 227.363 188.729 227.485L182.184 229.865C179.969 230.527 177.712 230.92 175.455 231.46C170.921 231.877 166.203 232.269 161.751 230.527C157.299 228.982 153.216 225.841 150.324 221.499C147.41 217.181 145.605 211.956 144.887 206.46C144.846 206.117 145.031 205.798 145.318 205.749C145.605 205.7 145.872 205.92 145.913 206.264V206.338L145.954 206.288Z" fill="#202538"/>
<path d="M129.931 83.3524C132.557 78.3722 136.291 74.8639 136.558 63.5786C136.64 60.6837 136.681 57.7643 137.03 54.8939C138.117 45.9883 141.646 38.7755 147.8 33.4764C155.227 27.0732 164.726 24.6935 170.142 25.5276C179.969 27.0486 184.708 36.0033 183.867 42.8971C181.836 59.3589 172.952 56.2923 165.977 58.8682C144.559 66.7925 141.215 104.23 144.374 126.408C144.518 127.463 144.743 128.543 144.805 129.598C137.645 128.714 129.87 119.956 127.162 112.375C123.756 102.881 125.356 91.939 129.89 83.3769L129.931 83.3524Z" fill="#202538"/>
<path d="M143.861 156.412C139.738 152.585 136.086 148.169 132.865 143.312C129.644 138.454 126.936 133.057 125.069 127.218C123.223 121.379 122.32 115.049 122.73 108.793C123.058 102.513 124.782 96.4532 127.203 90.9332C127.367 90.5407 127.777 90.3935 128.105 90.5897C128.434 90.786 128.557 91.2766 128.392 91.6692C126.054 97.042 124.412 102.881 124.105 108.892C123.694 114.902 124.618 120.962 126.361 126.629C128.126 132.296 130.711 137.595 133.829 142.404C136.947 147.212 140.538 151.653 144.497 155.407H144.518C144.743 155.652 144.784 156.02 144.6 156.29C144.415 156.56 144.107 156.609 143.882 156.388L143.861 156.412Z" fill="#202538"/>
<path d="M143.082 100.133C139.758 131.757 148.682 162.325 173.239 164.067C195.15 165.612 218.64 143.606 221.964 111.983C225.287 80.3594 210.208 52.9803 188.544 48.7852C165.936 44.4182 146.241 70.0064 143.082 100.133Z" fill="#8D5524"/>
<mask id="mask1_729_2251" style="mask-type:luminance" maskUnits="userSpaceOnUse" x="142" y="48" width="81" height="117">
<path d="M143.082 100.133C139.758 131.757 148.682 162.325 173.239 164.067C195.15 165.612 218.64 143.606 221.964 111.983C225.287 80.3594 210.208 52.9803 188.544 48.7852C165.936 44.4182 146.241 70.0064 143.082 100.133Z" fill="white"/>
</mask>
<g mask="url(#mask1_729_2251)">
<path d="M159.063 91.9146C159.227 86.8853 148.785 87.5477 149.052 92.6506C149.298 96.9684 158.92 96.0116 159.063 91.9146Z" fill="#202538"/>
<path d="M186.575 95.1284C187.724 90.2709 177.425 88.0138 176.707 93.0676C176.091 97.3364 185.651 99.0783 186.575 95.1284Z" fill="#202538"/>
<path d="M150.734 105.8C151.001 107.444 151.842 108.475 152.97 108.475C155.411 108.475 156.396 104.402 155.35 102.169C154.345 100.011 151.719 100.526 151 102.685C150.672 103.641 150.59 104.795 150.754 105.8H150.734Z" fill="#202538"/>
<path d="M177.076 106.708C177.384 108.352 178.286 109.333 179.394 109.26C181.835 109.137 182.677 105.04 181.548 102.856C180.461 100.747 177.855 101.384 177.219 103.568C176.932 104.549 176.871 105.702 177.076 106.708Z" fill="#202538"/>
<path d="M161.751 136.933C162.53 138.184 163.536 139.092 164.602 139.73C168.521 142.061 173.65 140.662 176.214 136.933C176.296 136.835 176.378 136.712 176.44 136.565C177.096 135.51 177.609 134.283 177.856 132.934C178.102 131.609 178.163 129.573 177.281 128.641C176.399 127.709 175.168 127.439 174.183 128.175C173.691 128.543 173.178 128.96 172.686 129.401C170.778 131.119 168.624 131.83 166.121 131.536C165.321 131.438 164.459 131.34 163.618 131.438C161.32 131.732 160.315 134.651 161.751 136.909V136.933Z" fill="#202538"/>
<path d="M164.603 139.73C168.521 142.061 173.65 140.662 176.214 136.933C176.296 136.835 176.378 136.712 176.44 136.565C176.255 136.074 175.312 135.706 175.065 135.584C174.409 135.265 173.732 135.044 173.034 134.897C170.121 134.333 165.936 135.559 164.603 139.73Z" fill="#F0D0BB"/>
<g opacity="0.75">
<path d="M197.366 126.776C197.674 123.464 194.473 119.637 189.939 119.146C185.836 118.705 182.164 120.888 181.671 125.402C181.282 128.911 184.687 132.836 188.503 133.229C192.914 133.695 197.079 131.536 197.366 126.752V126.776Z" fill="#9E5637"/>
<path d="M140.127 122.483C140.066 119.146 143.512 115.663 148.067 115.638C152.17 115.638 155.699 118.165 155.863 122.704C156.006 126.237 152.314 129.794 148.498 129.818C144.066 129.818 140.066 127.242 140.127 122.483Z" fill="#9E5637"/>
</g>
<path d="M167.885 100.305C167.228 102.39 166.695 104.598 166.1 106.733C165.526 108.892 164.972 111.075 164.479 113.258C163.966 115.344 163.679 117.625 164.787 118.95C165.321 119.637 166.1 120.103 166.941 120.471L168.254 121.109C168.644 121.305 169.075 121.453 169.526 121.575C169.834 121.649 170.019 122.017 169.957 122.385C169.895 122.728 169.608 122.949 169.342 122.9C168.87 122.826 168.357 122.753 167.844 122.557L166.49 121.992C165.546 121.6 164.582 121.06 163.782 120.054C162.961 119.073 162.633 117.625 162.653 116.374C162.653 115.123 162.9 113.896 163.187 112.792C164.377 108.425 165.505 104.108 167.085 99.8633C167.187 99.5934 167.434 99.4708 167.659 99.5934C167.864 99.7161 167.967 99.986 167.885 100.256V100.305Z" fill="#202538"/>
<path d="M212.732 118.116C212.383 119.073 211.932 119.76 211.501 120.545C211.029 121.281 210.578 122.017 209.962 122.704C209.696 122.998 209.265 122.974 209.019 122.655C208.793 122.36 208.793 121.919 209.019 121.6H209.039L210.434 119.564C210.927 118.901 211.398 118.165 211.809 117.552L211.85 117.503C212.034 117.233 212.363 117.184 212.588 117.405C212.773 117.576 212.835 117.895 212.752 118.141L212.732 118.116Z" fill="#202538"/>
</g>
<path d="M166.592 81.4388C166.346 80.4575 165.813 78.961 165.423 77.7343C165.033 76.4095 164.664 75.0847 164.356 73.7354C163.741 71.0122 163.33 68.2154 163.31 65.3451C163.289 62.4992 163.7 59.6043 164.602 56.9056C165.567 54.2315 167.146 51.9254 168.952 50.0363C169.218 49.7419 169.649 49.791 169.895 50.1099C170.142 50.4288 170.121 50.9195 169.854 51.2139L169.813 51.263C168.193 53.0784 166.777 55.1392 165.895 57.568C165.054 60.0213 164.705 62.6709 164.684 65.3451C164.664 68.0192 165.013 70.7178 165.567 73.3674C165.854 74.6922 166.182 75.9925 166.531 77.2927L167.085 79.2554L167.372 80.2367L167.516 80.7519L167.639 81.4143C167.7 81.7332 167.516 82.0522 167.249 82.1258C167.003 82.1994 166.736 82.0031 166.674 81.7087L166.613 81.4634L166.592 81.4388Z" fill="#202538"/>
<path d="M104.052 203.1L94.9433 237.104C94.1227 240.146 91.9275 242.354 89.3016 242.771L23.9594 253.394C21.3334 253.811 18.7074 252.388 17.2508 249.738L17.1893 249.64L0.858887 219.906L104.052 203.125V203.1Z" fill="#B0B3C2"/>
<path d="M104.052 203.1L0.858887 219.881L10.7679 194.318C11.7526 191.766 13.7837 190 16.1225 189.607L82.5724 178.788C84.9112 178.395 87.25 179.475 88.7887 181.609L104.052 203.076V203.1Z" fill="#B0B3C2"/>
<g style="mix-blend-mode:multiply" opacity="0.25">
<path d="M60.4976 226.873L48.1473 228.885C40.577 230.112 33.6222 223.782 32.5964 214.729L72.3351 208.252C73.3609 217.305 68.0679 225.622 60.4976 226.849V226.873Z" fill="white"/>
</g>
<path d="M7.38277 218.311C33.9094 213.895 71.1041 207.467 97.282 203.542C97.9796 203.419 98.1642 204.769 97.4256 204.891C71.4529 209.455 33.8889 215.171 7.48535 219.366C6.95195 219.464 6.7878 218.409 7.36223 218.311H7.38277Z" fill="#202538"/>
<g style="mix-blend-mode:multiply" opacity="0.25">
<path d="M104.052 203.1L94.9433 237.104C94.1226 240.146 91.9275 242.354 89.3015 242.771L23.9594 253.394C21.3334 253.811 18.7074 252.388 17.2508 249.738L17.1892 249.64C58.6922 241.74 78.7359 229.032 83.0442 211.074C84.7675 203.91 82.3672 193.14 80.0285 188.749C77.7923 184.578 77.0947 181.658 77.3409 179.671L82.5929 178.813C84.9317 178.42 87.2704 179.499 88.8091 181.634L104.073 203.1H104.052Z" fill="white"/>
</g>
<path d="M7.21869 218.336C33.7453 213.92 70.9401 207.492 97.118 203.567C97.8155 203.444 98.0001 204.793 97.2616 204.916C71.2888 209.479 33.7248 215.195 7.32127 219.391C6.78787 219.489 6.62375 218.434 7.19818 218.336H7.21869Z" fill="#202538"/>
<path d="M20.8821 197.458C30.7296 195.716 50.5476 192.404 60.4156 190.858C61.2568 190.711 61.4619 192.306 60.6003 192.428C50.7528 194.097 30.8937 197.237 21.0257 198.684C20.3692 198.807 20.2051 197.556 20.8821 197.458Z" fill="white"/>
<path d="M131.552 326.256C128.762 333.052 127.366 338.522 127.1 344.361C126.792 350.985 128.392 359.351 133.275 362.59C145.543 370.735 158.078 360.185 168.623 349.783C246.911 272.479 251.773 259.746 250.009 234.305C247.854 203.393 231.688 199.885 214.496 215.439C208.177 221.156 202.495 227.681 197.222 234.698C174.614 264.825 132.454 323.925 131.552 326.231V326.256Z" fill="#8D5524"/>
<path d="M139.45 365.141C146.528 366.711 152.067 363.571 156.519 357.389C158.489 354.665 159.166 351.133 159.453 347.575C160.643 332.291 149.4 319.46 140.558 307.194C125.069 285.702 81.2885 234.992 73.9645 230.846C63.3784 224.86 54.29 234.698 56.8135 242.966C59.8087 252.803 63.5221 259.992 77.5752 284.181C99.0345 321.104 117.314 360.234 139.45 365.117V365.141Z" fill="#8D5524"/>
<path d="M153.237 324.514C149.523 320.025 145.851 315.461 142.302 310.775C142.056 310.457 142.076 309.941 142.343 309.647C142.61 309.353 143.02 309.377 143.266 309.696L143.307 309.745C146.959 314.284 150.488 318.921 153.975 323.655C154.16 323.901 154.16 324.293 153.934 324.539C153.729 324.759 153.401 324.735 153.216 324.539L153.237 324.514Z" fill="#202538"/>
<path d="M88.0587 243.604C95.0135 250.718 101.907 257.882 108.697 265.193C108.964 265.512 108.985 266.002 108.738 266.346C108.492 266.665 108.082 266.689 107.815 266.419C100.922 259.231 94.0903 251.92 87.3407 244.536C87.1355 244.315 87.115 243.922 87.2997 243.653C87.4843 243.407 87.8125 243.383 88.0177 243.604H88.0587Z" fill="#202538"/>
<path d="M65.6762 262.985L73.0618 276.38L76.7341 283.077C77.9651 285.285 79.196 287.592 80.4475 289.628L80.4885 289.701C80.7142 290.045 80.6321 290.56 80.3449 290.805C80.0577 291.051 79.6474 291.002 79.4217 290.658C77.9651 288.426 76.8162 286.242 75.5648 283.985L71.913 277.239C69.5332 272.7 67.1123 268.21 64.7941 263.623C64.6505 263.328 64.712 262.936 64.9582 262.764C65.2044 262.592 65.5121 262.666 65.6557 262.96L65.6762 262.985Z" fill="#202538"/>
<path d="M35.3953 205.258C33.0976 203.835 31.3948 205.258 31.8256 208.251C32.6257 213.992 38.5547 220.444 39.56 222.407C39.3753 222.333 39.1497 222.333 39.006 222.186C38.0623 221.278 37.0981 220.37 36.1954 219.389C33.5899 216.543 31.8051 217.451 31.5794 220.002C31.1896 224.762 36.2159 234.109 43.8067 241.886C51.3769 249.688 61.4706 255.87 70.6821 254.692C75.175 254.128 79.6884 248.093 79.9551 242.033C80.4065 231.116 75.6674 214.679 71.5643 206.362C68.569 200.302 64.8557 200.449 63.7684 204.35C62.7221 208.055 63.1324 213.378 63.0708 214.556C62.5169 222.775 51.9103 208.693 45.6531 200.155C41.6936 194.782 38.1034 193.924 38.1034 198.953C38.1239 204.424 42.0629 210.753 40.5652 209.502C39.7446 208.84 36.6262 205.994 35.4363 205.258H35.3953Z" fill="#8D5524"/>
<path d="M47.1918 216.494C46.0019 215.562 44.935 214.507 43.8477 213.452C42.8014 212.348 41.7756 211.195 40.873 209.846C40.6473 209.502 40.6883 209.012 40.9755 208.717C41.2422 208.447 41.6525 208.496 41.8782 208.791C43.6836 211.146 45.7352 213.354 47.7867 215.488C48.0124 215.709 48.0329 216.102 47.8483 216.372C47.6841 216.617 47.3764 216.666 47.1712 216.494H47.1918Z" fill="#202538"/>
<path d="M44.73 228.491C43.5606 227.485 42.4733 226.381 41.3859 225.253C40.3396 224.075 39.2934 222.897 38.3701 221.524C38.1445 221.18 38.1855 220.689 38.4727 220.395C38.7394 220.125 39.1497 220.174 39.3754 220.469C41.2423 222.897 43.3144 225.228 45.366 227.51C45.5711 227.731 45.5916 228.123 45.407 228.393C45.2224 228.638 44.9351 228.663 44.73 228.491Z" fill="#202538"/>
<path d="M67.3998 253.392C69.6565 253.098 71.9133 252.484 73.7802 251.062C75.6881 249.712 77.0832 247.602 78.0679 245.223C78.2321 244.83 78.6219 244.658 78.9501 244.855C79.2784 245.051 79.4015 245.492 79.2784 245.885C78.3141 248.559 76.6318 250.963 74.4777 252.46C72.3031 253.932 69.8617 254.545 67.4819 254.619C67.1947 254.619 66.9485 254.349 66.9485 254.006C66.9485 253.687 67.1536 253.417 67.4203 253.368L67.3998 253.392Z" fill="#202538"/>
<path d="M197.427 279.741C195.253 279.128 193.16 278.122 191.006 277.386C182.943 274.638 177.527 264.849 175.558 255.06C174.799 251.282 175.312 249.786 178.184 247.872C196.955 235.385 205.634 201.185 228.426 189.679C248.121 179.719 276.392 208.325 257.394 246.67C252.512 256.532 250.952 261.513 246.336 271.252C242.233 279.864 239.936 294.485 240.982 299.76C241.536 302.606 240.572 305.231 237.781 305.427C233.863 305.722 229.986 305.697 226.19 303.931C206.249 294.682 209.655 283.225 197.427 279.716V279.741Z" fill="white"/>
<path d="M192.893 253.662C192.298 256.263 192.319 259.305 193.365 261.684C194.412 264.113 196.504 265.585 198.761 266.297C203.397 267.94 208.26 268.873 212.835 271.375C215.091 272.651 217.266 274.515 218.702 277.067C220.056 279.569 221.348 281.9 222.928 284.083C224.467 286.267 226.231 288.229 228.18 289.775C230.129 291.296 232.386 292.277 234.643 292.032C235.012 291.983 235.34 292.327 235.361 292.744C235.402 293.185 235.114 293.578 234.766 293.602C232.099 293.897 229.555 292.719 227.442 291.1C225.329 289.432 223.503 287.371 221.882 285.114C220.261 282.906 218.846 280.354 217.574 277.975C216.281 275.668 214.332 274.049 212.24 272.798C207.952 270.369 203.09 269.339 198.412 267.622C196.012 266.861 193.529 265.119 192.339 262.249C191.15 259.403 191.17 256.189 191.868 253.221C191.95 252.902 192.237 252.705 192.504 252.803C192.77 252.902 192.934 253.245 192.852 253.564V253.613L192.893 253.662Z" fill="#202538"/>
<path d="M217.286 28.8641C230.704 34.5558 239.566 46.3318 243.485 62.5728C247.424 78.961 244.1 99.7406 255.117 112.498C263.077 121.698 274.853 118.337 284.803 130.751C292.353 140.171 289.83 150.573 283.818 161.442C280.146 168.09 277.623 170.74 279.9 178.394C284.721 194.611 302.898 198.364 295.471 221.278C286.28 249.663 248.183 259.599 234.622 228.884C228.385 214.777 235.566 204.694 234.068 193.212C233.248 186.907 230.027 186.098 224.528 183.841C209.183 177.56 202.105 157.884 207.501 140.834C209.86 133.425 214.127 132.345 218.23 126.776C220.528 123.661 221.841 119.171 220.63 115.295C218.476 108.352 211.132 109.996 206.475 107.984C191.026 101.262 196.873 78.4213 179.681 73.9071C172.973 72.1408 167.105 66.2037 167.987 56.6603C168.418 52.048 170.265 48.1718 172.111 44.2219C176.44 35.022 185.303 26.8033 195.478 25.5276C204.423 24.3991 207.829 24.8407 217.266 28.8396L217.286 28.8641Z" fill="#202538"/>
<path d="M178.984 35.7579C177.035 38.3094 175.127 40.9835 173.547 43.8784C172.747 45.3259 171.988 46.7734 171.393 48.319C170.798 49.8645 170.306 51.4592 170.142 53.0539C170.101 53.52 169.752 53.8144 169.403 53.7653C169.054 53.7163 168.788 53.3237 168.829 52.9067C168.972 50.9931 169.506 49.2512 170.162 47.6075C170.798 45.9638 171.598 44.4182 172.46 42.9462C174.204 40.0267 176.132 37.3281 178.286 34.8502C178.491 34.6049 178.82 34.6294 179.025 34.8502C179.21 35.0955 179.21 35.4635 179.025 35.7089L178.984 35.7579Z" fill="#3D4357"/>
<path d="M224.057 144.097C231.504 147.58 238.5 153.395 242.726 161.81C244.839 165.98 246.049 170.813 246.213 175.671C246.419 180.529 245.824 185.313 245.475 190.023C245.106 194.733 244.983 199.444 245.947 203.933C246.952 208.398 248.922 212.52 251.486 216.028C256.635 223.094 263.734 227.829 270.996 231.411C271.345 231.582 271.509 232.048 271.366 232.441C271.222 232.833 270.832 233.054 270.483 232.883C263.098 229.227 255.856 224.443 250.46 217.083C247.773 213.428 245.701 209.085 244.634 204.326C243.608 199.542 243.731 194.586 244.141 189.851C244.531 185.092 245.126 180.381 244.962 175.72C244.818 171.059 243.711 166.52 241.721 162.497C237.741 154.425 230.97 148.684 223.708 145.225C223.441 145.103 223.318 144.735 223.421 144.416C223.523 144.097 223.831 143.95 224.098 144.072L224.057 144.097Z" fill="#3D4357"/>
<path d="M215.707 28.2508C218.969 29.8945 222.169 31.7345 225.247 33.8199C228.303 35.9788 231.237 38.3585 234.007 41.0081C239.505 46.3563 244.306 52.784 248.019 60.0459C249.906 63.6523 251.465 67.4795 252.799 71.4293C254.174 75.3792 255.076 79.4762 256.205 83.426C257.333 87.3759 258.564 91.3012 260.246 94.8831C261.087 96.674 262.072 98.3668 263.262 99.7406C264.452 101.115 265.908 102.12 267.488 102.243C267.857 102.268 268.124 102.66 268.104 103.102C268.083 103.543 267.755 103.862 267.386 103.838C265.416 103.666 263.652 102.439 262.339 100.894C261.005 99.3481 259.959 97.5327 259.077 95.6681C257.292 91.9146 256.04 87.9402 254.912 83.9413C253.763 79.9178 252.861 75.8944 251.527 72.0426C250.193 68.2155 248.696 64.4373 246.87 60.88C243.28 53.7654 238.602 47.4358 233.248 42.1121C230.54 39.487 227.667 37.1073 224.672 34.9729C221.656 32.8631 218.517 31.0231 215.296 29.4039C215.03 29.2812 214.907 28.9132 215.009 28.5943C215.112 28.2753 215.42 28.1281 215.686 28.2508H215.707Z" fill="#202538"/>
</g>
<path d="M253.612 313.177C245.993 318.171 241.998 324.159 238.122 332.316C234.953 338.963 232.442 345.929 229.61 352.718C226.104 361.105 221.419 369.173 214.66 375.091C205.541 383.07 192.158 387.673 179.989 386.536C177.225 386.269 175 385.363 175 385.363C175 385.363 184.759 410.082 204.328 414.721C207.294 415.431 210.345 415.485 213.379 415.325C233.942 414.241 233.352 396.647 251.1 392.827C264.112 390.037 279.063 400.095 299.238 380.618C307.008 373.101 312.402 356.289 317.762 343.761C327.858 320.179 351.707 309.285 364.214 311.915C366.455 312.395 369.489 313.355 368.933 310.494C366.927 300.098 352.786 285.063 338.021 284.121C320.121 282.984 317.677 289.986 308.542 298.925C293.221 313.923 282.096 302.106 262.123 308.45C259.056 309.427 256.258 311.027 253.612 313.177Z" fill="#99CC33"/>
<mask id="mask2_729_2251" style="mask-type:luminance" maskUnits="userSpaceOnUse" x="177" y="284" width="192" height="132">
<path d="M253.612 313.177C245.993 318.171 241.999 324.159 238.122 332.316C234.953 338.963 232.442 345.929 229.61 352.718C217.626 381.418 192.715 390.019 181.304 387.3C180.427 387.087 179.517 386.909 178.607 386.856C173.062 386.465 184.742 410.082 204.311 414.721C207.277 415.431 210.328 415.485 213.362 415.325C233.925 414.241 233.335 396.647 251.083 392.827C264.095 390.037 279.046 400.095 299.221 380.618C306.991 373.101 312.385 356.289 317.745 343.761C327.841 320.179 351.691 309.285 364.197 311.915C366.439 312.395 369.473 313.355 368.916 310.494C366.911 300.098 352.769 285.063 338.004 284.121C320.104 282.984 317.66 289.986 308.525 298.925C293.204 313.923 282.08 302.106 262.106 308.45C259.039 309.427 256.241 311.027 253.595 313.177H253.612Z" fill="white"/>
</mask>
<g mask="url(#mask2_729_2251)">
<path d="M330.487 277.742C330.807 280.372 330.841 282.984 330.757 285.614C330.656 288.227 330.42 290.839 330.015 293.416C329.594 295.992 329.088 298.569 328.38 301.075C327.723 303.598 326.846 306.051 325.919 308.485L325.498 307.686C331.6 308.734 337.465 310.742 343.061 313.426C345.859 314.759 348.556 316.322 351.134 318.1C353.747 319.823 356.123 321.903 358.416 324.071C358.635 324.284 358.669 324.639 358.466 324.888C358.264 325.119 357.927 325.155 357.691 324.941H357.674C355.416 322.827 353.106 320.765 350.528 319.095C347.999 317.371 345.353 315.825 342.589 314.528C339.842 313.213 337.01 312.057 334.128 311.116C331.246 310.174 328.296 309.374 325.346 308.859L324.655 308.734L324.925 308.059C325.852 305.678 326.728 303.279 327.403 300.791C328.127 298.32 328.633 295.797 329.071 293.273C329.493 290.732 329.745 288.173 329.863 285.596C329.965 283.037 329.948 280.425 329.661 277.902C329.627 277.635 329.796 277.404 330.032 277.368C330.268 277.333 330.47 277.511 330.504 277.759L330.487 277.742Z" fill="#202538"/>
<path d="M304.969 291.017C306.031 298.001 306.671 305.02 306.789 312.093C306.823 315.63 306.722 319.166 306.334 322.702C305.913 326.221 305.272 329.757 303.839 333.063L303.283 332.228C306.924 331.961 310.514 332.157 314.104 332.583C317.677 332.992 321.234 333.667 324.723 334.627C328.212 335.569 331.65 336.724 334.954 338.216C338.308 339.62 341.477 341.433 344.595 343.335C344.864 343.494 344.949 343.85 344.797 344.116C344.645 344.401 344.308 344.49 344.055 344.33H344.038C340.971 342.446 337.836 340.669 334.549 339.283C331.279 337.826 327.891 336.67 324.453 335.746C321.015 334.804 317.509 334.147 313.986 333.738C310.463 333.329 306.89 333.152 303.401 333.365L302.457 333.418L302.845 332.53C304.21 329.42 304.884 325.972 305.306 322.525C305.71 319.059 305.845 315.558 305.828 312.058C305.761 305.056 305.171 298.036 304.16 291.123C304.126 290.857 304.278 290.643 304.514 290.59C304.75 290.555 304.969 290.715 305.002 290.963L304.969 291.017Z" fill="#202538"/>
<path d="M287.187 303.296C287.035 311.755 286.63 320.197 285.872 328.638C285.484 332.849 284.995 337.061 284.237 341.237C283.849 343.317 283.411 345.414 282.787 347.457C282.467 348.488 282.113 349.501 281.624 350.478C281.136 351.438 280.563 352.451 279.501 353.126L279.13 352.024C283.31 351.296 287.473 351.242 291.653 351.438C295.816 351.669 299.963 352.184 304.042 353.055C308.104 353.979 312.166 355.028 316.076 356.538C318.065 357.196 319.969 358.102 321.908 358.884C323.829 359.719 325.683 360.714 327.588 361.621C327.858 361.745 327.992 362.101 327.858 362.385C327.74 362.669 327.402 362.811 327.133 362.669H327.099C325.228 361.763 323.391 360.786 321.486 359.95C319.565 359.168 317.694 358.28 315.722 357.64C311.845 356.147 307.851 355.117 303.822 354.21C299.794 353.357 295.698 352.842 291.586 352.629C287.49 352.433 283.327 352.522 279.332 353.18L276.231 353.695L278.961 352.095C279.652 351.687 280.209 350.834 280.647 349.945C281.085 349.057 281.439 348.079 281.742 347.102C282.349 345.129 282.804 343.086 283.192 341.024C283.95 336.901 284.456 332.725 284.877 328.531C285.686 320.143 286.125 311.702 286.327 303.279C286.327 303.03 286.529 302.834 286.765 302.834C287.001 302.834 287.187 303.047 287.187 303.296Z" fill="#202538"/>
<path d="M258.735 306.531C258.786 316.909 258.483 327.287 257.657 337.63C257.235 342.801 256.662 347.973 255.769 353.091C255.314 355.65 254.775 358.191 254.033 360.697C253.274 363.185 252.398 365.708 250.746 367.858L250.241 366.899C255.331 366.241 260.387 366.295 265.444 366.614C270.5 366.97 275.523 367.627 280.495 368.711C285.451 369.813 290.372 371.093 295.142 372.87C299.963 374.523 304.598 376.655 309.199 378.894C309.469 379.036 309.587 379.374 309.469 379.658C309.334 379.943 309.014 380.067 308.744 379.943H308.727C304.176 377.721 299.575 375.607 294.805 373.972C290.069 372.212 285.198 370.951 280.293 369.867C275.388 368.8 270.399 368.161 265.393 367.805C260.404 367.485 255.348 367.467 250.426 368.054L249.044 368.214L249.92 367.077C251.387 365.193 252.28 362.758 253.022 360.341C253.763 357.907 254.303 355.401 254.758 352.86C255.668 347.795 256.258 342.659 256.696 337.523C257.556 327.234 257.91 316.873 257.893 306.531C257.893 306.282 258.078 306.069 258.314 306.069C258.55 306.069 258.752 306.264 258.752 306.513L258.735 306.531Z" fill="#202538"/>
<path d="M232.779 340.029C233.217 347.351 233.386 354.69 233.183 362.03C233.082 365.69 232.863 369.369 232.442 373.03C231.987 376.673 231.447 380.351 230.048 383.852L229.56 383.035C233.453 383.195 237.262 383.763 241.055 384.581C244.83 385.398 248.555 386.5 252.179 387.922C255.803 389.361 259.309 391.121 262.578 393.324C265.848 395.51 268.865 398.158 271.444 401.215C271.646 401.446 271.63 401.819 271.394 402.032C271.174 402.245 270.82 402.228 270.618 401.979C268.107 399.011 265.174 396.434 261.972 394.302C258.769 392.151 255.331 390.428 251.774 389.024C248.218 387.62 244.544 386.536 240.819 385.736C237.094 384.954 233.301 384.385 229.526 384.19L228.717 384.154L229.037 383.373C230.369 380.103 230.942 376.477 231.414 372.888C231.852 369.28 232.088 365.637 232.206 361.994C232.442 354.708 232.324 347.386 231.936 340.1C231.919 339.851 232.088 339.638 232.324 339.62C232.56 339.602 232.762 339.798 232.779 340.047V340.029Z" fill="#202538"/>
<path d="M208.491 371.448C208.457 371.75 208.524 372.461 208.592 372.977L208.794 374.683L209.199 378.112C209.435 380.405 209.586 382.715 209.586 385.025C209.586 387.336 209.435 389.664 208.996 391.974C208.575 394.266 207.833 396.541 206.586 398.549L206.3 397.678C208.794 398.567 211.154 399.686 213.463 400.966C215.772 402.245 217.98 403.667 220.087 405.284C224.284 408.501 228.059 412.517 230.52 417.44C230.655 417.724 230.554 418.079 230.284 418.222C230.015 418.364 229.677 418.257 229.543 417.973C227.183 413.263 223.509 409.372 219.413 406.226C217.356 404.645 215.182 403.241 212.924 402.014C210.665 400.788 208.322 399.651 205.946 398.78L205.271 398.531L205.659 397.909C206.805 396.079 207.53 393.946 207.968 391.743C208.407 389.539 208.575 387.282 208.592 385.008C208.609 382.733 208.491 380.458 208.272 378.201L207.901 374.789L207.699 373.083C207.665 372.461 207.53 372.017 207.648 371.182C207.682 370.933 207.901 370.773 208.12 370.809C208.339 370.844 208.508 371.075 208.474 371.306V371.448H208.491Z" fill="#202538"/>
</g>
<path d="M359.966 303.936C351.336 303.119 342.488 302.603 334.111 304.949C329.947 306.122 325.987 308.095 322.632 310.938C319.261 313.763 316.396 317.229 313.666 320.783C308.306 327.998 302.541 335.089 295.816 341.024C289.175 347.102 281.523 351.829 273.618 355.756C265.747 359.737 257.64 363.22 250.342 368.143C246.701 370.595 243.414 373.598 239.959 376.424C236.52 379.267 232.897 381.915 229.29 384.474C225.683 387.051 222.059 389.628 218.351 392.08C214.643 394.533 210.817 396.843 206.721 398.585C204.648 399.42 202.524 400.095 200.333 400.486C198.142 400.877 195.9 400.913 193.675 400.753C189.225 400.344 184.944 398.744 181.084 396.488C180.815 396.328 180.731 395.99 180.865 395.706C181.017 395.421 181.354 395.332 181.607 395.475C185.366 397.66 189.495 399.207 193.759 399.58C195.883 399.722 198.041 399.704 200.147 399.313C202.254 398.922 204.311 398.282 206.316 397.465C210.311 395.777 214.087 393.484 217.761 391.05C221.435 388.615 225.059 386.038 228.666 383.461C232.29 380.885 235.846 378.29 239.268 375.464C242.689 372.657 246.01 369.618 249.735 367.112C257.168 362.101 265.292 358.6 273.146 354.655C281.018 350.763 288.569 346.124 295.142 340.136C301.817 334.271 307.514 327.305 312.907 320.09C315.671 316.518 318.57 312.999 322.042 310.103C325.498 307.188 329.61 305.162 333.875 303.972C342.471 301.608 351.387 302.159 360.05 302.994C360.286 303.012 360.455 303.243 360.438 303.492C360.421 303.741 360.202 303.918 359.966 303.901V303.936Z" fill="#202538"/>
<path d="M315.985 71.4297C315.985 100.933 296.611 124.859 272.721 124.859C262.487 124.859 253.092 120.474 245.681 113.144C235.793 103.362 229.456 88.3177 229.456 71.4297C229.456 41.9264 248.831 18 272.721 18C279.913 18 286.705 20.1588 292.678 24.0041C306.535 32.9315 315.985 50.8089 315.985 71.4297Z" fill="#EF8216"/>
<path d="M278.739 117.003C299.125 112.89 312.95 89.146 309.619 63.9705C306.288 38.795 287.062 21.721 266.676 25.8346C246.291 29.9482 232.465 53.6918 235.796 78.8673C239.127 104.043 258.353 121.117 278.739 117.003Z" fill="white"/>
<path d="M272.339 38.6208C272.193 36.5969 272.138 34.573 272.211 32.5492C272.211 32.1444 272.502 31.8296 272.83 31.8521C273.14 31.8521 273.376 32.1669 273.395 32.5492C273.467 34.573 273.395 36.5969 273.267 38.6208C273.231 39.2954 272.375 39.2954 272.339 38.6208Z" fill="#202538"/>
<path d="M285.613 42.7809C286.323 40.9369 287.088 39.1604 287.962 37.4289C288.144 37.0916 288.508 36.9792 288.781 37.204C289.036 37.4064 289.127 37.8337 288.981 38.171C288.217 39.97 287.343 41.679 286.396 43.3431C286.086 43.9052 285.358 43.388 285.595 42.7809H285.613Z" fill="#202538"/>
<path d="M295.427 54.5642C296.775 53.4174 298.177 52.338 299.634 51.3935C299.925 51.2136 300.289 51.3486 300.435 51.7084C300.581 52.0457 300.489 52.4729 300.235 52.6753C298.851 53.7547 297.394 54.6992 295.901 55.5762C295.409 55.891 294.972 54.969 295.446 54.5867L295.427 54.5642Z" fill="#202538"/>
<path d="M299.142 70.845C300.781 70.6875 302.42 70.6201 304.058 70.6875C304.386 70.6875 304.641 71.0473 304.623 71.4521C304.623 71.8344 304.35 72.1267 304.058 72.1492C302.42 72.2167 300.781 72.1492 299.142 71.9693C298.596 71.9243 298.596 70.8674 299.142 70.8225V70.845Z" fill="#202538"/>
<path d="M295.755 87.2382C297.248 88.1152 298.687 89.0597 300.07 90.1616C300.344 90.3864 300.435 90.8362 300.253 91.1735C300.089 91.4883 299.743 91.6008 299.47 91.4209C298.013 90.4764 296.629 89.397 295.282 88.2277C294.826 87.8454 295.263 86.9459 295.737 87.2382H295.755Z" fill="#202538"/>
<path d="M286.177 99.3363C287.106 101 287.98 102.732 288.745 104.531C288.89 104.891 288.781 105.34 288.49 105.52C288.217 105.7 287.871 105.588 287.707 105.25C286.833 103.541 286.068 101.742 285.376 99.8985C285.139 99.2914 285.868 98.7742 286.177 99.3363Z" fill="#202538"/>
<path d="M272.976 103.879C273.103 105.903 273.158 107.926 273.085 109.95C273.085 110.355 272.794 110.67 272.466 110.647C272.156 110.647 271.92 110.31 271.901 109.95C271.847 107.926 271.901 105.903 272.047 103.879C272.083 103.204 272.939 103.204 272.976 103.879Z" fill="#202538"/>
<path d="M259.72 99.6736C259.01 101.518 258.227 103.294 257.353 105.003C257.17 105.34 256.806 105.453 256.533 105.228C256.278 105.026 256.187 104.598 256.333 104.261C257.098 102.462 257.99 100.753 258.918 99.089C259.228 98.5268 259.956 99.0665 259.72 99.6736Z" fill="#202538"/>
<path d="M249.941 87.8228C248.576 88.9697 247.192 90.0491 245.735 90.971C245.444 91.1509 245.08 91.016 244.934 90.6562C244.788 90.3189 244.879 89.8917 245.153 89.6893C246.555 88.6099 247.993 87.6654 249.486 86.8109C249.978 86.5186 250.397 87.4405 249.941 87.8003V87.8228Z" fill="#202538"/>
<path d="M246.281 71.5197C244.643 71.6771 243.004 71.7445 241.365 71.6321C241.037 71.6321 240.782 71.2723 240.801 70.8675C240.801 70.4853 241.074 70.1929 241.365 70.1704C243.004 70.103 244.643 70.1704 246.281 70.3728C246.828 70.4178 246.828 71.4747 246.281 71.5197Z" fill="#202538"/>
<path d="M249.723 55.1489C248.23 54.2719 246.791 53.3049 245.408 52.203C245.134 51.9782 245.043 51.5284 245.225 51.1911C245.389 50.8763 245.735 50.7639 246.008 50.9438C247.465 51.9107 248.849 52.9901 250.196 54.1594C250.652 54.5417 250.215 55.4412 249.723 55.1489Z" fill="#202538"/>
<path d="M259.337 43.0958C258.409 41.4092 257.553 39.7002 256.788 37.8787C256.642 37.5189 256.752 37.0692 257.043 36.8893C257.316 36.7094 257.662 36.8443 257.826 37.1591C258.7 38.8907 259.447 40.6896 260.138 42.5336C260.375 43.1408 259.629 43.658 259.337 43.0958Z" fill="#202538"/>
<path d="M275.671 71.4297C275.671 73.4536 274.341 75.0951 272.703 75.0951C271.064 75.0951 269.734 73.4536 269.734 71.4297C269.734 69.4058 271.064 67.7643 272.703 67.7643C274.341 67.7643 275.671 69.4058 275.671 71.4297Z" fill="#202538"/>
<path d="M291.512 57.6899L273.03 72.0818L273.212 71.8569L265.419 86.721C265.018 87.5081 263.999 86.721 264.418 85.9339L272.175 71.0474C272.229 70.9349 272.266 70.8675 272.375 70.8225L291.021 56.768C291.512 56.3857 292.022 57.3526 291.512 57.7349V57.6899Z" fill="#202538"/>
<g style="mix-blend-mode:multiply" opacity="0.25">
<path d="M315.985 71.4296C315.985 100.933 296.611 124.859 272.721 124.859C262.488 124.859 253.092 120.474 245.681 113.144C248.631 112.694 251.417 112.154 254.057 111.479C287.998 102.957 296.083 76.6242 296.447 54.5192C296.575 46.9635 295.792 39.88 294.845 34.1907C294.116 29.8732 293.297 26.3652 292.678 24.0265C306.535 32.9539 315.985 50.8313 315.985 71.4521V71.4296Z" fill="#6E7289"/>
</g>
</g>
<defs>
<filter id="filter0_d_729_2251" x="0.150553" y="0.150553" width="402.103" height="448.502" filterUnits="userSpaceOnUse" color-interpolation-filters="sRGB">
<feFlood flood-opacity="0" result="BackgroundImageFix"/>
<feColorMatrix in="SourceAlpha" type="matrix" values="0 0 0 0 0 0 0 0 0 0 0 0 0 0 0 0 0 0 127 0" result="hardAlpha"/>
<feOffset dx="13.7021" dy="13.7021"/>
<feGaussianBlur stdDeviation="9.77579"/>
<feColorMatrix type="matrix" values="0 0 0 0 0.12549 0 0 0 0 0.145098 0 0 0 0 0.219608 0 0 0 0.25 0"/>
<feBlend mode="normal" in2="BackgroundImageFix" result="effect1_dropShadow_729_2251"/>
<feBlend mode="normal" in="SourceGraphic" in2="effect1_dropShadow_729_2251" result="shape"/>
</filter>
</defs>
</svg>
