<svg width="315" height="253" viewBox="0 0 315 253" fill="none" xmlns="http://www.w3.org/2000/svg">
<g clip-path="url(#clip0_29_2817)">
<path d="M292.945 245.295C292.945 249.472 232.303 252.871 157.518 252.871C82.7326 252.871 22.0904 249.49 22.0904 245.295C22.0904 241.1 82.7326 237.719 157.518 237.719C232.303 237.719 292.945 241.1 292.945 245.295Z" fill="#E4EAF8"/>
<path d="M244.285 49.6062L244.749 50.0169C245.849 50.9907 245.951 52.6648 244.977 53.7648L242.219 56.8792C241.246 57.9792 239.572 58.081 238.472 57.1071L238.008 56.6965C236.908 55.7226 236.806 54.0485 237.78 52.9485L240.537 49.8341C241.511 48.7341 243.185 48.6323 244.285 49.6062Z" fill="#FDB527"/>
<path d="M197.384 57.1201L197.848 56.7093C198.946 55.7371 199.047 54.0591 198.075 52.9614L195.317 49.8474C194.345 48.7497 192.667 48.6479 191.569 49.6201L191.105 50.0309C190.008 51.0031 189.906 52.6811 190.878 53.7789L193.636 56.8928C194.608 57.9906 196.286 58.0923 197.384 57.1201Z" fill="#FDB527"/>
<path d="M222.479 44.7824V42.8176H213.381V44.7824C213.381 45.2603 213.027 45.6497 212.567 45.7205C195.963 48.2694 183.184 62.4122 182.812 79.6349C182.405 98.3798 197.291 114.505 216.036 115.496C236.303 116.576 253.083 100.451 253.083 80.4137C253.083 62.837 240.162 48.3048 223.311 45.7205C222.833 45.6497 222.497 45.2603 222.497 44.7824H222.479Z" fill="#FF5C5B"/>
<path d="M243.96 84.6664C246.304 70.2903 236.549 56.7361 222.173 54.3923C207.797 52.0484 194.243 61.8024 191.899 76.1785C189.555 90.5546 199.309 104.109 213.685 106.453C228.062 108.797 241.616 99.0425 243.96 84.6664Z" fill="#E4EAF8"/>
<path d="M217.93 80.4138H241.383C241.383 93.2821 230.798 103.867 217.93 103.867C205.061 103.867 194.477 93.2821 194.477 80.4138C194.477 67.5454 205.061 56.9604 217.93 56.9604V80.4138Z" fill="#FDB527"/>
<path d="M224.302 41.4193H211.575C210.319 41.4193 209.31 40.4104 209.31 39.1536C209.31 37.8969 210.319 36.8879 211.575 36.8879H224.302C225.559 36.8879 226.568 37.9146 226.568 39.1536C226.568 40.4104 225.559 41.4193 224.302 41.4193Z" fill="#FDB527"/>
<path d="M221.93 41.4194H213.93V42.8178H221.93V41.4194Z" fill="#FF5C5B"/>
<path d="M142.454 76.8179L83.9644 102.725L87.6991 111.157L146.188 85.2498L142.454 76.8179Z" fill="#EF8216"/>
<path d="M142.454 76.803L141.746 84.0779C141.746 84.2195 141.711 84.3434 141.693 84.485C141.445 85.5294 140.737 86.4321 139.729 86.8746L93.2467 107.443C92.1316 107.938 90.8218 107.797 89.8305 107.053L83.9539 102.699L108.699 91.7423L142.437 76.803H142.454Z" fill="#FDB527"/>
<path d="M141.693 84.4851C141.445 85.5294 140.737 86.4322 139.728 86.8747L93.2467 107.443C92.1315 107.938 90.8217 107.797 89.8305 107.053L83.9539 102.699L108.699 91.7424L117.266 92.5566C120.523 92.8752 123.816 92.3442 126.825 91.0166L141.676 84.4851H141.693Z" fill="#EF8216"/>
<path d="M117.001 93.123C117.479 94.1851 117.001 95.4241 115.939 95.902C114.877 96.3799 113.638 95.902 113.16 94.84C112.682 93.7779 113.16 92.5389 114.222 92.061C115.284 91.5831 116.523 92.061 117.001 93.123Z" fill="#EF8216"/>
<path d="M189.68 127.48H182.316C181.52 127.48 180.882 126.843 180.882 126.046C180.882 125.25 181.52 124.612 182.316 124.612H189.68C190.476 124.612 191.113 125.25 191.113 126.046C191.113 126.843 190.476 127.48 189.68 127.48Z" fill="#0F43A9"/>
<path d="M179.82 211.54H106.009V217.912H179.82C185.856 217.912 191.503 214.938 194.919 209.965L200.583 201.716C202.937 198.3 204.194 194.229 204.194 190.069L194.919 203.575C191.503 208.549 185.856 211.522 179.82 211.522V211.54Z" fill="#1F2677"/>
<path d="M179.82 217.753H125.975C124.205 217.753 122.789 219.187 122.789 220.939C122.789 222.709 124.223 224.125 125.975 224.125H179.82C185.856 224.125 191.503 221.152 194.919 216.178L200.583 207.929C202.937 204.513 204.194 200.442 204.194 196.282L194.919 209.788C191.503 214.762 185.856 217.735 179.82 217.735V217.753Z" fill="#35C5A7"/>
<path d="M103.292 242.641C116.953 236.921 123.391 221.21 117.671 207.549C111.951 193.888 96.2389 187.45 82.5779 193.17C68.9168 198.89 62.4794 214.602 68.1996 228.263C73.9197 241.924 89.6313 248.362 103.292 242.641Z" fill="#1F2677"/>
<path d="M75.9356 221.205C77.4756 229.188 84.5027 235.224 92.9282 235.224C101.354 235.224 108.381 229.188 109.921 221.205H75.9179H75.9356Z" fill="#BBDFFD"/>
<path d="M92.9458 227.294C98.1269 227.294 102.327 223.093 102.327 217.912C102.327 212.731 98.1269 208.531 92.9458 208.531C87.7646 208.531 83.5645 212.731 83.5645 217.912C83.5645 223.093 87.7646 227.294 92.9458 227.294Z" fill="#1F2677"/>
<path d="M253.423 224.063C256.805 209.644 247.857 195.214 233.439 191.832C219.02 188.45 204.589 197.397 201.207 211.816C197.825 226.235 206.772 240.665 221.191 244.047C235.61 247.429 250.041 238.482 253.423 224.063Z" fill="#1F2677"/>
<path d="M210.301 221.205C211.841 229.188 218.868 235.223 227.293 235.223C235.719 235.223 242.746 229.188 244.286 221.205H210.283H210.301Z" fill="#BBDFFD"/>
<path d="M227.311 227.293C232.492 227.293 236.692 223.093 236.692 217.912C236.692 212.731 232.492 208.531 227.311 208.531C222.13 208.531 217.93 212.731 217.93 217.912C217.93 223.093 222.13 227.293 227.311 227.293Z" fill="#1F2677"/>
<path d="M193.131 217.912C194.193 218.974 257.119 217.912 257.119 217.912C257.119 217.912 259.154 184.299 227.311 181.927C195.273 179.537 193.131 217.912 193.131 217.912Z" fill="#0F43A9"/>
<path d="M217.346 167.005L215.115 165.749C214.142 165.2 213.345 164.386 212.797 163.412L195.574 131.905C193.733 128.4 196.494 127.657 198.158 128.984C200.902 131.179 204.601 131.728 205.947 131.852C206.23 131.887 206.46 131.657 206.46 131.374V113.496C206.46 113.231 206.23 113.001 205.964 113.001C200.76 113.195 197.556 116.435 196.07 118.453C195.238 119.568 194.087 120.382 192.777 120.842L189.308 122.046C186.795 122.913 185.485 125.674 186.405 128.188L197.645 162.332C199.38 167.696 198.973 173.537 196.494 178.599L188.936 194.034C186.14 199.751 180.334 203.362 173.979 203.362H162.916C158.367 203.362 154.668 202.654 151.659 201.486C138.702 196.441 137.003 178.705 148.455 170.811L162.916 160.828H91.76C57.3854 177.838 50.252 211.54 50.252 211.54H179.82C185.856 211.54 191.503 208.566 194.919 203.592L204.194 190.087C206.779 186.334 210.513 183.52 214.832 182.086L215.682 181.803C218.213 180.953 220.302 179.024 221.081 176.475C222.231 172.705 220.567 168.828 217.346 167.005Z" fill="#35C5A7"/>
<path d="M206.92 113.001H209.292C210.85 113.001 212.124 114.275 212.124 115.833V129.073C212.124 130.631 210.85 131.905 209.292 131.905H206.92C206.672 131.905 206.478 131.71 206.478 131.462V113.461C206.478 113.213 206.672 113.018 206.92 113.018V113.001Z" fill="#0F43A9"/>
<path d="M187.432 132.436H179.838C178.652 132.436 177.679 131.48 177.679 130.277C177.679 129.073 178.634 128.117 179.838 128.117H187.432C187.75 128.117 187.927 127.94 188.016 127.834C188.104 127.728 188.228 127.498 188.14 127.197C187.839 126.046 188.511 124.86 189.662 124.559C190.813 124.258 191.981 124.931 192.299 126.082C192.706 127.604 192.388 129.197 191.432 130.454C190.476 131.71 189.007 132.418 187.432 132.418V132.436Z" fill="#1F2677"/>
<path d="M116.559 160.828L120.435 152.491C121.869 149.411 124.949 147.446 128.347 147.446H166.191C170.563 147.446 174.263 150.668 174.847 155.004V155.093C175.271 158.12 172.917 160.828 169.855 160.828H116.576H116.559Z" fill="#1F2677"/>
<path d="M80.0421 156.934H122.081C123.161 156.934 124.028 157.801 124.028 158.881C124.028 159.961 123.161 160.828 122.081 160.828H80.0421C78.9624 160.828 78.095 159.961 78.095 158.881C78.095 157.801 78.9624 156.934 80.0421 156.934Z" fill="#1F2677"/>
<path d="M126.011 217.912L130.241 206C136.224 189.131 124.86 170.386 104.929 173.254C85.0691 176.104 58.9784 191.096 51.8451 217.912H126.011Z" fill="#0F43A9"/>
<path d="M105.867 82.0248C104.965 80.945 103.354 80.8034 102.274 81.7062L65.032 112.824C63.9523 113.727 63.8106 115.337 64.7134 116.417L66.5542 118.612L107.708 84.2197L105.867 82.0248Z" fill="#FF5C5B"/>
<path d="M126.719 144.313L119.037 107.62L66.5366 118.612L74.2186 155.306C74.5018 156.686 75.8648 157.571 77.2454 157.288L124.754 147.34C126.135 147.057 127.02 145.694 126.736 144.313H126.719Z" fill="#FF5C5B"/>
<path d="M66.5366 119.373C66.9569 119.373 67.2977 119.032 67.2977 118.612C67.2977 118.192 66.9569 117.851 66.5366 117.851C66.1162 117.851 65.7755 118.192 65.7755 118.612C65.7755 119.032 66.1162 119.373 66.5366 119.373Z" fill="#FF5C5B"/>
<path d="M113.567 201.628H72.3246C71.4927 201.628 70.8024 200.955 70.8024 200.106C70.8024 199.274 71.475 198.583 72.3246 198.583H113.567C114.399 198.583 115.089 199.256 115.089 200.106C115.089 200.937 114.417 201.628 113.567 201.628Z" fill="#1F2677"/>
<path d="M113.567 207.044H72.3246C71.4927 207.044 70.8024 206.371 70.8024 205.522C70.8024 204.69 71.475 204 72.3246 204H113.567C114.399 204 115.089 204.672 115.089 205.522C115.089 206.354 114.417 207.044 113.567 207.044Z" fill="#1F2677"/>
<path d="M113.567 212.461H72.3246C71.4927 212.461 70.8024 211.788 70.8024 210.938C70.8024 210.106 71.475 209.416 72.3246 209.416H113.567C114.399 209.416 115.089 210.089 115.089 210.938C115.089 211.77 114.417 212.461 113.567 212.461Z" fill="#1F2677"/>
<path d="M171.981 104.736L108.841 94.4644L107.361 103.567L170.501 113.838L171.981 104.736Z" fill="#EF8216"/>
<path d="M167.395 110.452L171.961 104.752L108.823 94.4683L111.354 101.336C111.779 102.487 112.788 103.336 114.01 103.531L164.173 111.691C165.394 111.886 166.616 111.425 167.395 110.452Z" fill="#FDB527"/>
<path d="M141.746 104.487C141.552 105.637 140.472 106.416 139.339 106.222C138.189 106.027 137.41 104.947 137.605 103.814C137.799 102.664 138.879 101.885 140.012 102.08C141.162 102.274 141.941 103.354 141.746 104.487Z" fill="#EF8216"/>
<path d="M152.562 183.661L173.997 146.172C175.661 143.251 179.803 140.49 182.9 140.26C190.052 139.764 196.548 140.667 201.964 143.039C207.699 145.552 212.071 149.676 214.726 155.252C215.947 157.836 212.903 162.12 208.407 164.297L158.332 188.564C153.022 191.131 149.889 188.334 152.562 183.661Z" fill="#FDB527"/>
<path d="M174.44 145.481C172.315 145.481 171.413 143.463 173.696 141.463C176.156 139.304 179.767 138.861 182.157 138.755C189.945 138.383 197.238 139.764 203.292 142.384C209.77 145.18 214.762 149.818 217.859 156.119C218.603 157.642 218.036 159.677 216.602 161.66C214.602 164.386 210.266 165.536 208.938 163.801C204.548 158.049 192.105 145.428 174.422 145.481H174.44Z" fill="#EF8216"/>
<path d="M192.866 156.721C196.742 156.261 198.583 158.721 196.848 162.261C195.096 165.872 190.388 169.129 186.441 169.466C182.564 169.802 180.989 167.182 182.812 163.695C184.6 160.261 189.06 157.164 192.866 156.721Z" fill="#FF5C5B"/>
<path d="M180.511 152.685C183.538 152.278 184.83 154.19 183.343 156.987C181.838 159.837 178.068 162.439 175.006 162.775C171.997 163.111 170.846 161.093 172.404 158.314C173.926 155.588 177.537 153.075 180.511 152.668V152.685Z" fill="#FF5C5B"/>
<path d="M169.979 167.536C173.342 167.218 174.67 169.607 172.882 172.935C171.059 176.316 166.775 179.289 163.377 179.52C160.049 179.75 158.898 177.219 160.757 173.926C162.58 170.687 166.669 167.855 169.961 167.536H169.979Z" fill="#FF5C5B"/>
<path d="M175.502 174.245C172.687 172.209 176.617 168.297 177.431 165.395C177.431 165.395 183.361 167.076 175.502 174.245Z" fill="#35C5A7"/>
<path d="M190.777 153.447C190.175 156.243 186.706 157.553 184.6 159.5C184.6 159.5 184.476 155.5 190.777 153.447Z" fill="#35C5A7"/>
<path d="M165.395 164.368C168.917 162.616 169.236 164.757 171.006 165.094C171.006 165.094 165.43 168.669 165.395 164.368Z" fill="#35C5A7"/>
<path d="M155.394 181.998C159.022 180.228 159.252 182.653 161.04 183.148C161.04 183.148 155.234 186.848 155.394 181.998Z" fill="#35C5A7"/>
<path d="M179.891 148.349C178.935 152.031 174.386 153.801 171.519 156.42C171.519 156.42 171.643 151.146 179.891 148.349Z" fill="#35C5A7"/>
<path d="M183.52 164.35C184.175 162.509 182.954 161.447 180.794 161.943C178.67 162.438 176.404 164.315 175.714 166.12L174.758 166.333C175.626 164.067 178.44 161.748 181.095 161.111C183.768 160.474 185.325 161.801 184.511 164.102L183.52 164.332V164.35Z" fill="#BBDFFD"/>
<path d="M176.776 155.872C177.502 157.146 180.051 156.881 182.44 155.252C184.847 153.624 186.14 151.287 185.343 150.048L186.405 149.323C187.414 150.862 185.803 153.801 182.776 155.836C179.767 157.872 176.599 158.208 175.696 156.597L176.758 155.872H176.776Z" fill="#BBDFFD"/>
<path d="M168.492 166.209C166.032 167.625 164.244 170.067 164.527 171.714C164.81 173.395 167.094 173.608 169.643 172.156L169.784 172.917C166.598 174.723 163.748 174.44 163.394 172.333C163.058 170.28 165.271 167.218 168.35 165.465L168.492 166.191V166.209Z" fill="#BBDFFD"/>
<path d="M7.23956 210.708C15.3995 215.806 26.9403 211.522 32.4098 203.61C37.8793 195.698 38.5519 185.396 37.6138 175.803C37.2598 172.192 36.6757 168.474 34.7109 165.412C32.7461 162.35 29.0998 160.12 25.542 160.828C20.1256 161.925 18.0192 169.129 19.984 174.316C22.8338 181.803 32.3036 185.998 39.7733 183.077C48.2165 179.767 51.8982 170.014 54.0931 161.217C56.2879 152.42 58.5359 142.632 65.9702 137.445" stroke="#2E79E9" stroke-width="1.32755" stroke-miterlimit="10"/>
<path d="M90.0253 133.728L236.71 132.843C237.843 132.843 237.896 134.595 236.71 134.613C236.71 134.613 90.0253 133.728 90.0076 133.728H90.0253Z" fill="#BBDFFD"/>
<path d="M187.68 164.917L236.71 164.031C237.861 164.031 237.896 165.784 236.746 165.802C236.746 165.802 187.697 164.917 187.68 164.917Z" fill="#BBDFFD"/>
<path d="M78.0951 145.711L221.93 144.826C223.063 144.826 223.116 146.579 221.93 146.596C221.93 146.596 78.0951 145.711 78.0774 145.711H78.0951Z" fill="#BBDFFD"/>
<path d="M141.109 141.693L249.242 140.808C250.393 140.808 250.428 142.561 249.242 142.578L141.092 141.693H141.109Z" fill="#BBDFFD"/>
</g>
<defs>
<clipPath id="clip0_29_2817">
<rect width="315" height="252.853" fill="white"/>
</clipPath>
</defs>
</svg>
