<svg width="379" height="304" viewBox="0 0 379 304" fill="none" xmlns="http://www.w3.org/2000/svg">
<g clip-path="url(#clip0_29_2746)">
<path d="M350.662 294.908C350.662 299.925 277.76 304 187.827 304C97.8943 304 24.9918 299.925 24.9918 294.908C24.9918 289.891 97.8943 285.816 187.827 285.816C277.76 285.816 350.662 289.891 350.662 294.908Z" fill="#E4EAF8"/>
<path opacity="0.5" d="M552.472 -45.3374C507.574 -17.694 458.566 1.36732 403.369 4.93568C267.094 13.7888 164.786 -100.399 169.529 -223.529H-173.756V14.7825C-127.864 18.7574 -80.301 44.2779 -44.8433 75.9414C63.5172 172.739 138.136 346.007 459.198 163.569C489.687 146.224 520.763 128.021 552.472 111.354V-45.3374Z" fill="url(#paint0_linear_29_2746)"/>
<path d="M279.173 264.593C283.107 262.449 289.938 270.317 293.989 273.567C298.041 276.818 305.107 278.608 311.278 278.608C317.45 278.608 321.266 278.49 322.491 282.306C322.491 282.306 324.281 281.976 324.964 285.227C325.647 288.477 319.688 294.884 305.225 294.884H252.038L247.256 270.505L279.197 264.569L279.173 264.593Z" fill="#FF5C5B"/>
<path d="M107.787 290.479H125.807C130.989 290.479 168.653 283.413 198.403 245.466L245.89 274.933L266.1 255.006L211.146 196.189C202.478 186.908 187.945 186.367 178.594 194.941L137.302 232.841L107.787 290.456V290.479Z" fill="#1F2677"/>
<path d="M266.077 255.006C270.411 260.541 279.15 264.569 279.15 264.569C279.15 264.569 261.318 273.803 250.719 270.128L266.077 254.982V255.006Z" fill="#FFCAC5"/>
<path d="M178.146 205.729C178.146 205.729 145.64 207.119 145.64 205.729V174.942L155.698 157.394L158.478 152.542C161.234 157.488 167.617 175.202 172.375 188.84C175.649 198.238 178.17 205.705 178.17 205.705L178.146 205.729Z" fill="#FF5C5B"/>
<path d="M171.598 186.673C162.458 186.673 150.752 180.172 154.638 170.679L155.675 157.394L158.454 152.542C161.21 157.488 166.84 173.035 171.598 186.673Z" fill="#FF6C6B"/>
<path d="M212.701 215.245C212.701 215.245 192.138 230.132 192.255 229.779C192.373 229.425 175.578 212.159 175.578 212.159L203.538 200.358L212.725 215.245H212.701Z" fill="#FF5C5B"/>
<path d="M220.875 210.817C219.768 210.817 215.151 215.763 209.356 215.763C203.562 215.763 200.288 210.275 201.089 203.632C202.172 194.469 217.648 189.287 217.648 189.287L220.875 210.793V210.817Z" fill="#FFCAC5"/>
<path d="M209.804 150.987L180.007 204.551C179.701 205.093 180.101 205.729 180.713 205.729H208.862C210.44 205.729 211.877 204.904 212.678 203.538L239.813 157.3C240.779 155.674 239.813 153.578 237.976 153.225L214.609 148.749C212.701 148.372 210.77 149.291 209.827 150.987H209.804Z" fill="#35C5A7"/>
<path d="M160.291 158.76C160.291 161.304 159.137 163.447 158.266 164.743C158.266 164.743 158.266 164.79 158.219 164.814C136.925 197.673 141.848 222.665 146.889 234.937C148.537 238.941 145.522 243.322 141.188 243.322H84.6329C68.9453 243.322 62.4442 254.888 62.0202 268.997C61.6904 280.822 67.1551 286.239 69.864 289.066C58.0629 281.411 53.5168 258.868 52.292 239.813V239.671C49.9836 203.02 59.4762 164.413 71.2537 152.942C71.2537 152.942 86.2111 138.927 119.023 138.927C144.25 138.927 160.291 147.807 160.291 158.76Z" fill="#FF6C6B"/>
<path d="M147.572 185.636C117.421 189.311 103.359 176.096 99.237 165.921L95.633 157.04C62.6797 175.978 52.3155 220.945 52.2684 239.671V239.812C53.4933 258.868 57.9452 282.517 69.8404 289.066C67.2965 286.428 61.6668 280.821 61.9966 268.997C62.4206 254.887 68.9453 243.322 84.6093 243.322H141.141C145.499 243.322 148.514 238.917 146.865 234.913C142.955 225.373 139.139 208.202 147.548 185.66L147.572 185.636Z" fill="#FF5C5B"/>
<path d="M134.805 140.246C137.16 144.603 132.473 157.936 119.871 154.638C112.993 152.848 108.847 148.655 106.492 145.216C106.445 145.216 106.421 145.169 106.445 145.145C106.115 144.674 105.832 144.227 105.573 143.803C105.455 143.614 105.385 143.379 105.291 143.19C104.537 141.376 104.961 139.257 106.351 137.796C113.676 130.047 121.614 111.509 121.614 111.509L137.514 130.423C134.993 130.423 133.533 133.085 133.674 136.171C133.721 137.513 134.075 138.95 134.781 140.246H134.805Z" fill="#FFE1CB"/>
<path d="M137.537 130.423C135.017 130.423 133.556 133.085 133.698 136.171C129.434 134.334 115.325 129.74 117.445 139.633C119.612 149.786 110.59 150.469 106.515 145.216C106.468 145.216 106.445 145.169 106.468 145.145C106.139 144.745 105.856 144.274 105.597 143.803C105.479 143.614 105.408 143.379 105.314 143.19C104.56 141.376 104.984 139.257 106.374 137.796C113.7 130.047 121.638 111.509 121.638 111.509L137.537 130.423Z" fill="#FFCAC5"/>
<path d="M115.537 117.28C115.937 116.668 116.856 116.291 117.209 115.631C117.94 114.312 117.468 112.687 116.809 111.321C116.149 109.954 115.278 108.612 115.207 107.128C115.137 105.644 116.291 103.971 117.892 104.042C116.62 103.406 116.102 101.922 116.244 100.603C116.385 99.284 117.092 98.0827 117.775 96.9285C118.458 95.7744 119.164 94.573 119.329 93.254C119.518 91.8171 119.023 90.3567 119.282 88.9199C119.541 87.4595 120.648 86.1404 122.109 85.528C123.569 84.9155 125.383 85.0333 126.749 85.8106C129.387 82.7956 134.075 81.4765 138.103 82.5836C140.175 83.1489 142.036 84.3031 144.086 84.9155C145.734 85.4102 147.501 85.5751 149.197 85.9755C150.893 86.3759 152.589 87.0355 153.672 88.331C154.732 89.603 154.968 91.6051 153.767 92.7593C154.85 91.8171 156.782 92.7122 157.206 94.0077C157.795 95.7744 156.994 99.0485 152.4 101.168C151.906 102.935 150.54 103.595 148.82 104.443C147.077 105.291 144.957 105.432 143.096 104.819C141.518 104.301 139.775 103.241 138.315 104.019C137.302 104.56 136.972 105.785 137.043 106.869C137.113 107.952 137.49 109.012 137.49 110.096C137.49 111.721 136.501 113.299 135.04 114.147C133.556 114.995 131.601 115.089 130 114.406C128.963 113.959 128.115 113.205 127.15 112.593C126.184 111.98 125.053 111.509 123.923 111.745C122.698 112.004 121.873 112.993 121.119 113.912C120.059 115.231 118.081 120.083 117.563 120.059C116.927 120.036 114.501 118.835 115.49 117.28H115.537Z" fill="#844635"/>
<path d="M125.501 108.776C125.501 108.776 123.428 102.794 120.036 103.571C114.618 104.819 118.552 115.348 123.687 115.584C123.687 115.584 123.499 123.593 131.484 128.516C139.469 133.438 147.901 128.751 150.822 116.408C153.743 104.065 152.259 100.532 152.259 100.532C152.259 100.532 149.268 102.652 141.683 98.2003C133.462 93.3715 131.578 100.909 132.167 105.714C132.991 112.31 125.477 108.8 125.477 108.8L125.501 108.776Z" fill="#FFE1CB"/>
<path d="M215.905 194.493L215.763 194.54C214.986 194.823 214.138 194.493 213.738 193.763C213.361 193.033 213.573 192.138 214.256 191.667L222.476 185.919C223.513 185.189 224.926 185.472 225.633 186.508L226.198 187.356C226.834 188.298 226.669 189.594 225.774 190.324L223.419 192.302V193.881L225.633 194.846C225.963 194.988 226.175 195.318 226.175 195.694V197.225C226.175 197.437 226.104 197.649 225.939 197.814L225.374 198.45C225.02 198.851 225.115 199.44 225.539 199.746L225.845 199.958C226.175 200.193 226.387 200.57 226.387 200.994V202.502C226.387 202.973 226.127 203.397 225.727 203.609L224.243 204.41L224.573 204.504C224.973 204.622 225.256 204.999 225.256 205.423V207.684C225.256 207.943 225.162 208.179 224.973 208.367L223.772 209.568C222.995 210.369 221.911 210.793 220.804 210.793H212.607C211.429 210.793 210.346 210.134 209.804 209.074L209.427 208.296L207.071 209.215C206.012 209.639 204.81 209.121 204.363 208.061C203.962 207.119 204.316 206.035 205.187 205.493L209.898 202.62L209.003 203.02C207.99 203.468 206.812 203.02 206.341 202.031L206.294 201.936C205.87 201.041 206.224 199.958 207.071 199.463L215.81 194.493H215.905Z" fill="#FFE1CB"/>
<path d="M225.798 190.324L220.733 193.315L223.442 193.904V192.326L225.798 190.324Z" fill="#FFCAC5"/>
<path d="M195.482 265.417L213.926 277.595C213.926 277.595 222.547 281.316 232.464 262.213L220.144 249.282L195.482 265.44V265.417Z" fill="#FFE1CB"/>
<path d="M68.6627 249.635C64.305 254.346 62.2557 261.295 62.0202 268.997C61.9731 270.599 62.0202 272.248 62.1851 273.873C63.245 285.792 73.2794 294.908 85.2454 294.908H107.787C129.811 294.908 136.265 273.449 148.655 238.729L195.482 265.393L225.821 247.162L169.313 193.268C155.887 180.454 134.617 180.925 121.756 194.305L68.6627 249.588V249.635Z" fill="#0F43A9"/>
<path d="M148.655 238.729L137.302 232.864C137.302 232.864 146.488 244.806 141.707 258.068L148.655 238.753V238.729Z" fill="#1F2677"/>
<path d="M220.074 274.603C215.292 277.241 211.618 276.04 211.618 276.04L201.984 269.68C201.984 269.68 199.228 275.946 200.547 288.665C200.547 288.665 197.602 288.901 201.442 294.884H283.201C285.627 288.665 283.154 289.019 283.154 289.019C282.73 287.276 280.775 283.86 279.126 283.201C279.126 283.201 251.025 275.969 248.787 272.624C245.301 267.419 237.599 259.905 234.513 258.892C229.731 257.314 228.907 268.385 220.074 274.58V274.603Z" fill="#FF6C6B"/>
<path d="M195.482 265.417L224.596 253.946L220.945 250.106L195.482 265.417Z" fill="#FFCAC5"/>
<path d="M194.729 205.069L192.679 203.279H185.071L189.641 200.358L190.489 201.512L190.583 203.255H192.679L193.904 200.547C193.975 200.405 193.998 200.264 193.998 200.123V198.356C193.998 198.05 193.881 197.767 193.645 197.579L190.159 194.517C189.499 193.928 188.557 193.786 187.756 194.14L182.527 196.377L180.054 193.904C179.253 193.103 178.005 192.938 177.015 193.527L171.763 196.707C170.632 197.39 169.666 198.309 168.912 199.392L165.78 204.009H156.381C160.386 204.009 163.895 225.585 156.381 225.585H172.799C176.403 225.585 181.915 221.487 184.459 219.414C185.33 218.707 185.848 217.647 185.848 216.493V214.161H190.183C191.148 214.161 191.926 213.384 191.926 212.418V210.958C191.926 210.063 191.242 209.309 190.347 209.215L187.921 208.956H191.926L193.551 208.791C194.658 208.673 195.482 207.754 195.482 206.647C195.482 206.035 195.223 205.446 194.752 205.022L194.729 205.069Z" fill="#FFE1CB"/>
<path d="M182.504 196.377L173.765 200.052L180.03 193.904L182.504 196.377Z" fill="#FFCAC5"/>
<path d="M156.334 204.033L113.7 201.677L95.633 157.064C93.678 151.505 88.4252 147.783 82.5365 147.783C73.091 147.783 66.4249 156.993 69.3457 165.968L86.8235 212.819C89.6972 220.498 97.0228 225.609 105.243 225.609H156.334C163.848 225.609 160.338 204.033 156.334 204.033Z" fill="#FF6C6B"/>
<path d="M236.185 57.7098C236.185 57.7098 236.115 57.7098 236.091 57.7098C234.772 52.1979 230.367 48.1465 225.115 48.1465C219.438 48.1465 214.75 52.881 213.879 59.076C210.44 55.1423 205.658 52.6926 200.382 52.6926C189.853 52.6926 181.326 62.3972 181.326 74.3867C181.326 79.2626 182.763 83.7615 185.142 87.389C178.429 92.1942 174.071 99.7554 174.071 108.282C174.071 122.816 186.673 134.617 202.219 134.617C205.752 134.617 209.144 133.981 212.277 132.874C218.755 139.045 227.093 142.767 236.185 142.767C256.796 142.767 273.52 123.734 273.52 100.274C273.52 76.8128 256.82 57.7569 236.209 57.7569L236.185 57.7098Z" fill="#96BCF4"/>
<path d="M236.185 55.5897C236.185 55.5897 236.115 55.5897 236.091 55.5897C234.772 50.0778 230.367 46.0264 225.115 46.0264C219.438 46.0264 214.75 50.7609 213.879 56.9559C210.44 53.0222 205.658 50.5725 200.382 50.5725C189.853 50.5725 181.326 60.2771 181.326 72.2666C181.326 77.1424 182.763 81.6414 185.142 85.2689C178.429 90.0741 174.071 97.6352 174.071 106.162C174.071 120.696 186.673 132.497 202.219 132.497C205.776 132.497 209.144 131.861 212.277 130.753C218.755 136.925 227.093 140.647 236.185 140.647C256.796 140.647 273.52 121.614 273.52 98.1534C273.52 74.6692 256.82 55.6368 236.209 55.6368L236.185 55.5897Z" fill="#E4EAF8"/>
<path d="M262.127 88.5761L192 99.9798L198.734 82.6075C199.403 80.8736 200.783 79.6732 202.373 79.4064L247.53 72.054C249.119 71.7873 250.709 72.5209 251.754 73.9713L262.127 88.5594V88.5761Z" fill="#FDB527"/>
<g style="mix-blend-mode:multiply" opacity="0.25">
<path d="M232.529 104.731L224.136 106.098C218.991 106.932 214.265 102.631 213.568 96.4786L240.573 92.0771C241.27 98.2291 237.673 103.881 232.529 104.715V104.731Z" fill="#FDB527"/>
</g>
<path d="M196.433 98.9128C214.46 95.9118 239.737 91.5437 257.526 88.8762C258 88.7928 258.126 89.7098 257.624 89.7932C239.974 92.8942 214.446 96.7788 196.503 99.6297C196.141 99.6964 196.029 98.9795 196.419 98.9128H196.433Z" fill="#0F43A9"/>
<g style="mix-blend-mode:multiply" opacity="0.25">
<path d="M262.127 88.576L255.937 111.683C255.379 113.751 253.888 115.251 252.103 115.535L207.698 122.754C205.914 123.037 204.129 122.07 203.139 120.27L203.098 120.203C231.302 114.834 244.923 106.198 247.851 93.9944C249.022 89.1262 247.391 81.8071 245.801 78.8228C244.282 75.9886 243.808 74.0046 243.975 72.6542L247.544 72.0706C249.133 71.8039 250.723 72.5375 251.768 73.9879L262.141 88.576H262.127Z" fill="#FDB527"/>
</g>
<path d="M168.441 99.449C167.947 101.263 166.062 102.346 164.201 101.852C162.364 101.357 161.281 99.4726 161.775 97.6588C162.27 95.8451 164.154 94.7616 166.015 95.2562C167.876 95.7509 168.936 97.6353 168.441 99.449Z" fill="#96BCF4"/>
<path d="M176.191 92.3827C175.579 94.5969 173.294 95.9159 171.056 95.3035C168.818 94.7146 167.499 92.4298 168.112 90.2156C168.724 88.0015 171.009 86.6824 173.247 87.2948C175.484 87.8837 176.803 90.1685 176.191 92.3827Z" fill="#96BCF4"/>
<path d="M188.345 87.5773C187.639 90.1919 184.93 91.723 182.292 91.0163C179.654 90.3097 178.099 87.6244 178.806 85.0333C179.512 82.4187 182.221 80.8877 184.859 81.5943C187.497 82.301 189.052 84.9862 188.345 87.5773Z" fill="#96BCF4"/>
<path d="M168.441 97.3289C167.947 99.1426 166.062 100.226 164.201 99.7315C162.341 99.2369 161.281 97.3525 161.775 95.5387C162.27 93.725 164.154 92.6415 166.015 93.1361C167.876 93.6308 168.936 95.5152 168.441 97.3289Z" fill="#E4EAF8"/>
<path d="M176.191 90.2389C175.579 92.4531 173.294 93.7721 171.056 93.1597C168.818 92.5473 167.499 90.286 168.112 88.0718C168.724 85.8577 171.009 84.5386 173.247 85.151C175.484 85.7399 176.803 88.0247 176.191 90.2389Z" fill="#E4EAF8"/>
<path d="M188.345 85.4338C187.639 88.0484 184.93 89.5795 182.292 88.8729C179.654 88.1662 178.099 85.481 178.806 82.8899C179.512 80.2989 182.221 78.7442 184.859 79.4509C187.497 80.1575 189.052 82.8428 188.345 85.4338Z" fill="#E4EAF8"/>
<path d="M272.059 143.567C291.115 157.959 306.897 177.156 317.662 199.11C321.478 206.883 324.752 215.363 324.163 224.101C323.574 232.84 318.109 241.721 309.959 243.369C299.595 245.466 290.362 234.159 290.527 223.065C290.856 199.911 319.428 179.041 375.583 193.574" stroke="#2E79E9" stroke-width="1.76662" stroke-miterlimit="10"/>
</g>
<defs>
<linearGradient id="paint0_linear_29_2746" x1="169.213" y1="154.445" x2="231.049" y2="-491.698" gradientUnits="userSpaceOnUse">
<stop offset="0.03" stop-color="#E4EAF8" stop-opacity="0"/>
<stop offset="0.13" stop-color="#DEE8F8" stop-opacity="0.13"/>
<stop offset="0.37" stop-color="#D2E5FA" stop-opacity="0.44"/>
<stop offset="0.59" stop-color="#C8E2FB" stop-opacity="0.68"/>
<stop offset="0.77" stop-color="#C1E0FC" stop-opacity="0.85"/>
<stop offset="0.92" stop-color="#BCDFFC" stop-opacity="0.96"/>
<stop offset="1" stop-color="#BBDFFD"/>
</linearGradient>
<clipPath id="clip0_29_2746">
<rect width="378.716" height="304" fill="white"/>
</clipPath>
</defs>
</svg>
