<svg width="365" height="317" viewBox="0 0 365 317" fill="none" xmlns="http://www.w3.org/2000/svg">
<g clip-path="url(#clip0_33_136)">
<path d="M339.424 307.524C339.424 312.762 269.156 317.022 182.5 317.022C95.8443 317.022 25.5762 312.784 25.5762 307.524C25.5762 302.265 95.8443 298.027 182.5 298.027C269.156 298.027 339.424 302.265 339.424 307.524Z" fill="#E4EAF8"/>
<path d="M135.367 161.662C134.301 157.379 115.985 165.723 105.853 181.39C104.171 184.009 100.48 181.457 102.018 178.749C102.531 177.84 103.166 176.819 103.946 175.554C111.37 162.994 122.61 158.178 125.748 155.893C134.444 149.923 115.411 149.879 104.356 166.766C102.92 168.963 99.7207 167.521 100.233 164.88C100.787 162.106 102.018 161.352 104.684 158.822C112.663 151.033 120.415 149.524 123.205 147.837C125.379 146.683 125.482 144.42 122.61 143.976C103.905 142.001 98.0388 170.428 102.367 150.189C102.613 149.013 110.037 144.198 117.585 140.869C120.867 138.472 117.175 135.388 111.555 137.563C109.402 138.384 107.535 135.765 108.909 133.79C112.191 129.019 115.308 125.646 113.114 123.493C109.771 120.12 103.966 131.66 103.884 136.941C103.884 137.274 103.843 137.563 103.72 137.873C103.72 137.873 103.72 137.918 103.7 137.918C102.92 139.937 100.398 140.226 99.2489 138.428C95.0649 131.86 88.4195 132.237 90.7987 136.608C90.9013 136.808 100.48 147.926 100.09 149.612C97.0749 162.55 101.279 155.027 93.1574 144.886C90.9628 142.112 85.4456 136.919 83.8253 139.649C82.6767 141.579 85.3635 143.599 89.2194 148.458C95.0649 155.782 96.8698 161.418 97.3415 166.278C97.5876 168.808 94.4496 169.939 93.1779 167.809C84.6662 153.629 70.8013 146.328 69.4066 149.546C68.5041 151.632 72.8113 153.807 79.8053 159.865C89.8142 168.519 94.9213 178.461 97.1774 182.034C97.403 182.411 97.5466 182.855 97.5876 183.299C98.3875 195.792 100.049 194.438 95.5981 187.781C80.0719 164.17 57.7978 162.039 66.9659 169.141C70.4731 172.092 85.9993 180.502 95.0444 193.218C96.6031 195.415 94.1419 198.3 91.9883 196.791C77.7132 186.783 62.3921 192.042 83.0664 201.118C93.5061 205.667 99.29 211.548 102.223 213.367C102.715 213.678 103.084 214.211 103.248 214.788C107.289 228.923 107.474 222.177 98.2234 216.674C80.7692 206.155 67.2735 217.606 76.7902 219.781C79.8668 220.58 87.1069 220.047 95.1264 223.575C102.715 226.882 107.125 232.186 109.34 233.828C109.689 234.094 109.976 234.471 110.14 234.915C114.857 246.743 115.103 243.592 109.176 240.108C86.5531 226.438 66.33 242.393 78.5951 243.459C82.8613 244.058 93.2395 241.417 107.125 245.567C118.529 248.807 114.262 246.21 125.707 268.535C141.685 299.358 115.062 246.543 106.51 217.739C106.304 217.051 106.387 216.341 106.756 215.72C108.663 212.458 111.863 205.556 118.098 198.877C125.605 190.733 133.255 187.271 136.249 184.674C144.515 177.884 127.368 174.355 112.827 193.751C102.264 207.731 105.976 222.621 101.956 198.233C101.874 197.767 101.915 197.257 102.079 196.835C110.181 174.134 136.27 164.946 135.47 161.707L135.367 161.662Z" fill="#35C5A7"/>
<path d="M258.531 184.342C259.783 181.102 273.36 189.756 279.78 203.226C280.847 205.468 283.985 203.892 283.041 201.584C282.733 200.83 282.344 199.942 281.852 198.855C277.257 188.136 268.889 183.054 266.653 180.924C260.418 175.243 275.37 177.396 282.385 191.931C283.308 193.839 285.954 193.063 285.81 190.91C285.646 188.669 284.764 187.937 282.918 185.651C277.421 178.616 271.473 176.53 269.463 174.888C267.864 173.734 268.028 171.959 270.304 171.915C285.195 172.514 287 195.504 285.605 179.104C285.523 178.15 280.17 173.512 274.57 170.028C272.232 167.765 275.432 165.79 279.636 168.12C281.257 169.008 282.959 167.166 282.077 165.457C279.965 161.329 277.852 158.334 279.78 156.891C282.733 154.628 286.159 164.347 285.707 168.519C285.687 168.786 285.687 169.008 285.748 169.274C285.748 169.274 285.748 169.296 285.748 169.318C286.159 170.983 288.107 171.515 289.194 170.228C293.132 165.546 298.301 166.611 296.004 169.762C295.901 169.917 287.307 177.529 287.43 178.905C288.538 189.401 285.954 183.032 293.337 175.976C295.327 174.045 300.167 170.605 301.172 172.935C301.869 174.577 299.572 175.842 296.065 179.238C290.773 184.319 288.784 188.536 287.943 192.308C287.492 194.283 289.851 195.526 291.061 193.995C299.142 183.853 310.75 179.704 311.509 182.389C312.022 184.142 308.412 185.34 302.341 189.312C293.624 194.949 288.64 202.183 286.528 204.735C286.302 205.002 286.159 205.334 286.097 205.667C284.231 215.387 283.062 214.144 287.225 209.418C301.726 192.663 319.447 193.551 311.55 198.056C308.494 199.964 295.491 204.802 287.143 213.723C285.687 215.276 287.348 217.806 289.194 216.874C301.377 210.66 312.904 216.541 295.778 221.29C287.143 223.664 282.016 227.614 279.534 228.724C279.103 228.924 278.775 229.279 278.59 229.722C274.037 240.374 274.55 235.026 282.344 231.786C297.091 225.528 306.546 236.069 298.875 236.69C296.373 236.957 290.753 235.714 284.108 237.556C277.811 239.265 273.832 242.948 271.925 243.969C271.617 244.124 271.371 244.413 271.186 244.724C266.325 253.467 266.428 250.959 271.432 248.918C290.548 240.774 304.864 255.642 295.122 255.065C291.717 255.065 283.82 251.78 272.519 253.445C263.249 254.687 266.859 253.134 255.66 269.334C240.093 291.702 266.161 253.289 275.719 231.653C275.945 231.143 275.945 230.566 275.719 230.055C274.529 227.281 272.704 221.49 268.458 215.52C263.351 208.264 257.69 204.669 255.598 202.294C249.774 196.014 263.597 195.193 273.114 212.125C280.047 224.33 275.657 235.581 281.216 216.896C281.318 216.541 281.339 216.141 281.257 215.786C277.134 197.035 257.526 186.805 258.49 184.364L258.531 184.342Z" fill="#35C5A7"/>
<path d="M40.0975 238.599C40.6102 241.55 41.9434 243.636 43.7483 245.012C45.5327 246.299 47.8503 247.231 50.5372 247.608C55.9109 248.54 63.0894 248.585 71.2115 249.85C79.313 250.981 88.1324 253.822 95.5571 257.927C102.92 262.077 108.581 267.58 111.022 271.619C96.1724 246.787 66.9864 233.206 40.118 238.599H40.0975Z" fill="#35C5A7"/>
<path d="M40.0975 238.599C39.5847 235.647 40.2205 233.251 41.9434 231.32C43.6663 229.301 46.4762 228.08 50.0244 227.281C57.1415 225.861 67.171 227.814 76.3596 232.674C85.6507 237.378 93.7933 245.212 99.5156 252.69C105.258 260.324 108.54 267.603 111.001 271.597C96.1519 246.765 66.9659 233.184 40.0975 238.577V238.599Z" fill="#72D6C1"/>
<path d="M49.0399 269.688C51.3166 273.328 54.5572 273.505 58.3926 272.374C62.269 271.242 67.0684 268.867 72.7702 266.892C78.4311 264.829 84.9738 263.497 91.0243 263.342C97.0338 263.231 102.387 264.473 105.279 266.005C87.6607 256.507 65.4686 257.949 49.0399 269.688Z" fill="#35C5A7"/>
<path d="M49.0399 269.688C46.8043 266.16 48.2811 262.343 52.5472 259.148C56.7928 255.996 63.7458 253.999 71.0474 253.977C78.3696 253.844 85.8968 255.908 91.8858 258.526C97.9158 261.211 102.387 264.473 105.279 265.982C87.6607 256.485 65.4686 257.927 49.0399 269.666V269.688Z" fill="#72D6C1"/>
<path d="M285.954 279.541H79.0464C71.9088 279.541 66.1249 285.799 66.1249 293.522C66.1249 301.244 71.9088 307.502 79.0464 307.502H285.954C293.091 307.502 298.875 301.244 298.875 293.522C298.875 285.799 293.091 279.541 285.954 279.541Z" fill="#1F2677"/>
<path d="M283.062 282.226H81.9383C78.3695 282.226 75.4776 285.355 75.4776 289.217C75.4776 293.078 78.3695 296.207 81.9383 296.207H283.062C286.63 296.207 289.522 293.078 289.522 289.217C289.522 285.355 286.63 282.226 283.062 282.226Z" fill="#0F43A9"/>
<path d="M190.253 171.693C190.253 176.286 186.807 179.992 182.582 179.992C178.357 179.992 174.911 176.264 174.911 171.693C174.911 167.121 178.357 163.393 182.582 163.393C186.807 163.393 190.253 167.121 190.253 171.693Z" fill="#1F2677"/>
<path d="M282.241 279.541H82.9023C82.9023 249.916 93.9368 223.087 111.822 203.581C129.871 183.876 154.914 171.693 182.561 171.693C235.745 171.693 279.206 216.785 282.098 273.55C282.2 275.525 282.241 277.522 282.241 279.541Z" fill="#0F43A9"/>
<path d="M282.241 279.541H82.9023C82.9023 249.916 93.9368 223.087 111.822 203.581C97.2594 223.775 114.344 273.55 177.639 273.55H282.098C282.2 275.525 282.241 277.522 282.241 279.541Z" fill="#1F2677"/>
<path d="M253.178 229.367C249.589 235.204 234.534 231.165 219.562 220.358C204.589 209.551 195.38 196.058 198.97 190.222C202.559 184.386 217.613 188.425 232.586 199.232C247.558 210.039 256.767 223.531 253.178 229.367Z" fill="#2E79E9"/>
<path d="M182.582 152.764L180.531 118.123C180.449 116.903 181.31 115.838 182.459 115.771C183.69 115.682 184.736 116.814 184.633 118.123L182.582 152.764Z" fill="#FDB527"/>
<path d="M156.39 158.445L141.192 140.736C140.413 139.826 140.475 138.428 141.295 137.585C142.218 136.631 143.756 136.853 144.433 138.029L156.39 158.445Z" fill="#FDB527"/>
<path d="M208.753 158.445L220.711 138.029C221.326 136.986 222.597 136.675 223.561 137.341C224.648 138.073 224.833 139.737 223.972 140.736L208.774 158.445H208.753Z" fill="#FDB527"/>
<path d="M266.838 147.083C289.323 147.083 307.551 127.361 307.551 103.033C307.551 78.7057 289.323 58.9841 266.838 58.9841C244.353 58.9841 226.125 78.7057 226.125 103.033C226.125 127.361 244.353 147.083 266.838 147.083Z" fill="#96BCF4"/>
<path d="M305.946 111.031C311.157 87.3652 297.65 63.6101 275.777 57.9722C253.904 52.3342 231.948 66.9485 226.737 90.614C221.526 114.279 235.034 138.035 256.907 143.672C278.779 149.31 300.735 134.696 305.946 111.031Z" fill="#E4EAF8"/>
<path d="M260.336 111.333C260.336 95.9988 268.048 97.53 272.54 90.7395C276.744 84.3707 271.33 77.6468 258.142 83.2833C251.743 86.0128 244.79 71.3445 267.864 71.3445C285.031 71.3445 291.081 88.7423 275.596 100.703C262.223 111.399 279.965 111.311 260.336 111.311V111.333ZM259.147 125.025C259.147 115.771 272.109 115.815 272.109 125.025C272.109 134.234 259.147 134.278 259.147 125.025Z" fill="#FF5C5B"/>
<path d="M202.294 72.6096C204.714 61.5669 198.402 50.4923 188.196 47.8738C177.99 45.2553 167.754 52.0844 165.334 63.1271C162.914 74.1697 169.225 85.2443 179.432 87.8628C189.638 90.4813 199.874 83.6522 202.294 72.6096Z" fill="#35C5A7"/>
<path d="M183.792 81.4858C176.86 81.4858 171.199 75.3832 171.199 67.8604C171.199 60.3377 176.839 54.2351 183.792 54.2351C190.745 54.2351 196.385 60.3377 196.385 67.8604C196.385 75.3832 190.745 81.4858 183.792 81.4858ZM183.792 55.0784C177.27 55.0784 171.958 60.8259 171.958 67.8826C171.958 74.9394 177.27 80.6869 183.792 80.6869C190.314 80.6869 195.627 74.9394 195.627 67.8826C195.627 60.8259 190.314 55.0784 183.792 55.0784Z" fill="white"/>
<path d="M177.619 58.5402C178.952 57.4972 180.469 56.8315 182.069 56.543C182.664 56.432 183.197 56.898 183.197 57.5416V63.8439C183.197 64.7537 182.172 65.2197 181.577 64.5762L177.454 60.1158C177.024 59.6497 177.106 58.9174 177.598 58.5402H177.619Z" fill="white"/>
<path d="M173.332 65.9963C173.599 64.2432 174.214 62.6011 175.178 61.1809C175.527 60.6483 176.224 60.5595 176.634 61.0255L180.757 65.4859C181.351 66.1295 180.921 67.239 180.08 67.239H174.255C173.66 67.239 173.229 66.6399 173.332 66.0185V65.9963Z" fill="white"/>
<path d="M185.515 56.543C187.135 56.8315 188.653 57.4972 189.966 58.5402C190.458 58.9174 190.54 59.6719 190.109 60.1158L185.987 64.5762C185.392 65.2197 184.366 64.7537 184.366 63.8439V57.5416C184.366 56.898 184.92 56.432 185.494 56.543H185.515Z" fill="white"/>
<path d="M186.828 65.4859L190.95 61.0255C191.381 60.5595 192.058 60.6483 192.406 61.1809C193.37 62.6233 193.986 64.2654 194.252 65.9963C194.355 66.6399 193.924 67.2168 193.329 67.2168H187.504C186.664 67.2168 186.233 66.1073 186.828 65.4637V65.4859Z" fill="white"/>
<path d="M186.007 71.1447L190.13 75.6051C190.56 76.0711 190.478 76.8034 189.986 77.1807C188.653 78.2237 187.135 78.8894 185.535 79.1779C184.941 79.2888 184.407 78.8228 184.407 78.1793V71.877C184.407 70.9672 185.433 70.5012 186.028 71.1447H186.007Z" fill="white"/>
<path d="M187.504 68.5039H193.329C193.924 68.5039 194.355 69.103 194.252 69.7244C193.986 71.4775 193.37 73.1196 192.406 74.5399C192.058 75.0724 191.36 75.1612 190.95 74.6952L186.828 70.2348C186.233 69.5912 186.664 68.4817 187.504 68.4817V68.5039Z" fill="white"/>
<path d="M182.069 79.1779C180.449 78.8894 178.931 78.2237 177.619 77.1807C177.126 76.8034 177.044 76.0489 177.475 75.6051L181.598 71.1447C182.192 70.5012 183.218 70.9672 183.218 71.877V78.1793C183.218 78.8228 182.664 79.2888 182.09 79.1779H182.069Z" fill="white"/>
<path d="M175.178 74.5621C174.214 73.1197 173.599 71.4775 173.332 69.7466C173.229 69.1031 173.66 68.5261 174.255 68.5261H180.08C180.921 68.5261 181.351 69.6357 180.757 70.2792L176.634 74.7396C176.203 75.2056 175.527 75.1169 175.178 74.5843V74.5621Z" fill="white"/>
<path d="M183.792 69.1252C184.438 69.1252 184.961 68.5589 184.961 67.8604C184.961 67.1618 184.438 66.5955 183.792 66.5955C183.146 66.5955 182.623 67.1618 182.623 67.8604C182.623 68.5589 183.146 69.1252 183.792 69.1252Z" fill="white"/>
<path d="M213.921 108.653C220.056 102.014 220.056 91.2517 213.921 84.6134C207.786 77.9751 197.838 77.9751 191.702 84.6134C185.567 91.2517 185.567 102.014 191.702 108.653C197.838 115.291 207.786 115.291 213.921 108.653Z" fill="#0F43A9"/>
<path d="M209.697 96.5314C209.553 96.2652 209.512 95.9767 209.594 95.7326C209.881 94.8227 210.004 93.8685 209.963 92.8921C209.758 88.8311 206.558 85.5247 202.785 85.5247H202.744C198.806 85.5468 195.606 89.0309 195.606 93.2915C195.606 94.1348 195.729 94.9781 195.996 95.7991C196.078 96.0654 195.975 96.3539 195.873 96.5536C195.709 96.8643 195.606 97.2416 195.606 97.5966C195.606 98.7506 196.467 99.7048 197.554 99.7048C197.719 99.7048 197.862 99.6826 198.006 99.6382L200.898 107.494C201.205 108.337 201.923 108.848 202.744 108.848C203.564 108.848 204.282 108.337 204.589 107.494L207.502 99.616C207.666 99.6604 207.851 99.7048 208.035 99.7048C209.102 99.7048 209.984 98.7727 209.984 97.5966C209.984 97.2194 209.881 96.8421 209.717 96.5314H209.697ZM206.784 98.1958C206.743 98.0848 206.62 98.0182 206.517 98.0182C206.394 98.0182 206.312 98.0848 206.271 98.218C205.923 99.1722 205.061 99.7935 204.118 99.7935C203.072 99.7935 202.169 99.039 201.882 97.9517C201.862 97.8407 201.759 97.752 201.657 97.7298C201.657 97.7298 201.636 97.7298 201.616 97.7298C201.513 97.7298 201.431 97.7741 201.369 97.8851C201.164 98.2402 200.836 98.4399 200.446 98.4399C200.016 98.4399 199.626 98.1736 199.462 97.752C199.421 97.6188 199.298 97.5522 199.175 97.5744C199.052 97.5744 198.949 97.7076 198.929 97.8407C198.826 98.573 198.252 99.1056 197.575 99.1056C196.816 99.1056 196.201 98.4399 196.201 97.6188C196.201 97.3525 196.262 97.1084 196.385 96.8865C196.632 96.4427 196.693 96.0211 196.57 95.6216C196.324 94.8671 196.201 94.0904 196.201 93.3137C196.201 89.3859 199.154 86.1904 202.785 86.146H202.826C206.292 86.146 209.245 89.1862 209.43 92.9365C209.471 93.8241 209.368 94.7118 209.102 95.555C208.958 95.9989 209.02 96.4649 209.245 96.8643C209.368 97.0862 209.43 97.3525 209.43 97.6188C209.43 98.4399 208.815 99.1056 208.056 99.1056C207.522 99.1056 207.03 98.7506 206.805 98.218L206.784 98.1958Z" fill="white"/>
<path d="M162.559 117.835C169.976 109.81 169.976 96.7988 162.559 88.7739C155.142 80.749 143.116 80.749 135.699 88.7739C128.282 96.7988 128.282 109.81 135.699 117.835C143.116 125.859 155.142 125.859 162.559 117.835Z" fill="#FDB527"/>
<path d="M159.467 108.825C158.544 107.826 157.026 107.826 156.103 108.825C156.001 108.936 155.898 109.069 155.816 109.202L154.155 107.405C154.319 107.205 154.483 106.983 154.606 106.739C155.693 104.431 154.155 98.373 150.442 94.3342C147.571 91.2275 142.915 91.2275 140.044 94.3342C137.172 97.441 137.172 102.478 140.044 105.585C143.777 109.624 149.396 111.288 151.509 110.09C151.755 109.957 151.96 109.779 152.124 109.602L153.457 111.044C153.704 111.31 153.786 111.665 153.663 111.954C153.293 112.842 153.457 113.907 154.114 114.595C154.545 115.061 155.098 115.283 155.652 115.283C156.206 115.283 156.76 115.061 157.19 114.595C157.477 114.284 157.58 113.84 157.662 113.507C157.683 113.374 157.744 113.174 157.765 113.13C157.826 113.086 158.031 113.041 158.195 113.019C158.606 112.93 159.118 112.842 159.467 112.464C160.39 111.466 160.39 109.824 159.467 108.825ZM158.072 112.353C157.744 112.42 157.498 112.464 157.334 112.642C157.19 112.797 157.129 113.041 157.067 113.33C157.006 113.618 156.924 113.929 156.78 114.106C156.185 114.75 155.201 114.772 154.586 114.106C154.134 113.618 154.011 112.864 154.278 112.22C154.504 111.688 154.38 111.022 153.95 110.556L152.596 109.091C152.842 108.736 153.006 108.448 153.068 108.359C153.129 108.292 153.416 108.115 153.745 107.849L155.714 109.979C155.714 109.979 155.898 110.09 156.001 110.068C156.103 110.068 156.185 109.979 156.226 109.868C156.308 109.646 156.431 109.446 156.596 109.291C157.272 108.559 158.38 108.559 159.057 109.291C159.734 110.023 159.734 111.222 159.057 111.954C158.852 112.176 158.441 112.265 158.113 112.331L158.072 112.353Z" fill="white"/>
<path d="M102.613 105.031C123.369 86.0349 109.627 75.8048 102.715 84.0821C102.1 84.8144 101.013 84.8144 100.398 84.0821C93.4856 75.827 79.7437 86.0349 100.5 105.031C101.095 105.585 102.018 105.585 102.613 105.031Z" fill="#FF5C5B"/>
<path d="M236.729 172.203C248.379 161.529 240.667 155.804 236.791 160.442C236.442 160.841 235.827 160.841 235.498 160.442C231.622 155.804 223.91 161.551 235.56 172.203C235.909 172.514 236.401 172.514 236.75 172.203H236.729Z" fill="#FF5C5B"/>
<path d="M0.57428 220.402C13.0855 224.086 25.043 224.507 39.2566 216.852C79.0874 195.371 77.5697 140.603 66.8018 97.2858C58.1055 62.3348 37.5952 72.7202 38.2311 88.4537C39.3591 116.903 87.9889 127.91 116.19 112.82" stroke="#2E79E9" stroke-width="0.963908" stroke-miterlimit="10"/>
<path d="M311.776 132.237C327.753 141.823 326.502 164.347 311.366 166.589C305.11 167.521 297.644 162.794 299.285 156.203C300.823 150.056 308.269 146.417 313.95 151.565C332.143 168.031 339.424 232.274 359.872 247.897" stroke="#2E79E9" stroke-width="0.963908" stroke-miterlimit="10"/>
</g>
<defs>
<clipPath id="clip0_33_136">
<rect width="365" height="317" fill="white"/>
</clipPath>
</defs>
</svg>
