<svg width="40" height="41" viewBox="0 0 40 41" fill="none" xmlns="http://www.w3.org/2000/svg">
<circle cx="20" cy="20.36" r="20" fill="#FF9933"/>
<path d="M28 16V14H26V12H28V10H30V12H32V14H30V16H28ZM12 30C11.45 30 10.9793 29.8043 10.588 29.413C10.196 29.021 10 28.55 10 28V16C10 15.45 10.196 14.9793 10.588 14.588C10.9793 14.196 11.45 14 12 14H15.15L17 12H23V14H17.875L16.05 16H12V28H28V19H30V28C30 28.55 29.8043 29.021 29.413 29.413C29.021 29.8043 28.55 30 28 30H12ZM20 26.5C21.25 26.5 22.3127 26.0627 23.188 25.188C24.0627 24.3127 24.5 23.25 24.5 22C24.5 20.75 24.0627 19.6873 23.188 18.812C22.3127 17.9373 21.25 17.5 20 17.5C18.75 17.5 17.6873 17.9373 16.812 18.812C15.9373 19.6873 15.5 20.75 15.5 22C15.5 23.25 15.9373 24.3127 16.812 25.188C17.6873 26.0627 18.75 26.5 20 26.5ZM20 24.5C19.3 24.5 18.7083 24.2583 18.225 23.775C17.7417 23.2917 17.5 22.7 17.5 22C17.5 21.3 17.7417 20.7083 18.225 20.225C18.7083 19.7417 19.3 19.5 20 19.5C20.7 19.5 21.2917 19.7417 21.775 20.225C22.2583 20.7083 22.5 21.3 22.5 22C22.5 22.7 22.2583 23.2917 21.775 23.775C21.2917 24.2583 20.7 24.5 20 24.5Z" fill="white"/>
</svg>
