<svg width="16" height="14" viewBox="0 0 16 14" fill="none" xmlns="http://www.w3.org/2000/svg">
<path d="M15.6845 3.29835L14.372 1.21502C14.3155 1.12927 14.2307 1.05732 14.1267 1.00687C14.0227 0.956411 13.9033 0.929343 13.7814 0.928558H1.96877C1.84685 0.929343 1.7275 0.956411 1.62347 1.00687C1.51943 1.05732 1.43463 1.12927 1.37814 1.21502L0.0656256 3.29835C0.0236007 3.37204 0.00125656 3.45184 0 3.53272V12.3869C0 12.6632 0.138282 12.9281 0.384426 13.1235C0.63057 13.3188 0.964413 13.4286 1.31251 13.4286H14.4376C14.7857 13.4286 15.1196 13.3188 15.3657 13.1235C15.6119 12.9281 15.7502 12.6632 15.7502 12.3869V3.53272C15.7489 3.45184 15.7266 3.37204 15.6845 3.29835ZM2.37073 1.97022H13.3794L14.0357 3.01189H1.71447L2.37073 1.97022ZM14.4376 12.3869H1.31251V4.05356H14.4376V12.3869ZM11.1236 8.24626C11.2463 8.3439 11.3152 8.47619 11.3152 8.6141C11.3152 8.75202 11.2463 8.8843 11.1236 8.98194L8.34266 11.1955C8.21723 11.2917 8.04957 11.3456 7.87508 11.3456C7.70059 11.3456 7.53294 11.2917 7.4075 11.1955L4.62661 8.98194C4.5135 8.88286 4.45272 8.75306 4.45687 8.61941C4.46102 8.48575 4.52977 8.35848 4.64888 8.26394C4.768 8.1694 4.92837 8.11484 5.09678 8.11155C5.26518 8.10826 5.42874 8.15649 5.55357 8.24626L7.21882 9.56788V5.61606C7.21882 5.47792 7.28797 5.34545 7.41104 5.24777C7.53411 5.1501 7.70103 5.09522 7.87508 5.09522C8.04913 5.09522 8.21605 5.1501 8.33912 5.24777C8.4622 5.34545 8.53134 5.47792 8.53134 5.61606V9.56788L10.1966 8.24626C10.3196 8.14886 10.4863 8.09416 10.6601 8.09416C10.8338 8.09416 11.0005 8.14886 11.1236 8.24626Z" fill="#666666"/>
</svg>
