<svg width="24" height="24" viewBox="0 0 24 24" fill="none" xmlns="http://www.w3.org/2000/svg">
<g clip-path="url(#clip0_287_1201)">
<path d="M4.00002 6.41402L0.757019 3.17202L2.17202 1.75702L5.41402 5.00002H20.656C20.8119 5.00001 20.9656 5.03643 21.1049 5.10639C21.2442 5.17634 21.3652 5.27788 21.4583 5.40292C21.5513 5.52795 21.6139 5.673 21.6409 5.82651C21.668 5.98001 21.6588 6.13771 21.614 6.28702L19.214 14.287C19.1523 14.4931 19.0257 14.6738 18.8531 14.8022C18.6806 14.9307 18.4712 15 18.256 15H6.00002V17H17V19H5.00002C4.7348 19 4.48045 18.8947 4.29291 18.7071C4.10538 18.5196 4.00002 18.2652 4.00002 18V6.41402ZM6.00002 7.00002V13H17.512L19.312 7.00002H6.00002ZM5.50002 23C5.10219 23 4.72066 22.842 4.43936 22.5607C4.15805 22.2794 4.00002 21.8978 4.00002 21.5C4.00002 21.1022 4.15805 20.7207 4.43936 20.4394C4.72066 20.1581 5.10219 20 5.50002 20C5.89784 20 6.27938 20.1581 6.56068 20.4394C6.84198 20.7207 7.00002 21.1022 7.00002 21.5C7.00002 21.8978 6.84198 22.2794 6.56068 22.5607C6.27938 22.842 5.89784 23 5.50002 23ZM17.5 23C17.1022 23 16.7207 22.842 16.4394 22.5607C16.1581 22.2794 16 21.8978 16 21.5C16 21.1022 16.1581 20.7207 16.4394 20.4394C16.7207 20.1581 17.1022 20 17.5 20C17.8978 20 18.2794 20.1581 18.5607 20.4394C18.842 20.7207 19 21.1022 19 21.5C19 21.8978 18.842 22.2794 18.5607 22.5607C18.2794 22.842 17.8978 23 17.5 23Z" fill="#F7941D"/>
</g>
<defs>
<clipPath id="clip0_287_1201">
<rect width="24" height="24" fill="white"/>
</clipPath>
</defs>
</svg>
