<svg width="25" height="24" viewBox="0 0 25 24" fill="none" xmlns="http://www.w3.org/2000/svg">
<path d="M12.6125 22.75C6.68255 22.75 1.86255 17.93 1.86255 12C1.86255 6.07 6.68255 1.25 12.6125 1.25C18.5425 1.25 23.3625 6.07 23.3625 12C23.3625 17.93 18.5425 22.75 12.6125 22.75ZM12.6125 2.75C7.51255 2.75 3.36255 6.9 3.36255 12C3.36255 17.1 7.51255 21.25 12.6125 21.25C17.7125 21.25 21.8625 17.1 21.8625 12C21.8625 6.9 17.7125 2.75 12.6125 2.75Z" fill="#DFDFE6"/>
<path d="M9.78253 15.58C9.59253 15.58 9.40253 15.51 9.25253 15.36C8.96253 15.07 8.96253 14.59 9.25253 14.3L14.9125 8.63999C15.2025 8.34999 15.6825 8.34999 15.9725 8.63999C16.2625 8.92999 16.2625 9.40998 15.9725 9.69998L10.3125 15.36C10.1725 15.51 9.97253 15.58 9.78253 15.58Z" fill="#23262F"/>
<path d="M15.4425 15.58C15.2525 15.58 15.0625 15.51 14.9125 15.36L9.25253 9.69998C8.96253 9.40998 8.96253 8.92999 9.25253 8.63999C9.54253 8.34999 10.0225 8.34999 10.3125 8.63999L15.9725 14.3C16.2625 14.59 16.2625 15.07 15.9725 15.36C15.8225 15.51 15.6325 15.58 15.4425 15.58Z" fill="#23262F"/>
</svg>
