<svg width="19" height="22" viewBox="0 0 19 22" fill="none" xmlns="http://www.w3.org/2000/svg">
<path d="M10 13.484V15.574C9.09492 15.254 8.12628 15.1558 7.1754 15.2878C6.22453 15.4197 5.3192 15.7779 4.53543 16.3322C3.75166 16.8865 3.11234 17.6208 2.67116 18.4734C2.22998 19.326 1.99982 20.272 2 21.232L2.58457e-07 21.231C-0.000310114 20.0099 0.278921 18.8049 0.816299 17.7084C1.35368 16.6119 2.13494 15.6529 3.10022 14.905C4.0655 14.1571 5.18918 13.6401 6.38515 13.3936C7.58113 13.1472 8.81766 13.1777 10 13.483V13.484ZM8 12.232C4.685 12.232 2 9.54699 2 6.23199C2 2.91699 4.685 0.231995 8 0.231995C11.315 0.231995 14 2.91699 14 6.23199C14 9.54699 11.315 12.232 8 12.232ZM8 10.232C10.21 10.232 12 8.44199 12 6.23199C12 4.02199 10.21 2.23199 8 2.23199C5.79 2.23199 4 4.02199 4 6.23199C4 8.44199 5.79 10.232 8 10.232ZM15 16.818L17.121 14.696L18.536 16.111L16.414 18.232L18.536 20.353L17.121 21.768L15 19.646L12.879 21.768L11.464 20.353L13.586 18.232L11.464 16.111L12.879 14.696L15 16.818Z" fill="#666666"/>
</svg>
