<svg width="24" height="23" viewBox="0 0 24 23" fill="none" xmlns="http://www.w3.org/2000/svg">
<g opacity="0.5">
<path d="M12 2.56C6.486 2.56 2 6.68712 2 11.76C2 16.8329 6.486 20.96 12 20.96C17.514 20.96 22 16.8329 22 11.76C22 6.68712 17.514 2.56 12 2.56ZM12 19.12C7.589 19.12 4 15.8181 4 11.76C4 7.70188 7.589 4.4 12 4.4C16.411 4.4 20 7.70188 20 11.76C20 15.8181 16.411 19.12 12 19.12Z" fill="#1B1A57"/>
<path d="M14.8289 14.3618C14.4634 14.697 14.0317 14.9649 13.5569 15.1511C12.7022 15.4831 11.7487 15.5316 10.8595 15.2882C9.97022 15.0449 9.20049 14.5249 8.68193 13.8171L7.02393 14.8466C7.45636 15.4337 8.00652 15.9395 8.64493 16.337C9.29458 16.7412 10.0245 17.0235 10.7929 17.1678C11.5897 17.3173 12.4111 17.3173 13.2079 17.1678C13.9763 17.0233 14.7062 16.741 15.3559 16.337C15.6689 16.142 15.9679 15.9156 16.2419 15.6645C16.5139 15.4152 16.7619 15.1392 16.9759 14.8466L15.3179 13.8171C15.1742 14.0126 15.0105 14.195 14.8289 14.3618Z" fill="#1B1A57"/>
<path d="M15.493 11.7471C16.3176 11.7471 16.986 11.1322 16.986 10.3736C16.986 9.61496 16.3176 9 15.493 9C14.6684 9 14 9.61496 14 10.3736C14 11.1322 14.6684 11.7471 15.493 11.7471Z" fill="#1B1A57"/>
<path d="M8.5 11.76C9.32843 11.76 10 11.1422 10 10.38C10 9.61785 9.32843 9 8.5 9C7.67157 9 7 9.61785 7 10.38C7 11.1422 7.67157 11.76 8.5 11.76Z" fill="#1B1A57"/>
</g>
</svg>
