<svg width="24" height="24" viewBox="0 0 24 24" fill="none" xmlns="http://www.w3.org/2000/svg">
<g clip-path="url(#clip0_248_879)">
<path d="M19 21H5C4.73478 21 4.48043 20.8946 4.29289 20.7071C4.10536 20.5196 4 20.2652 4 20V11H1L11.327 1.612C11.5111 1.44447 11.7511 1.35164 12 1.35164C12.2489 1.35164 12.4889 1.44447 12.673 1.612L23 11H20V20C20 20.2652 19.8946 20.5196 19.7071 20.7071C19.5196 20.8946 19.2652 21 19 21ZM13 19H18V9.157L12 3.703L6 9.157V19H11V13H13V19Z" fill="#666666"/>
</g>
<defs>
<clipPath id="clip0_248_879">
<rect width="24" height="24" fill="white"/>
</clipPath>
</defs>
</svg>
