<svg width="20" height="20" viewBox="0 0 20 20" fill="none" xmlns="http://www.w3.org/2000/svg">
<g clip-path="url(#clip0_112_1088)">
<path d="M10.4646 0.800598C10.4646 0.800598 9.95839 1.05896 9.45265 1.43943C9.19979 1.62966 8.94386 1.85036 8.74151 2.10454C8.53917 2.35868 8.37425 2.66048 8.39932 3.01337C8.42721 3.40556 8.69307 3.69763 8.97667 3.87275C9.26022 4.04782 9.58221 4.15376 9.88546 4.25825C10.1887 4.36275 10.4733 4.46579 10.6539 4.57732C10.8345 4.6888 10.8903 4.76103 10.8993 4.88837C10.9004 4.90282 10.883 4.98001 10.7973 5.08771C10.7115 5.1954 10.5736 5.31935 10.4293 5.42794C10.1407 5.64501 9.83964 5.8006 9.83964 5.8006L10.1603 6.42622C10.1603 6.42622 10.5051 6.25068 10.852 5.98974C11.0254 5.85927 11.2026 5.70743 11.3473 5.52568C11.4921 5.34384 11.6205 5.11786 11.6007 4.83845C11.5728 4.44626 11.3069 4.15419 11.0233 3.97907C10.7398 3.80396 10.4178 3.69806 10.1145 3.59357C9.81124 3.48907 9.52663 3.38603 9.34608 3.2745C9.1655 3.16298 9.10968 3.09079 9.10065 2.96345C9.0944 2.87548 9.14819 2.72251 9.29151 2.54247C9.43487 2.36239 9.65159 2.16947 9.87534 2.00115C10.3228 1.66454 10.7853 1.42622 10.7853 1.42622L10.4646 0.800598ZM5.46464 2.6756C5.46464 2.6756 4.95839 2.93396 4.45264 3.31443C4.19979 3.50466 3.94386 3.72536 3.74151 3.97954C3.53917 4.23368 3.37425 4.53548 3.39932 4.88837C3.42722 5.28056 3.69307 5.57263 3.97667 5.74775C4.26022 5.92282 4.58222 6.02876 4.88546 6.13325C5.18874 6.23775 5.47335 6.34079 5.6539 6.45232C5.83448 6.5638 5.8903 6.63603 5.89932 6.76337C5.90038 6.77782 5.883 6.85501 5.79725 6.96271C5.71151 7.0704 5.57358 7.19435 5.42929 7.30294C5.14069 7.52001 4.83964 7.6756 4.83964 7.6756L5.16034 8.30122C5.16034 8.30122 5.50511 8.12568 5.85198 7.86474C6.02542 7.73427 6.20261 7.58243 6.34733 7.40064C6.49206 7.21884 6.6205 6.99283 6.60065 6.71345C6.57276 6.32126 6.3069 6.02919 6.02331 5.85407C5.73975 5.67896 5.41776 5.57306 5.11452 5.46857C4.81124 5.36407 4.52663 5.26103 4.34608 5.1495C4.1655 5.03798 4.10968 4.96579 4.10065 4.83845C4.0944 4.75048 4.14819 4.59751 4.29151 4.41747C4.43487 4.23739 4.65159 4.04447 4.87534 3.87614C5.32276 3.53954 5.78534 3.30122 5.78534 3.30122L5.46464 2.6756ZM15.4646 2.6756C15.4646 2.6756 14.9584 2.93396 14.4526 3.31443C14.1998 3.50466 13.9439 3.72536 13.7415 3.97954C13.5392 4.23368 13.3742 4.53548 13.3993 4.88837C13.4272 5.28056 13.6931 5.57263 13.9767 5.74775C14.2602 5.92282 14.5822 6.02876 14.8855 6.13325C15.1887 6.23775 15.4733 6.34079 15.6539 6.45232C15.8345 6.5638 15.8903 6.63603 15.8993 6.76337C15.9004 6.77782 15.883 6.85501 15.7973 6.96271C15.7115 7.0704 15.5736 7.19435 15.4293 7.30294C15.1407 7.52001 14.8396 7.6756 14.8396 7.6756L15.1603 8.30122C15.1603 8.30122 15.5051 8.12568 15.852 7.86474C16.0254 7.73427 16.2026 7.58243 16.3473 7.40064C16.4921 7.21884 16.6205 6.99283 16.6007 6.71345C16.5728 6.32126 16.3069 6.02919 16.0233 5.85407C15.7398 5.67896 15.4178 5.57306 15.1145 5.46857C14.8112 5.36407 14.5266 5.26103 14.3461 5.1495C14.1655 5.03798 14.1097 4.96579 14.1007 4.83845C14.0944 4.75048 14.1482 4.59751 14.2915 4.41747C14.4349 4.23739 14.6516 4.04447 14.8753 3.87614C15.3228 3.53954 15.7853 3.30122 15.7853 3.30122L15.4646 2.6756ZM9.99999 7.32427C9.49218 7.32427 9.14874 7.55529 8.88624 7.94904C8.77757 8.11204 8.68987 8.3045 8.62393 8.51408C9.06612 8.4513 9.52511 8.41818 9.99999 8.41818C10.4749 8.41818 10.9338 8.4513 11.376 8.51408C11.3101 8.3045 11.2224 8.11204 11.1137 7.94904C10.8512 7.55529 10.5078 7.32427 9.99999 7.32427ZM9.99999 9.12115C5.33487 9.12115 2.43155 12.482 2.24452 15.9182H17.7555C17.5684 12.482 14.6651 9.12111 9.99999 9.12111V9.12115ZM0.873544 16.0992L0.376434 16.5963C1.08425 17.3042 1.87499 17.3243 2.49999 17.3243H17.5C18.125 17.3243 18.9157 17.3042 19.6235 16.5963L19.1264 16.0992C18.5842 16.6414 18.125 16.6213 17.5 16.6213H2.49999C1.87499 16.6213 1.41569 16.6414 0.873544 16.0992ZM4.40679 18.0274L5.18811 19.1994H14.8119L15.5932 18.0274H4.40679Z" fill="#F7941D"/>
</g>
<defs>
<clipPath id="clip0_112_1088">
<rect width="20" height="20" fill="white"/>
</clipPath>
</defs>
</svg>
