<svg width="19" height="22" viewBox="0 0 19 22" fill="none" xmlns="http://www.w3.org/2000/svg">
<path d="M10 13.752V15.842C9.09492 15.522 8.12628 15.4239 7.1754 15.5558C6.22453 15.6877 5.3192 16.0459 4.53543 16.6002C3.75166 17.1545 3.11234 17.8888 2.67116 18.7414C2.22998 19.594 1.99982 20.54 2 21.5L2.58457e-07 21.499C-0.000310114 20.2779 0.278921 19.0729 0.816299 17.9764C1.35368 16.8799 2.13494 15.9209 3.10022 15.173C4.0655 14.4251 5.18918 13.9081 6.38515 13.6616C7.58113 13.4152 8.81766 13.4457 10 13.751V13.752ZM8 12.5C4.685 12.5 2 9.815 2 6.5C2 3.185 4.685 0.5 8 0.5C11.315 0.5 14 3.185 14 6.5C14 9.815 11.315 12.5 8 12.5ZM8 10.5C10.21 10.5 12 8.71 12 6.5C12 4.29 10.21 2.5 8 2.5C5.79 2.5 4 4.29 4 6.5C4 8.71 5.79 10.5 8 10.5ZM14 16.5V13.5H16V16.5H19V18.5H16V21.5H14V18.5H11V16.5H14Z" fill="#666666"/>
</svg>
