<svg width="25" height="24" viewBox="0 0 25 24" fill="none" xmlns="http://www.w3.org/2000/svg">
<g clip-path="url(#clip0_248_619)">
<path d="M20.8333 22H4.83331C4.5681 22 4.31374 21.8946 4.12621 21.7071C3.93867 21.5196 3.83331 21.2652 3.83331 21V3C3.83331 2.73478 3.93867 2.48043 4.12621 2.29289C4.31374 2.10536 4.5681 2 4.83331 2H20.8333C21.0985 2 21.3529 2.10536 21.5404 2.29289C21.728 2.48043 21.8333 2.73478 21.8333 3V21C21.8333 21.2652 21.728 21.5196 21.5404 21.7071C21.3529 21.8946 21.0985 22 20.8333 22ZM19.8333 20V4H5.83331V20H19.8333ZM8.83331 7H16.8333V9H8.83331V7ZM8.83331 11H16.8333V13H8.83331V11ZM8.83331 15H16.8333V17H8.83331V15Z" fill="#666666"/>
</g>
<defs>
<clipPath id="clip0_248_619">
<rect width="24" height="24" fill="white" transform="translate(0.833313)"/>
</clipPath>
</defs>
</svg>
