<svg width="24" height="24" viewBox="0 0 24 24" fill="none" xmlns="http://www.w3.org/2000/svg">
<path d="M17.275 18.125L16.85 17.7C16.7 17.55 16.5207 17.475 16.312 17.475C16.104 17.475 15.925 17.55 15.775 17.7C15.625 17.85 15.55 18.025 15.55 18.225C15.55 18.425 15.625 18.6 15.775 18.75L16.75 19.725C16.9 19.875 17.075 19.95 17.275 19.95C17.475 19.95 17.65 19.875 17.8 19.725L20.225 17.35C20.375 17.2 20.45 17.0207 20.45 16.812C20.45 16.604 20.375 16.425 20.225 16.275C20.075 16.125 19.896 16.05 19.688 16.05C19.4793 16.05 19.3 16.125 19.15 16.275L17.275 18.125ZM7 9H17C17.2833 9 17.5207 8.904 17.712 8.712C17.904 8.52067 18 8.28333 18 8C18 7.71667 17.904 7.479 17.712 7.287C17.5207 7.09567 17.2833 7 17 7H7C6.71667 7 6.479 7.09567 6.287 7.287C6.09567 7.479 6 7.71667 6 8C6 8.28333 6.09567 8.52067 6.287 8.712C6.479 8.904 6.71667 9 7 9ZM18 23C16.6167 23 15.4377 22.5127 14.463 21.538C13.4877 20.5627 13 19.3833 13 18C13 16.6167 13.4877 15.4373 14.463 14.462C15.4377 13.4873 16.6167 13 18 13C19.3833 13 20.5627 13.4873 21.538 14.462C22.5127 15.4373 23 16.6167 23 18C23 19.3833 22.5127 20.5627 21.538 21.538C20.5627 22.5127 19.3833 23 18 23ZM3 21.875V5C3 4.45 3.19567 3.979 3.587 3.587C3.979 3.19567 4.45 3 5 3H19C19.55 3 20.021 3.19567 20.413 3.587C20.8043 3.979 21 4.45 21 5V11.675C20.6833 11.525 20.3583 11.4 20.025 11.3C19.6917 11.2 19.35 11.125 19 11.075V5H5V19.05H11.075C11.1583 19.5667 11.2877 20.0583 11.463 20.525C11.6377 20.9917 11.8667 21.4333 12.15 21.85C12.0667 21.8667 11.979 21.854 11.887 21.812C11.7957 21.7707 11.7167 21.7167 11.65 21.65L10.85 20.85C10.75 20.75 10.6333 20.7 10.5 20.7C10.3667 20.7 10.25 20.75 10.15 20.85L9.35 21.65C9.25 21.75 9.13333 21.8 9 21.8C8.86667 21.8 8.75 21.75 8.65 21.65L7.85 20.85C7.75 20.75 7.63333 20.7 7.5 20.7C7.36667 20.7 7.25 20.75 7.15 20.85L6.35 21.65C6.25 21.75 6.13333 21.8 6 21.8C5.86667 21.8 5.75 21.75 5.65 21.65L4.85 20.85C4.75 20.75 4.63333 20.7 4.5 20.7C4.36667 20.7 4.25 20.75 4.15 20.85L3.35 21.65L3 21.875ZM7 17H11.075C11.125 16.65 11.2 16.3083 11.3 15.975C11.4 15.6417 11.525 15.3167 11.675 15H7C6.71667 15 6.479 15.0957 6.287 15.287C6.09567 15.479 6 15.7167 6 16C6 16.2833 6.09567 16.5207 6.287 16.712C6.479 16.904 6.71667 17 7 17ZM7 13H13.1C13.7333 12.3833 14.4707 11.8957 15.312 11.537C16.154 11.179 17.05 11 18 11H7C6.71667 11 6.479 11.0957 6.287 11.287C6.09567 11.479 6 11.7167 6 12C6 12.2833 6.09567 12.5207 6.287 12.712C6.479 12.904 6.71667 13 7 13Z" fill="#666666"/>
</svg>
