<svg width="24" height="24" viewBox="0 0 24 24" fill="none" xmlns="http://www.w3.org/2000/svg">
<g clip-path="url(#clip0_484_2072)">
<path d="M3.783 2.826L12 1L20.217 2.826C20.4391 2.87536 20.6377 2.99897 20.78 3.1764C20.9224 3.35384 21 3.57452 21 3.802V13.789C20.9999 14.7767 20.756 15.7492 20.2899 16.62C19.8238 17.4908 19.1499 18.2331 18.328 18.781L12 23L5.672 18.781C4.85027 18.2332 4.17646 17.4911 3.71035 16.6205C3.24424 15.7498 3.00024 14.7776 3 13.79V3.802C3.00004 3.57452 3.07764 3.35384 3.21999 3.1764C3.36234 2.99897 3.56094 2.87536 3.783 2.826ZM5 4.604V13.789C5.00001 14.4475 5.16257 15.0957 5.47326 15.6763C5.78395 16.2568 6.23315 16.7517 6.781 17.117L12 20.597L17.219 17.117C17.7667 16.7518 18.2158 16.2571 18.5265 15.6767C18.8372 15.0964 18.9998 14.4483 19 13.79V4.604L12 3.05L5 4.604ZM12 11C11.337 11 10.7011 10.7366 10.2322 10.2678C9.76339 9.79893 9.5 9.16304 9.5 8.5C9.5 7.83696 9.76339 7.20107 10.2322 6.73223C10.7011 6.26339 11.337 6 12 6C12.663 6 13.2989 6.26339 13.7678 6.73223C14.2366 7.20107 14.5 7.83696 14.5 8.5C14.5 9.16304 14.2366 9.79893 13.7678 10.2678C13.2989 10.7366 12.663 11 12 11ZM7.527 16C7.64822 14.8984 8.17168 13.8803 8.99708 13.1407C9.82248 12.4012 10.8918 11.9922 12 11.9922C13.1082 11.9922 14.1775 12.4012 15.0029 13.1407C15.8283 13.8803 16.3518 14.8984 16.473 16H7.527Z" fill="#666666"/>
</g>
<defs>
<clipPath id="clip0_484_2072">
<rect width="24" height="24" fill="white"/>
</clipPath>
</defs>
</svg>
