<svg width="16" height="15" viewBox="0 0 16 15" fill="none" xmlns="http://www.w3.org/2000/svg">
<path d="M5.375 11.8542L8 10.2708L10.625 11.875L9.9375 8.875L12.25 6.875L9.20833 6.60417L8 3.77083L6.79166 6.58333L3.75 6.85417L6.0625 8.875L5.375 11.8542ZM8 12.2292L4.54166 14.3125C4.38889 14.4097 4.22916 14.4514 4.0625 14.4375C3.89583 14.4236 3.75 14.3681 3.625 14.2708C3.5 14.1736 3.40278 14.0522 3.33333 13.9067C3.26389 13.7606 3.25 13.5972 3.29166 13.4167L4.20833 9.47917L1.14583 6.83333C1.00694 6.70833 0.920275 6.56583 0.885831 6.40583C0.850831 6.24639 0.861109 6.09028 0.916664 5.9375C0.97222 5.78472 1.05555 5.65972 1.16666 5.5625C1.27778 5.46528 1.43055 5.40278 1.625 5.375L5.66666 5.02083L7.22916 1.3125C7.29861 1.14583 7.40639 1.02083 7.5525 0.9375C7.69805 0.854167 7.84722 0.8125 8 0.8125C8.15278 0.8125 8.30222 0.854167 8.44833 0.9375C8.59389 1.02083 8.70139 1.14583 8.77083 1.3125L10.3333 5.02083L14.375 5.375C14.5694 5.40278 14.7222 5.46528 14.8333 5.5625C14.9444 5.65972 15.0278 5.78472 15.0833 5.9375C15.1389 6.09028 15.1494 6.24639 15.115 6.40583C15.08 6.56583 14.9931 6.70833 14.8542 6.83333L11.7917 9.47917L12.7083 13.4167C12.75 13.5972 12.7361 13.7606 12.6667 13.9067C12.5972 14.0522 12.5 14.1736 12.375 14.2708C12.25 14.3681 12.1042 14.4236 11.9375 14.4375C11.7708 14.4514 11.6111 14.4097 11.4583 14.3125L8 12.2292Z" fill="#F7941D"/>
</svg>
