<svg width="25" height="24" viewBox="0 0 25 24" fill="none" xmlns="http://www.w3.org/2000/svg">
<g clip-path="url(#clip0_248_625)">
<path d="M4.66666 22C4.66666 19.8783 5.50951 17.8434 7.0098 16.3431C8.51009 14.8429 10.5449 14 12.6667 14C14.7884 14 16.8232 14.8429 18.3235 16.3431C19.8238 17.8434 20.6667 19.8783 20.6667 22H18.6667C18.6667 20.4087 18.0345 18.8826 16.9093 17.7574C15.7841 16.6321 14.258 16 12.6667 16C11.0754 16 9.54923 16.6321 8.42402 17.7574C7.2988 18.8826 6.66666 20.4087 6.66666 22H4.66666ZM12.6667 13C9.35166 13 6.66666 10.315 6.66666 7C6.66666 3.685 9.35166 1 12.6667 1C15.9817 1 18.6667 3.685 18.6667 7C18.6667 10.315 15.9817 13 12.6667 13ZM12.6667 11C14.8767 11 16.6667 9.21 16.6667 7C16.6667 4.79 14.8767 3 12.6667 3C10.4567 3 8.66666 4.79 8.66666 7C8.66666 9.21 10.4567 11 12.6667 11Z" fill="#666666"/>
</g>
<defs>
<clipPath id="clip0_248_625">
<rect width="24" height="24" fill="white" transform="translate(0.666656)"/>
</clipPath>
</defs>
</svg>
