<svg width="25" height="25" viewBox="0 0 25 25" fill="none" xmlns="http://www.w3.org/2000/svg">
<path d="M8.89761 22.5659L6.99761 19.3659L3.39761 18.5659L3.74761 14.8659L1.29761 12.0659L3.74761 9.26592L3.39761 5.56592L6.99761 4.76592L8.89761 1.56592L12.2976 3.01592L15.6976 1.56592L17.5976 4.76592L21.1976 5.56592L20.8476 9.26592L23.2976 12.0659L20.8476 14.8659L21.1976 18.5659L17.5976 19.3659L15.6976 22.5659L12.2976 21.1159L8.89761 22.5659ZM9.74761 20.0159L12.2976 18.9159L14.8976 20.0159L16.2976 17.6159L19.0476 16.9659L18.7976 14.1659L20.6476 12.0659L18.7976 9.91592L19.0476 7.11592L16.2976 6.51592L14.8476 4.11592L12.2976 5.21592L9.69761 4.11592L8.29761 6.51592L5.54761 7.11592L5.79761 9.91592L3.94761 12.0659L5.79761 14.1659L5.54761 17.0159L8.29761 17.6159L9.74761 20.0159ZM11.2476 15.6159L16.8976 9.96592L15.4976 8.51592L11.2476 12.7659L9.09761 10.6659L7.69761 12.0659L11.2476 15.6159Z" fill="#99CC33"/>
</svg>
